<svg xmlns="http://www.w3.org/2000/svg" xmlns:xlink="http://www.w3.org/1999/xlink" width="384.368" height="533.196" viewBox="0 0 384.368 533.196"><defs><style>.a,.au{fill:none;}.b{fill:url(#a);}.c{fill:url(#b);}.d{clip-path:url(#c);}.e{fill:#fdfdfa;}.f{fill:#010100;}.g{fill:#cf0c1b;}.h{fill:#b9afd9;}.i{fill:#573cb0;}.j{fill:#571f4f;}.k{fill:#300c2b;}.k,.m{opacity:0.29;}.l{fill:#f6a882;}.m{fill:#f65656;}.n{fill:#9e89de;}.o,.p{fill:#91638b;}.o{opacity:0.6;}.ag,.p{opacity:0.42;}.q{fill:#29146e;opacity:0.36;}.r{fill:#b6a1ff;opacity:0.25;}.aa,.ax,.s{fill:#fff;}.au,.s{stroke:#000;stroke-miterlimit:10;}.t{fill:#322366;}.u{fill:#3785b8;}.v{fill:#0b324d;}.w{fill:#9ed8ff;opacity:0.38;}.x{fill:#2b0826;}.y{fill:#f67d7d;}.z{fill:#a82522;}.ab{fill:#ffb7b7;}.ac{fill:#571b4e;}.ad{fill:#7c5aec;}.ae{fill:#987eec;}.af{fill:#6748cc;}.ag{fill:#523b9c;}.ah{fill:#fff5e6;}.ai{fill:#fcc060;}.aj,.am{fill:#fc4242;}.aj{opacity:0.11;}.ak{fill:#583bb3;}.al{fill:#994323;}.am{opacity:0.48;}.an{fill:#fff5e3;opacity:0.28;}.ao{fill:#edf6ff;}.ap{fill:#d1e6ff;opacity:0.69;}.aq{fill:#deeeff;}.ar{fill:#353d90;}.as{fill:#19126b;opacity:0.45;}.at{fill:#6b73bf;}.au{stroke-linecap:round;}.av{fill:#eae3ff;}.aw{fill:#155696;}.ax{opacity:0.05;}.ay{fill:#f5faff;}</style><radialGradient id="a" cx="0.379" cy="-0.244" r="1.537" gradientTransform="matrix(1.116, -0.001, 0.001, 1.119, -0.103, 0.029)" gradientUnits="objectBoundingBox"><stop offset="0" stop-color="#f9f9f9"/><stop offset="0.411" stop-color="#49bcbb"/><stop offset="1" stop-color="#31439a"/></radialGradient><radialGradient id="b" cx="-0.413" cy="-0.258" r="1.539" gradientTransform="translate(-0.056) scale(1.112 1)" xlink:href="#a"/><clipPath id="c"><path class="a" d="M3785.453,948.151l-163.809-40.357-163.757,40.567s-49.541,245.33,164,333.7C3835.311,1193.416,3785.453,948.151,3785.453,948.151Z" transform="translate(-3452.91 -907.794)"/></clipPath></defs><g transform="translate(-50.124 -9.934)"><g transform="translate(-3364.653 -854.155)"><g transform="translate(3414.777 864.088)"><path class="b" d="M3599.031,1289.71c-52.74-21.826-95.08-54.663-125.844-97.6-24.723-34.5-41.867-75.312-50.956-121.291-15.264-77.216-2.452-142.4-1.9-145.138l3.271-16.193,183.274-45.4,183.334,45.166,3.292,16.188c.557,2.739,13.449,67.922-1.712,145.14-9.029,45.991-26.12,86.821-50.8,121.357-30.708,42.975-73.006,75.866-125.719,97.76l-8.118,3.373Z" transform="translate(-3414.777 -864.088)"/><path class="c" d="M3611.708,1285.463c-50.5-20.9-90.947-52.208-120.215-93.056-23.466-32.748-39.751-71.552-48.405-115.334-14.642-74.068-2.439-136.182-1.912-138.79l1.454-7.2,172.432-42.716,172.487,42.493,1.462,7.2c.531,2.608,12.813,64.705-1.732,138.792-8.6,43.793-24.833,82.617-48.257,115.4-29.216,40.886-69.622,72.247-120.1,93.211l-3.608,1.5Zm167.17-344.824-163.81-40.357-163.756,40.567s-49.542,245.33,164,333.7C3828.736,1185.9,3778.878,940.639,3778.878,940.639Z" transform="translate(-3422.949 -873.479)"/></g><g transform="translate(3438.163 890.891)"><g class="d"><g transform="translate(-38.638 -13.65)"><path class="e" d="M3753.675,1231.213a497.69,497.69,0,0,1-71.812,59c-4.945,3.4-7.959,4.424-13.758.21a582.882,582.882,0,0,1-71.361-61.538,11.778,11.778,0,0,1-3.47-9.522q1.868-148.757,3.494-297.509c-.825-4.076,2.4-7.927,7.2-8.6l.1-.014a316.688,316.688,0,0,0,73.4-26.582,5.823,5.823,0,0,1,6.852-.017c21.835,14.334,47.512,22.106,72.681,30.809q-1.9,155.026-3.777,310.027A25.444,25.444,0,0,0,3753.675,1231.213Z" transform="translate(-3468.53 -885.537)"/><path class="f" d="M3854.58,1251.375a25.461,25.461,0,0,1-.456-3.739q1.863-154.992,3.777-310.028c12.538.618,23.975,5.115,35.936,7.694,16.979,3.654,34.022,6.661,51.279,9.22a281.449,281.449,0,0,0,37.265,4.423c6.821.094,5.033,4.628,4.65,7.682-2.819,24.093-5.454,48.169-9.776,72.148-5.391,30-17.59,58.257-30.419,85.764a391.723,391.723,0,0,1-63.164,95.968A383.238,383.238,0,0,1,3854.58,1251.375Z" transform="translate(-3569.435 -905.674)"/><path class="g" d="M3515.876,1247.8a25.5,25.5,0,0,0,.546-3.726q1.862-154.991,3.673-310.029c-12.549.272-24.089,4.451-36.108,6.7-17.061,3.184-34.171,5.718-51.484,7.8a281.347,281.347,0,0,1-37.358,3.393c-6.821-.094-5.142,4.487-4.833,7.55,2.24,24.163,4.3,48.3,8.04,72.394,4.668,30.143,16.184,58.724,28.349,86.576a394.37,394.37,0,0,0,60.835,97.681A385.579,385.579,0,0,0,3515.876,1247.8Z" transform="translate(-3389.906 -904.295)"/></g></g></g></g><g transform="translate(103.651 173.075)"><g transform="translate(5.404 244.773)"><rect class="h" width="8.134" height="92.275" transform="translate(4.489 18.966)"/><rect class="h" width="8.134" height="92.275" transform="translate(111.909 18.966)"/><rect class="i" width="124.42" height="24.666" rx="7.271"/></g><g transform="translate(9.031)"><path class="j" d="M243.689,200.257c-.438,6.642-4.869,13.508-4.869,13.508s3.983,6.417-.213,16.38c-3.814,9.02-7.438,9.861-10.557,13.575a14.714,14.714,0,0,0-.954,1.257c-3.321,4.869-2.659,7.079-4.207,11.724s-9.525,12.4-11.735,14.394c-1,.9-3.893,6.182-7.057,12.5-3.837,7.662-8.066,16.851-9.76,21.585-3.108,8.627-37.852-2.659-51.573,0s-31.66-1.111-35.194-19.252,4.869-26.342,11.724-31.66,7.528-8.19,2.659-18.365-.438-18.376,10.849-24.569,14.383-11.959,16.38-26.791,14.831-25.893,36.517-28.328a43.108,43.108,0,0,1,33.41,10.007.4.4,0,0,1,.135.112c.3.269.516.482.64.606a.666.666,0,0,1,.09.09l.034.034a7.534,7.534,0,0,1,1.268-.034c2.434.1,8.066,1.167,13.564,8C242.141,184.1,244.138,193.616,243.689,200.257Z" transform="translate(-106.732 -155.915)"/><path class="k" d="M235.488,195.837s-1.122,8.975-1.683,19.072.561,19.352-6.451,28.047c-.034.034-.056.067-.09.1-6.944,8.549-9.749,3.3-15.336,12.24-5.318,8.515-7.618,19.308-7.831,28.294-3.837,7.662-8.066,16.851-9.76,21.585-3.108,8.627-37.852-2.659-51.573,0s-31.66-1.111-35.194-19.252,4.869-26.342,11.724-31.66,7.528-8.19,2.659-18.365-.438-18.376,10.849-24.569,14.383-11.959,16.38-26.791,14.831-25.893,36.517-28.328a43.108,43.108,0,0,1,33.41,10.007c-9.334-7.36-49.733-2.872-55.141,6.058-5.609,9.256-3.085,19.353-13.463,31.974s-15.706,11.5-18.231,15.706,5.048,6.451,6.451,18.792S133.4,248,128.909,259.224s4.768,19.072,4.768,19.072,1.963-10.938,7.853-14.3,12.06-3.085,17.67-8.414c5.262-4.992,7.315-15.415,7.55-16.694-.191.191-1.414.034-8.672-5.464-9.256-7.012-5.329-14.024,0-19.072s7.012-4.768,16.548-10.377,6.731-8.414,12.621-15.987,16.828-14.3,25.242-11.78,9.536,6.17,9.536,6.17.561,2.524,5.609,7.292S235.488,195.837,235.488,195.837Z" transform="translate(-106.732 -155.915)"/><path class="k" d="M208.6,166.023l-.9-.168a7.53,7.53,0,0,1,1.268-.034Z" transform="translate(-94.426 -154.709)"/><path class="l" d="M152.283,334.728c-4.252,13.642-15.65,51.663-17.221,51.663a27.187,27.187,0,0,1-5.553-1.414c-3.141-1.066-6.395-2.58-6.518-3.949-.224-2.468,8.044-39.143,10.063-46.973,1.436-5.621,3.455-30.9,4.476-44.752.415-5.464.662-9.143.662-9.143l15.886,7.82S156.535,321.086,152.283,334.728Z" transform="translate(-104.751 -140.771)"/><path class="m" d="M151.574,334.728c-4.252,13.642-15.65,51.663-17.221,51.663a27.189,27.189,0,0,1-5.553-1.414,1.075,1.075,0,0,0,.168-.314c.673-1.862,11.2-34.6,11.2-34.6s2.7-9.671,5.935-25.613a105.418,105.418,0,0,0,1.357-30.527s-4.7.135-10.635-4.622c.415-5.464.662-9.143.662-9.143l15.886,7.82S155.826,321.086,151.574,334.728Z" transform="translate(-104.043 -140.771)"/><path class="n" d="M160.244,253.547c-3.491-1.8-12.415-1.124-16.228,3.349s-13.654,26.168-13.654,26.168,4.921,5.815,11.183,8.5,15.123.9,15.123.9,1.195-16.774,2.765-23.708a57.1,57.1,0,0,0,.811-15.2" transform="translate(-103.852 -144.128)"/><path class="i" d="M212.067,350.561s-12.487,4.656-33.735,4.869a52.736,52.736,0,0,1-15.224-2.019c-11.555-3.287-17.748-9.491-17.748-9.491S151.777,328.651,152,316.7s-4.656-26.118-3.994-32.1,8.863-29.225,10.411-30.986,13.272-1.548,13.272-1.548l.752.045,24.266,1.5,7.965,2.648s6.417,21.7,7.3,27.677c.3,2.031-.213,5.385-1.077,9.222-.931,4.106-2.255,8.762-3.411,12.913-.931,3.4-1.761,6.462-2.154,8.627-1.324,7.3-3.007,7.965-.954,15.269S212.067,350.561,212.067,350.561Z" transform="translate(-102.024 -144.196)"/><path class="i" d="M203.655,335.53c-1.616,1.088-2.569,1.728-2.569,1.728l-8.246-9.166s2.592-2.255,6.126-5.452C200.155,326.51,202.084,331.57,203.655,335.53Z" transform="translate(-96.237 -135.594)"/><path class="l" d="M193.848,255.687s-.224,5.082-9.514,5.968c-5.318.5-9.626-2.031-12.341-4.286a20.842,20.842,0,0,1-3.164-3.231s3.108-3.321,3.77-6.2.438-12.834.438-12.834l18.152,5.531v10.355C191.189,253.465,193.848,255.687,193.848,255.687Z" transform="translate(-99.163 -146.264)"/><path class="m" d="M191.189,240.631v3.018c-2.939,3.927-6.339,3.444-9.413,1.144-3.455-2.592-5.621-4.465-5.621-4.465a23.667,23.667,0,0,1-.864,9.648,28.578,28.578,0,0,1-3.3,7.393,20.842,20.842,0,0,1-3.164-3.231s3.108-3.321,3.77-6.2.438-12.834.438-12.834Z" transform="translate(-99.163 -146.264)"/><path class="l" d="M223.793,216.808c.438,10.4,1.761,21.91-10.187,28.328a24.854,24.854,0,0,1-5.767,2.12c-13.35,3.242-34.419-.482-40.713-9.637-7.3-10.624-4.869-18.814-4.869-18.814s-9.076.438-8.414-6.428a13.118,13.118,0,0,1,.325-1.918c1.3-5.138,5.43-5.957,7.427-5.161,2.21.886,4.2,2.883,8.4,2.21a14.629,14.629,0,0,0,7.36-3.018c5.127-2.479,5.7-5.486,14.91-15.291.045-.045.09-.1.135-.146,7.012-7.449,17.288-7.752,23.672-7.034a17.1,17.1,0,0,0,3.512,6.013,13.264,13.264,0,0,0,5.968,3.545C225.779,196,223.345,206.408,223.793,216.808Z" transform="translate(-100.994 -152.765)"/><path class="m" d="M205.047,246.661c1.032-.079,1.963-.157,2.794-.213-13.35,3.242-34.419-.482-40.713-9.637-7.3-10.624-4.869-18.814-4.869-18.814s-9.076.438-8.414-6.428a13.117,13.117,0,0,1,.325-1.918c1.3-5.138,5.43-5.957,7.427-5.161,2.21.886,4.2,2.883,8.4,2.21a14.629,14.629,0,0,0,7.36-3.018c5.127-2.479,5.7-5.486,14.91-15.291-2.109,5.755-3.691,12.139-9.334,17.165-7.158,6.384-14.315,6.541-14.315,6.541s-3.59,18.062,5.284,26.936S198.82,247.121,205.047,246.661Z" transform="translate(-100.994 -151.957)"/><path class="k" d="M186.541,180.162c-4.862,3.71-7.038,11-9.341,15.354s-5.246,7.421-5.5,6.27,2.047-2.431,4.223-6.014,2.431-6.654,5.246-10.364,3.582-5.5,4.99-5.757S186.541,180.162,186.541,180.162Z" transform="translate(-98.816 -153.028)"/><path class="k" d="M144.441,256.609c1.179-7.074,2.815-8.572,8.061-15.226s6.141-12.156,7.038-15.738,1.151.512.639,3.838-3.326,7.293-6.91,12.667a43.036,43.036,0,0,0-5.758,11.388C145.975,257.633,144.184,258.145,144.441,256.609Z" transform="translate(-102.139 -147.586)"/><path class="k" d="M126.535,277.662c-5.246-8.573-3.71-21.752.9-28.79s7.421-10.364,8.317-17.657,1.151-12.668.128-13.691-1.152,4.479-1.28,9.341,1.408,6.782-3.966,14.715-8.957,13.051-9.341,19.833,2.047,15.738,4.351,18.554S126.535,277.662,126.535,277.662Z" transform="translate(-104.963 -148.421)"/><path class="k" d="M140.768,213.719c6.269-9.6,11.26-13.69,15.866-22.392s6.526-15.61,6.654-19.065-1.023.256-2.815,5.758a75.786,75.786,0,0,1-9.98,19.962c-5.246,7.549-8.829,11-10.108,13.946S140.768,213.719,140.768,213.719Z" transform="translate(-102.69 -154.086)"/><path class="k" d="M163.822,171.091c-2.739,5.476-3.454,13.179-6.654,18.808s-1.535,7.421,2.047,1.28,6.782-16.89,7.165-20.344S164.589,169.555,163.822,171.091Z" transform="translate(-100.792 -154.321)"/><path class="o" d="M210.953,167.441c5.374,2.175,6.91,3.583,11.388,10.62s5.246,14.459,4.094,15.995-1.535-4.606-3.966-10.108-3.967-8.446-5.885-9.725-3.2,1.151-1.152,3.582,3.071,5.118,3.071,6.27-2.3-.512-4.35-3.2a17.215,17.215,0,0,1-3.328-9.341C210.57,168.08,210.953,167.441,210.953,167.441Z" transform="translate(-94.056 -154.51)"/><path class="p" d="M222.163,211.61c-1.373,7.554-1.407,12.667-2.431,15.354s2.431-.639,3.967-7.038,1.279-8.317.256-10.876S222.419,210.2,222.163,211.61Z" transform="translate(-92.982 -149.546)"/><path class="o" d="M207.423,165.026a19.237,19.237,0,0,1,0,8.7c-.639,2.559-4.477,1.28-10.236,1.024s-11.131,3.71-12.028,2.047,10.237-4.606,13.947-4.223,4.99-.9,4.351-2.3-2.815-2.047-.769-3.2,2.56-1.408,2.047-2.944S206.912,162.723,207.423,165.026Z" transform="translate(-97.179 -155.038)"/><path class="q" d="M210.9,293.166c-.931,4.106-2.255,8.762-3.411,12.913-4.072,3.444-12.655,3.186-18.13,1.279-6.776-2.378-18.994-2.042-20.856,3.893s-8.481,22.393-9.166,30.19c-.37,4.3,1.773,8.784,3.77,11.971-11.555-3.287-17.748-9.491-17.748-9.491S151.777,328.651,152,316.7s-4.656-26.118-3.994-32.1,8.863-29.225,10.411-30.986,13.272-1.548,13.272-1.548l.752.045c-4.072,2.3-7.674,4.521-7.674,4.521A97.647,97.647,0,0,0,159,276.315c-1.862,10.68,2.883,16.279,11.028,15.1s8.481-3.736,17.131,0,17.3,3.22,21.024.5C209.824,290.731,210.654,291.438,210.9,293.166Z" transform="translate(-102.024 -144.196)"/><path class="r" d="M204.949,271.3c1.7,6.955,2.375,14.417-.848,15.774s-11.025,4.92-15.943,1.527-12.721-3.223-16.283-2.883-7.463-1.7-8.14-3.562,1.356-3.393,5.257-2.544,7.632-2.544,12.552-.848,9.328,4.41,13.4,3.223,4.41-7.632,5.766-12.212,2.884-5.258,3.9-3.393S204.949,271.3,204.949,271.3Z" transform="translate(-99.8 -142.569)"/></g><g transform="translate(0 105.183)"><path class="s" d="M124.272,370.214s-11.783,3.639-11.843,3.816.352,7.759,2.058,7.642,8.164-1.409,12.638-.706,9.17-3.6,9.464-5.384-4.056-5.608-6.937-6.49a6.724,6.724,0,0,0-5.381.881" transform="translate(-97.007 -235.145)"/><path class="s" d="M125.849,375.121s-3.644,1.294-5.937,2.352-4.06,2.026-4.234,3.276.766,2.838,2.176,2.073a8.138,8.138,0,0,1,3.939-1.528c2.234-.294,4.833-.32,7.223-1.1s1.825-.31,1.975-2.544S128.177,374.259,125.849,375.121Z" transform="translate(-96.613 -234.415)"/><path class="l" d="M116.931,380.74s-3.851.013-5.118,0a26.448,26.448,0,0,0-5.82,1.552c-.646.295-4.526,3.645-5.76,3.645s-2.117-.764-1.117-2,2.586-3.175,3.292-4.173,6.7-2.881,7.289-3.057,5.115-.823,5.115-.823a2.005,2.005,0,0,1,2.12.647C117.69,377.59,116.931,380.74,116.931,380.74Z" transform="translate(-98.682 -234.297)"/><path class="l" d="M115.2,374.1s-5.6,1.186-6.591,1.269-5.283,2.375-6.106,3.081-2.292,3.763-2.939,4.233.118,1.47.706,1.646,2.058-1,2.881-1.94,1.528-1.764,1.528-1.764,4.378-1.335,5.157-1.4a35.447,35.447,0,0,0,5.777-1.007c.528-.353.646-1.881.528-2.587A3.723,3.723,0,0,0,115.2,374.1Z" transform="translate(-98.604 -234.506)"/><path class="l" d="M114.937,373.067s-4.494.683-5.906.918a23.818,23.818,0,0,0-6,2.7,9.319,9.319,0,0,0-1.316,2.456s.61.031,2.2.2,4.643-1.3,6.7-1.889,3.132-.4,4.056-.823,1.022-.775.894-1.563A11.816,11.816,0,0,0,114.937,373.067Z" transform="translate(-98.312 -234.631)"/><path class="n" d="M205.145,282.137s3.365-10.887,7.484-16.837,5.644-7.323,5.492-8.7-1.068-2.9-1.984-1.982-2.289,1.83-2.594,1.22a8.446,8.446,0,0,1-.153-2.857c0-.956-2.135-1.383-2.745-.635s-.368,1.489-1.352,0-.9-3.525-2.215-2.3-.721,2.979-1.934,2.939-1.822-1.687-2.89-.635,0,1.968-.915,2.731a12.69,12.69,0,0,1-3.108,1.483Z" transform="translate(-86.548 -249.671)"/><path class="l" d="M237.087,318.553c-5.015,5.385-26.061,19.824-33.432,24.816-1.616,1.088-2.569,1.728-2.569,1.728l-5.239-5.823-3.007-3.343s2.592-2.255,6.126-5.452c7.887-7.146,20.474-19.027,19.207-20.923-1.357-2.031-8.526-15.011-12.195-21.686a16.618,16.618,0,0,0,.213-4.689c-.314-2.076-1.29-6.069-2.435-10.389.146-3.018.471-5.8,1.144-7.023,1.829-3.354,9.457-9.3,12.229-6.877l.022.022c2.85,2.6,24.21,42.867,25.119,46.368S243.19,311.99,237.087,318.553Z" transform="translate(-87.206 -248.616)"/><path class="m" d="M222.076,315.58c-1.066,1.672-20.8,19.824-26.23,23.694l-3.007-3.343s2.592-2.255,6.126-5.452c7.887-7.146,20.474-19.027,19.207-20.923-1.357-2.031-8.526-15.011-12.195-21.686a16.618,16.618,0,0,0,.213-4.689c-.314-2.076-1.29-6.069-2.435-10.389.146-3.018.471-5.8,1.144-7.023,1.829-3.354,9.457-9.3,12.229-6.877l.022.022c-7.371,2.3-10.344,10.366-10.344,10.366s14.932,32.725,16.963,36.293S223.266,313.718,222.076,315.58Z" transform="translate(-87.206 -248.616)"/></g><g transform="translate(8.996 191.765)"><path class="l" d="M186.44,471.769a31.608,31.608,0,0,0-5.8,7.461c-1.865,3.221-4.374,7.556-7.742,7.1s-6.388-2.2-4.468-4.347c1.435-1.611,4.079-10.816,5.313-15.285.4-1.476.657-2.442.657-2.442l-1.543-5.167,10.078-3.032a52.844,52.844,0,0,0,1.865,6.106,5.856,5.856,0,0,0,.416.658,22.625,22.625,0,0,1,2.335,3.865A4.426,4.426,0,0,1,186.44,471.769Z" transform="translate(-99.249 -311.098)"/><path class="l" d="M175.285,470.467a31.6,31.6,0,0,0-5.8,7.462c-1.866,3.221-4.374,7.555-7.743,7.1s-6.387-2.2-4.468-4.347c1.436-1.61,4.079-10.816,5.314-15.285.4-1.476.657-2.442.657-2.442l-1.544-5.166,10.078-3.032a52.88,52.88,0,0,0,1.866,6.105,5.465,5.465,0,0,0,.416.657,22.621,22.621,0,0,1,2.335,3.865A4.424,4.424,0,0,1,175.285,470.467Z" transform="translate(-100.609 -311.256)"/><path class="t" d="M175.285,469.732a31.6,31.6,0,0,0-5.8,7.462c-1.866,3.221-4.374,7.555-7.743,7.1s-6.387-2.2-4.468-4.347c1.436-1.61,4.079-10.816,5.314-15.285,1.436-1.128,3.274-.979,5.6-.054,2.254.886,4.723-2.147,5.878-3.825a22.624,22.624,0,0,1,2.335,3.865A4.424,4.424,0,0,1,175.285,469.732Z" transform="translate(-100.609 -310.521)"/><path class="u" d="M186.8,372.625a4.934,4.934,0,0,1-.774,1.077c-5.419,5.98-32.815,20.261-33.522,23.941-.752,3.915,29.214,72.148,29.214,72.148a27.462,27.462,0,0,1-10.187,6.642c-6.2,2.221-9.514-1.1-9.514-1.1l-.965-1.414c-.281-.426-.628-.942-1.021-1.537-10.063-15-54.714-82.672-53.3-99.758,1.313-15.863,28.07-25.422,37.449-28.283a.035.035,0,0,1,.022-.011c2-.617,3.2-.92,3.2-.92l4.88-2.446s3.635-.639,7.842-1.156a50.594,50.594,0,0,0,15.762,4.532,95.809,95.809,0,0,1,5.037,9.031C184.817,361.182,188.1,369.91,186.8,372.625Z" transform="translate(-106.701 -325.266)"/><path class="q" d="M185.153,372.625a4.934,4.934,0,0,1-.774,1.077c-5.419,5.98-32.815,20.261-33.522,23.941-.752,3.915,29.214,72.148,29.214,72.148a27.462,27.462,0,0,1-10.187,6.642c-6.2,2.221-9.514-1.1-9.514-1.1l-.965-1.414c3.938-.942,7.685-2.491,6.844-4.88-1.683-4.768-26.925-44.034-31.693-52.168s-19.633-35.9-12.341-48.8,23.56-17.67,23.56-17.67a23.843,23.843,0,0,1-3.22-6.069c2-.617,3.2-.92,3.2-.92l4.88-2.446s3.635-.639,7.842-1.156a50.594,50.594,0,0,0,15.762,4.532,95.8,95.8,0,0,1,5.037,9.031C183.167,361.182,186.454,369.91,185.153,372.625Z" transform="translate(-105.051 -325.266)"/><path class="u" d="M216.577,376.521c-2.412,9.637-25.68,14.192-35.923,15.74-2.939.438-4.8.639-4.8.639a121.814,121.814,0,0,1-13.283.965c-7.651.123-16.7-.55-21.7-3.848a28.387,28.387,0,0,1-7.461-7.18,22,22,0,0,1-3.971-8.953,1.782,1.782,0,0,0,1.021-.123c1.234-.583,2.659-6.776,2.659-6.776,7.1-4.095,23.694-10.613,23.694-10.613s-6.417-11.937-4.645-12.161a51.8,51.8,0,0,1,5.789.864c9.884,1.683,29.506,5.116,36.708,3.108a164.525,164.525,0,0,1,19.341-3.971l1.245,2.21S219.673,364.124,216.577,376.521Z" transform="translate(-103.929 -324.73)"/><path class="u" d="M191.281,467.69a16.747,16.747,0,0,1-7.965,3.534c-5.093.886-8.179-1.043-8.179-1.043s-.146-.269-.415-.763c-.236-.438-.583-1.066-1.01-1.851-6.81-12.554-36.069-66.629-41.532-79.127-4.488-10.265-5.026-14.495-2.715-18.747a34.369,34.369,0,0,1,3.814-5.172s2.042-.112,5.172-.1c7.763.034,22.213.83,29.147,5.867a32.5,32.5,0,0,1,7.393,7.7,43.263,43.263,0,0,1,5.823,11.813s-3.478,1.963-3.478,4.622S191.281,467.69,191.281,467.69Z" transform="translate(-104.089 -322.267)"/><path class="q" d="M213.644,376.52c-2.412,9.637-25.68,14.192-35.923,15.74,0,0-3.478,1.963-3.478,4.622s13.945,73.27,13.945,73.27a16.747,16.747,0,0,1-7.965,3.534c-5.093.886-8.179-1.043-8.179-1.043s-.146-.269-.415-.763c3.287-.651,6.855-2.109,6.552-5.34-.449-4.689-15.852-51.764-18.545-72.676-.684-5.351-.55-8.986.875-9.783,2.715-1.515,6.922-2.524,11.387-3.635,7.113-1.773,14.9-3.781,18.343-8.425,5.609-7.573.28-17.389.28-17.389s-15.145,1.122-37.022-8.134c0,0,.561-.539,1.526-1.425,9.884,1.683,29.506,5.116,36.708,3.108a164.521,164.521,0,0,1,19.341-3.972l1.245,2.21S216.741,364.123,213.644,376.52Z" transform="translate(-100.997 -324.73)"/><path class="v" d="M213.6,347.669c-.819,1.839-19.418,7.649-37.091,6.415-1.449-.094-2.885-.241-4.295-.443-18.814-2.657-29.227-8.628-29.227-9.514s1.771-9.958,2.658-10.186a38.59,38.59,0,0,0,10.064,6.589,50.512,50.512,0,0,0,15.755,4.522,53.333,53.333,0,0,0,7.165.4c21.243-.229,33.736-4.871,33.736-4.871S214.483,345.67,213.6,347.669Z" transform="translate(-102.278 -325.981)"/><path class="l" d="M202.452,336.666c-.292,1.414-7.023,8.358-9.637,9.424a1.637,1.637,0,0,1-.527.146c-1.683.09-7.079-5.329-9.469-8.695A7.94,7.94,0,0,1,181.7,335.6a1.858,1.858,0,0,1-.034-.864.4.4,0,0,1,.034-.157c.583-2.491,4.925-5.924,6.26-6.451a9.849,9.849,0,0,1,2.412-.449h.011c1.817-.18,3.826-.18,3.826-.18s1.515,1.346,3.242,3.029C199.827,332.84,202.632,335.78,202.452,336.666Z" transform="translate(-97.568 -326.766)"/><path class="l" d="M190.887,327.759a13.649,13.649,0,0,1-1.66,2.12c-.92.92-1.683.92-3.96,2.289a10.834,10.834,0,0,0-3,2.513c-.056.079-.09.123-.09.123l-.011.011a10.525,10.525,0,0,1-1.257.785l-.011.011a5.882,5.882,0,0,1-1.29.527c-1.122.281-2.367-.729-2.1-1.212a.29.29,0,0,1,.112-.123,6.453,6.453,0,0,0,1.829-2.176,23.046,23.046,0,0,1,4.734-4.869c1.683-1.2,4.106-1.234,6.686,0Z" transform="translate(-98.074 -326.846)"/><path class="t" d="M186.44,471.034a31.61,31.61,0,0,0-5.8,7.461c-1.865,3.221-4.374,7.556-7.742,7.1s-6.388-2.2-4.468-4.347c1.435-1.611,4.079-10.816,5.313-15.285,1.436-1.127,3.275-.981,5.6-.054,2.255.885,4.723-2.147,5.878-3.825a22.624,22.624,0,0,1,2.335,3.865A4.426,4.426,0,0,1,186.44,471.034Z" transform="translate(-99.249 -310.363)"/><path class="w" d="M173.713,468.714c-6.81-12.554-36.069-66.629-41.532-79.127-4.488-10.265-5.026-14.495-2.715-18.747a34.372,34.372,0,0,1,3.814-5.172c7.1-4.095,23.694-10.613,23.694-10.613C157.625,355.022,158,355,158,355c-8.695,3.826-15.37,6.5-19.543,10.568-3.725,3.612-5.464,8.336-4.88,15.953,0,.135.011.269.022.4,1.4,16.548,33.1,68.155,37.583,77.691A22.935,22.935,0,0,1,173.713,468.714Z" transform="translate(-104.089 -323.415)"/><path class="w" d="M160.034,471.891c-10.063-15-54.714-82.672-53.3-99.758,1.313-15.863,28.07-25.422,37.449-28.283-.987.438-33.2,14.73-32.1,31.3,1.122,16.828,46.558,88.068,49.082,92.836C162.345,470.208,161.392,471.33,160.034,471.891Z" transform="translate(-106.701 -324.774)"/><path class="l" d="M193.3,345.333a.717.717,0,0,1-.09.157,7.9,7.9,0,0,1-1.47,1.38h-.011c-1.649,1.3-4.106,2.906-4.824,2.794a1.272,1.272,0,0,1-1.122-1.481c.1-.292,2.378-2.266,3.029-2.962.1-.123.168-.2.168-.236.045-.258.292-.718-.146-.494a4.551,4.551,0,0,0-.494.314c-1.144.763-3.837,2.614-4.6,2.592a1.738,1.738,0,0,1-1.526-1.8c.123-.707,3.534-3.018,3.534-3.388a1.287,1.287,0,0,0-.011-.213v-.011c0-.292-.056-.516-.314-.482a.189.189,0,0,0-.056.022c-.494.258-2.962,2.917-4.387,2.7-.651-.09-2.042-1.5-1.683-1.986s3.556-3.579,3.556-3.579a.62.62,0,0,0,.112-.28c0-.1-.079-.18-.348-.123-.606.112-3.321,2.188-3.747,2.12-.886-.123-1.414-1.952-1.212-2.255.135-.191,2.008-2.109,3.22-3.354l.011-.011c.606-.606,1.043-1.055,1.043-1.055s.09.034.247.112a.159.159,0,0,0,.067.022c.471.224,1.458.7,2.659,1.357A27.231,27.231,0,0,1,191,339.6C194.078,342.764,193.82,344.413,193.3,345.333Z" transform="translate(-98.057 -326.01)"/><path class="m" d="M197.955,330.609l-.123-.09c-2.244.774-7,2.883-9.738,4.218-1.4.684-2.423.987-3.164,1.3a2.588,2.588,0,0,0-1.47,1.212,1.8,1.8,0,0,0-.135.37,2.62,2.62,0,0,0,.079,1.458v.011a9.092,9.092,0,0,0,1.6,2.793c.112.146.247.314.381.482-.494.258-2.962,2.917-4.387,2.7-.651-.09-2.042-1.5-1.683-1.986s3.556-3.579,3.556-3.579a.62.62,0,0,0,.112-.28c0-.1-.079-.18-.348-.123-.606.112-3.321,2.188-3.747,2.12-.886-.123-1.414-1.952-1.212-2.255.135-.191,2.008-2.109,3.22-3.354a5.882,5.882,0,0,1-1.29.527c-1.122.281-2.367-.729-2.1-1.212a.29.29,0,0,1,.112-.123,6.453,6.453,0,0,0,1.829-2.176,23.046,23.046,0,0,1,4.734-4.869c1.683-1.2,4.106-1.234,6.686,0h.011c1.817-.18,3.826-.18,3.826-.18S196.227,328.926,197.955,330.609Z" transform="translate(-98.074 -326.846)"/><path class="m" d="M187.847,343.9c-1.144.763-3.837,2.614-4.6,2.592a1.738,1.738,0,0,1-1.526-1.8c.123-.707,3.534-3.018,3.534-3.388a1.286,1.286,0,0,0-.011-.213A31.5,31.5,0,0,0,187.847,343.9Z" transform="translate(-97.558 -325.109)"/><path class="m" d="M189.716,345.125c.381.157.763.314,1.133.494-1.649,1.3-4.106,2.906-4.824,2.793a1.272,1.272,0,0,1-1.122-1.481c.1-.292,2.378-2.266,3.029-2.962A7.348,7.348,0,0,0,189.716,345.125Z" transform="translate(-97.172 -324.759)"/></g><g transform="translate(90.71 47.028)"><path class="x" d="M188.4,209.6c0,2.222-.92,4.024-2.053,4.024s-2.054-1.8-2.054-4.024.92-4.024,2.054-4.024S188.4,207.375,188.4,209.6Z" transform="translate(-178.957 -196.891)"/><path class="x" d="M213.249,209.862c0,2.036-.743,3.687-1.659,3.687s-1.659-1.65-1.659-3.687.743-3.688,1.659-3.688S213.249,207.825,213.249,209.862Z" transform="translate(-175.832 -196.817)"/><path class="y" d="M202.319,207.667c-2.151-.035-4.969,6.4-5.064,9.22s4.252,3.01,7.453,2.58,2.675-2.723,2.436-3.869S205.281,207.714,202.319,207.667Z" transform="translate(-177.377 -196.635)"/><path class="z" d="M204.363,232a9.734,9.734,0,0,1-4.321,1.731,11.124,11.124,0,0,1-9.729-2.884,6.324,6.324,0,0,1-2.173-4c.04-1.932.63-3.784,2-4.307a2.488,2.488,0,0,1,1.355-.094,54.359,54.359,0,0,0,8.682.725c3.221-.04,4.952-.738,5.985-.416a1.612,1.612,0,0,1,.993,1.047A7.737,7.737,0,0,1,204.363,232Z" transform="translate(-178.488 -194.841)"/><path class="aa" d="M205.944,222.752c-.027,1.074-.256,2.953-1.584,3.086-1.865.188-10.708.148-12.52-.43-1.61-.509-1.9-1.543-1.918-2.871a2.488,2.488,0,0,1,1.355-.094,54.359,54.359,0,0,0,8.682.725C203.179,223.128,204.91,222.43,205.944,222.752Z" transform="translate(-178.271 -194.841)"/><path class="ab" d="M204.127,231.3a9.734,9.734,0,0,1-4.322,1.731,11.124,11.124,0,0,1-9.729-2.884c.954-.779,3.047-2.013,6.858-2.04A8.993,8.993,0,0,1,204.127,231.3Z" transform="translate(-178.252 -194.144)"/><path class="ac" d="M180.421,202.849c1.994-1.658,4.187-2.32,6.134-1.722s2.548,1.5,3.221,1.273,1.347-2.546.524-3.144a10.01,10.01,0,0,0-5.763-1.273c-2.695.15-4.342,1.123-4.79,1.871S179.589,203.541,180.421,202.849Z" transform="translate(-179.537 -197.818)"/><path class="ac" d="M208.287,201.667a4.555,4.555,0,0,1,4.566.374c1.347.973,2.4,2.022,2.695,1.647s.822-3.219,0-3.743a11.734,11.734,0,0,0-4.641-1.963c-2.4-.432-3.743.167-4.267.691s-.224,2.844.375,3.219S208.287,201.667,208.287,201.667Z" transform="translate(-176.266 -197.834)"/></g></g><g transform="translate(227.535 126.609)"><g transform="translate(12.817 129.989)"><g transform="translate(17.649 11.036)"><path class="l" d="M275.685,260.231a24.559,24.559,0,0,1-.2,3.321c-.337,2.367-1.021,3.321-1.66,3.231a17.686,17.686,0,0,0-5.677.494c-2.12.482-9.491,1.638-13.463.954a3.623,3.623,0,0,1-2.356-1.077,3.68,3.68,0,0,1-.337-.639,14.8,14.8,0,0,1-.74-2.827c-.056-.314-.112-.639-.157-.976-.168-1.133-.292-2.39-.359-3.646-.011-.269-.022-.539-.022-.808a26.971,26.971,0,0,1,.135-3.983c.022-.224.056-.438.09-.651a6.468,6.468,0,0,1,1.234-3.354,1.561,1.561,0,0,1,.4-.325,1.326,1.326,0,0,1,.74-.213c1.245,0,3.489.045,6.058.112,1.189.022,2.457.056,3.725.078,2.468.056,4.947.1,6.989.112.3.011.595.011.875.011,1.391,0,2.513-.011,3.152-.067h.079A45.669,45.669,0,0,1,275.685,260.231Z" transform="translate(-234.505 -239.04)"/><path class="l" d="M269.646,251.508s-3.579,3.96-7.169,2.962c-2.76-.763-3.68-1.739-3.848-2.547a1.31,1.31,0,0,1,.022-.662,1.07,1.07,0,0,1,.123-.258c.494-.808,2.076-1.739.74-3.074-1.481-1.481-2.345-1.728-3.332-3.96-.853-1.918-.785-4.106.28-3.725a1.822,1.822,0,0,1,.583.393,23.86,23.86,0,0,0,6.047,3.826c1.918.841,4.869,3.758,6.395,6.731C269.545,251.3,269.6,251.407,269.646,251.508Z" transform="translate(-233.907 -240.201)"/><path class="l" d="M254.162,254.727c-.011,0-.022.011-.034.011a7.672,7.672,0,0,1-1.851.09,22.753,22.753,0,0,1-6.3-1.335,12.566,12.566,0,0,1-5.811-4.173.011.011,0,0,1-.011-.011c-.146-.191-.269-.381-.382-.561a5.319,5.319,0,0,1-.707-1.548c-.337-1.335.123-2.334,1.941-1.918a12.532,12.532,0,0,1,3.612,1.672,27.074,27.074,0,0,0,7.068,3.018c1.1.3,1.93.46,2.322.527.157.022.247.034.247.034s.045.191.1.494C254.577,252.068,254.981,254.48,254.162,254.727Z" transform="translate(-235.935 -239.594)"/><path class="l" d="M254.367,258.656a6.775,6.775,0,0,1-.527.617,11.047,11.047,0,0,1-1.346.067,19.593,19.593,0,0,1-5.71-.875c-.337-.1-.684-.224-1.032-.359h-.022l-.168-.067a18.149,18.149,0,0,1-3.927-2.143q-.707-.522-1.346-1.077a13.46,13.46,0,0,1-3.747-4.689c-.942-2.367.595-3.7,3.556-1.66l.4.3c2.951,2.266,5.475,4.016,8.751,4.656.292.067.583.112.886.157,1.088.146,1.918.236,2.558.314a3.674,3.674,0,0,1,1.8.55,2.23,2.23,0,0,1,.707,1.122A3.563,3.563,0,0,1,254.367,258.656Z" transform="translate(-236.264 -239.316)"/><path class="l" d="M254.564,262.574c-.191.393-.337.639-.337.639a12.923,12.923,0,0,1-1.571-.011,31.125,31.125,0,0,1-5.25-.74c-.617-.135-1.268-.3-1.952-.494a13.564,13.564,0,0,1-2.715-1.066c-2.984-1.582-3.68-3.747-3.579-4.734a3.706,3.706,0,0,1,.774-2.109c.426-.449,1.088-.561,2.064.135a26.638,26.638,0,0,0,3.893,2.233,12.774,12.774,0,0,0,4.88,1.346h1.346a10.235,10.235,0,0,1,1.9.123,1.55,1.55,0,0,1,1.447,1.111C255.72,259.96,255,261.655,254.564,262.574Z" transform="translate(-235.912 -238.556)"/><path class="l" d="M256,266.006a8.989,8.989,0,0,1-.292,1.346.087.087,0,0,0-.011.034c-3.455-.74-7.034-.74-10.131-1.851-1.851-.662-2.906-3.029-3.209-5.026a6.237,6.237,0,0,1-.022-1.986,1.523,1.523,0,0,1,.393-.9,2.986,2.986,0,0,1,2.266-.673h.022a2.47,2.47,0,0,1,1.032.359,2.523,2.523,0,0,1,1.01,1.178,5.879,5.879,0,0,0,2.109,2.58,5.262,5.262,0,0,0,.864.449,4.513,4.513,0,0,0,1.593.3c.168,0,.337,0,.494.011a6.352,6.352,0,0,1,2.064.348,2.622,2.622,0,0,1,1.638,1.5A4.548,4.548,0,0,1,256,266.006Z" transform="translate(-235.532 -238.162)"/><path class="m" d="M252.117,251.4a14.438,14.438,0,0,1-1.817-.819c1.1.3,1.93.46,2.322.527a1.326,1.326,0,0,1,.74-.213c1.245,0,3.489.045,6.058.112.494-.808,2.076-1.739.74-3.074-1.481-1.481-2.345-1.728-3.332-3.96-.853-1.918-.785-4.106.281-3.725-.337.572-.056,1.526,1.739,3.388,3.153,3.253,4.342,2.771,5.1,5.049a1.949,1.949,0,0,1-.808,2.4,3.8,3.8,0,0,1-1.2.583s-1.122.157-2.67.258a23.447,23.447,0,0,1-6.305-.292,7.364,7.364,0,0,1-.752-.2Z" transform="translate(-234.553 -240.201)"/><g transform="translate(0 5.592)"><path class="m" d="M275.873,250.531c-.64.056-1.761.067-3.153.067a5.544,5.544,0,0,0-.523,1.637c-.924,1.711-3.624,7.019-3.624,7.019s3.276,4.706,2.463,6.413c-2.374.681-8.6,2.4-10.264,2.231-.718-.067-2.266-.247-4.039-.46-.871-.1-1.786-.22-2.69-.333-.823-.935-.576-2.494-.4-4.268.23-2.344.873-8.361.735-9.281a5.821,5.821,0,0,0-1.011-2.066s.138.367-.689,1.056a5.116,5.116,0,0,1-1.484.862c.158.042.457.257,1.025,1.022,1.056,1.425-.644,3.216-.644,3.216s.322-.15.9,1.166c.54,1.236-1.073,3.434-1.271,3.7a4.836,4.836,0,0,1,.375,1.476c.321,1.684.361,2.493-.337,2.733a25.677,25.677,0,0,1-2.795-.5c-1.357-.437-3.366-2.771-1.088-2.715h.4a9.044,9.044,0,0,0,3.007-.55,3.552,3.552,0,0,0,.348-.157s-.482-.112-1.212-.292a43.188,43.188,0,0,1-5.206-1.616,7.818,7.818,0,0,1-1.627-.931c-1.3-.909-2.311-2.053-2.39-2.76-.056-.46.3-.864.954-1.021a4.625,4.625,0,0,1,3.231.7,8.119,8.119,0,0,0,1.38.595,20.039,20.039,0,0,0,5.464.763,33.853,33.853,0,0,1-5.98-1.683,19.928,19.928,0,0,1-5.486-3.635c-2.659-2.176-1.683-5-.651-4.353a7.382,7.382,0,0,1,.886.752.011.011,0,0,0,.011.011,12.657,12.657,0,0,0,4.645,3.265,50.49,50.49,0,0,0,5.194,1.616c-.09-.034-.494-.224-1.077-.494-.639-.269-1.47-.651-2.322-1.021a16.1,16.1,0,0,1-5.486-4.454,2.857,2.857,0,0,1-.112-2.951c-1.817-.415-2.277.583-1.941,1.918a5.319,5.319,0,0,0,.707,1.548c-2.962-2.042-4.5-.707-3.556,1.66a13.459,13.459,0,0,0,3.747,4.689,3.707,3.707,0,0,0-.774,2.109c-.1.987.595,3.152,3.579,4.734.3,2,1.357,4.364,3.209,5.026,3.1,1.111,6.675,1.111,10.131,1.851a.087.087,0,0,1,.011-.034c3.971.684,11.342-.471,13.463-.954a17.688,17.688,0,0,1,5.677-.494c.639.09,1.324-.864,1.66-3.231C277.152,260.392,276.378,253.986,275.873,250.531Z" transform="translate(-236.264 -245.185)"/><path class="m" d="M249.543,260.679l.038-.052C249.551,260.606,249.543,260.679,249.543,260.679Z" transform="translate(-234.645 -243.303)"/><path class="m" d="M249.42,252.572s.064-.019.169-.058C249.454,252.479,249.42,252.572,249.42,252.572Z" transform="translate(-234.66 -244.293)"/></g></g><path class="ad" d="M233.026,262.791,220.532,272.93l1.15.12,11.86-9.623Z" transform="translate(-220.532 -226.411)"/><path class="ae" d="M269.959,231.622l.7.86.516.636.515.635.7.861L257.365,246.8l-4.85,3.936-.7-.861-.515-.635-.516-.636-.7-.859,4.933-4,.884-.717,13.453-10.917Z" transform="translate(-216.929 -230.21)"/><path class="af" d="M270.58,232.389l.516.636.515.635-.646.524L258.09,244.632l-1.474,1.2-4.875,3.955-.516-.635-.516-.636,4.909-3.984,1.123-.911,13.291-10.784Z" transform="translate(-216.853 -230.117)"/><path class="ag" d="M269.423,231.623l.7.859.516.636.516.635.7.86L256.83,246.8l-.674-.881-1-1.3-.674-.878.884-.717.913.684,1.348,1.014.017.012s12.5-9.776,12.844-10.219a.268.268,0,0,0,.013-.241,4.922,4.922,0,0,0-.931-1.351c-.269-.307-.543-.6-.752-.817Z" transform="translate(-216.393 -230.21)"/><path class="ah" d="M233.3,259.137c.922-.129,1.942,1.7,1.942,1.7s1.414,1.231,1.3,2.108a.889.889,0,0,1-.035.144.727.727,0,0,1-.236.32,1.679,1.679,0,0,1-2.055-.046l-1.289.761.291.358-.531.432-.83-1.023-.149-.184-.979-1.206.532-.432.292.36,1.01-1.106a1.678,1.678,0,0,1,.378-2.022A.709.709,0,0,1,233.3,259.137Z" transform="translate(-219.289 -226.857)"/><path class="ah" d="M255.946,242.329l.563.694,2.429,2.992.563.694a1,1,0,0,1,.039,1.2.939.939,0,0,1-.184.194l-21.786,17.676a.991.991,0,0,1-1.393-.144l-.112-.138-.508-.628-2.824-3.48-.112-.137a.992.992,0,0,1,.146-1.393l21.785-17.678A.991.991,0,0,1,255.946,242.329Z" transform="translate(-219.085 -228.95)"/><path class="ai" d="M256.923,244.831h0a3.268,3.268,0,0,1-.479,4.6L239.1,263.5a3.269,3.269,0,0,1-4.6-.479h0a3.269,3.269,0,0,1,.479-4.6l17.348-14.076A3.269,3.269,0,0,1,256.923,244.831Z" transform="translate(-218.918 -228.748)"/><rect class="aj" width="2.881" height="28.875" transform="translate(17.642 36.815) rotate(-129.056)"/><path class="ak" d="M268.767,230.676l2.873,3.542a.844.844,0,0,1-.123,1.188h0a.845.845,0,0,1-1.188-.125l-2.873-3.541a.844.844,0,0,1,.123-1.188h0A.844.844,0,0,1,268.767,230.676Z" transform="translate(-214.835 -230.364)"/><g transform="translate(16.158 19.813)"><path class="al" d="M235.465,258.261l1.705,2.1a.3.3,0,0,1-.044.421h0a.3.3,0,0,1-.421-.044l-1.705-2.1a.3.3,0,0,1,.044-.421h0A.3.3,0,0,1,235.465,258.261Z" transform="translate(-234.934 -246.79)"/><path class="al" d="M237.248,256.815l1.705,2.1a.3.3,0,0,1-.044.421h0a.3.3,0,0,1-.421-.044l-1.705-2.1a.3.3,0,0,1,.044-.421h0A.3.3,0,0,1,237.248,256.815Z" transform="translate(-234.717 -246.966)"/><path class="al" d="M239.031,255.368l1.705,2.1a.3.3,0,0,1-.044.421h0a.3.3,0,0,1-.421-.044l-1.705-2.1a.3.3,0,0,1,.044-.421h0A.3.3,0,0,1,239.031,255.368Z" transform="translate(-234.5 -247.143)"/><path class="al" d="M240.814,253.921l1.705,2.1a.3.3,0,0,1-.044.421h0a.3.3,0,0,1-.421-.044l-1.705-2.1a.3.3,0,0,1,.044-.421h0A.3.3,0,0,1,240.814,253.921Z" transform="translate(-234.282 -247.319)"/><path class="al" d="M242.6,252.475l1.705,2.1a.3.3,0,0,1-.044.421h0a.3.3,0,0,1-.421-.044l-1.705-2.1a.3.3,0,0,1,.044-.421h0A.3.3,0,0,1,242.6,252.475Z" transform="translate(-234.065 -247.495)"/><path class="al" d="M244.38,251.028l1.7,2.1a.3.3,0,0,1-.044.421h0a.3.3,0,0,1-.421-.044l-1.7-2.1a.3.3,0,0,1,.044-.421h0A.3.3,0,0,1,244.38,251.028Z" transform="translate(-233.848 -247.671)"/><path class="al" d="M246.163,249.581l1.7,2.1a.3.3,0,0,1-.044.421h0a.3.3,0,0,1-.421-.044l-1.7-2.1a.3.3,0,0,1,.044-.421h0A.3.3,0,0,1,246.163,249.581Z" transform="translate(-233.63 -247.848)"/><path class="al" d="M247.946,248.135l1.7,2.1a.3.3,0,0,1-.044.421h0a.3.3,0,0,1-.421-.044l-1.7-2.1a.3.3,0,0,1,.044-.421h0A.3.3,0,0,1,247.946,248.135Z" transform="translate(-233.413 -248.024)"/></g><path class="am" d="M258.955,246.547l.668.8a.937.937,0,0,1-.184.194l-21.786,17.676a.991.991,0,0,1-1.393-.144l-.112-.138a1.678,1.678,0,0,1-2.055-.046l-1.289.761.291.358-.531.432-.83-1.023.689.544.24-.24-.417-.739,1.208-.784a2.644,2.644,0,0,0,1.522.463,1.361,1.361,0,0,0,.664-.353.277.277,0,0,1,.541.119,1.028,1.028,0,0,0,.238.046,2.114,2.114,0,0,0,1.379-.544c1.379-1.035,19.209-15.774,21.011-17.265Z" transform="translate(-219.167 -228.391)"/><path class="ae" d="M253.738,240.38l5.765,7.106a1.393,1.393,0,0,1-.2,1.959h0a1.393,1.393,0,0,1-1.959-.2l-5.765-7.1a1.393,1.393,0,0,1,.2-1.959h0A1.393,1.393,0,0,1,253.738,240.38Z" transform="translate(-216.786 -229.205)"/><path class="ad" d="M253.368,239.931l6.536,8.057a.779.779,0,0,1-.113,1.1l-.748.607a.783.783,0,0,0-.075-.868l-6.538-8.056a.777.777,0,0,0-1.1-.114l-.206.167a.741.741,0,0,1,.192-.232l.951-.772A.782.782,0,0,1,253.368,239.931Z" transform="translate(-216.803 -229.233)"/><path class="an" d="M254.633,243.767h0a.733.733,0,0,1-.1,1.029l-19.215,15.669a.731.731,0,0,1-1.028-.1h0a.731.731,0,0,1,.1-1.028l19.215-15.671A.733.733,0,0,1,254.633,243.767Z" transform="translate(-218.875 -228.762)"/><path class="ao" d="M309.779,271.145c-.325.112-.7.213-1.111.314-6.428,1.5-22.931.774-32.5.191-4.274-.269-7.158-.5-7.158-.5l.359-11.264.382-11.724s2.547,0,6.417-.1a234.353,234.353,0,0,0,23.717-1.627,16.352,16.352,0,0,1,9.042,2.838,13.4,13.4,0,0,1,3.31,3.343,18.388,18.388,0,0,1,3.3,8.953C315.826,265.738,314.222,269.563,309.779,271.145Z" transform="translate(-214.623 -228.405)"/><path class="ap" d="M315.535,261.256a25.129,25.129,0,0,1-6.866,9.9c-6.428,1.5-22.931.774-32.5.191-4.274-.269-7.158-.5-7.158-.5l.359-11.264c7.853.707,26.443.931,39.558-10.613a13.4,13.4,0,0,1,3.31,3.343A18.388,18.388,0,0,1,315.535,261.256Z" transform="translate(-214.623 -228.097)"/><path class="aq" d="M276.167,247.881V271.47c-4.27-.267-7.161-.5-7.161-.5l.742-22.981S272.3,247.984,276.167,247.881Z" transform="translate(-214.623 -228.228)"/></g><g transform="translate(31.458)"><path class="l" d="M328.016,210.614a27.207,27.207,0,0,1-3.467,3.265c-2.4,2.064-11.331,6.877-18.1,7.977a13.929,13.929,0,0,1-3.545.191c-6.743-.606-5.318-4.286-5.318-4.286a11.84,11.84,0,0,0,2.255-7.348,13.262,13.262,0,0,0-3.276-7.539l14.158-17.12,4.431-5.363s2.446,13.272,5.508,19.813A35.714,35.714,0,0,0,328.016,210.614Z" transform="translate(-229.904 -106.466)"/><path class="m" d="M305.467,205.734s1.122.281-.561,7.292c-1.4,5.845-1.055,7.4,1.548,8.246a13.928,13.928,0,0,1-3.545.191c-6.743-.606-5.318-4.286-5.318-4.286a11.841,11.841,0,0,0,2.255-7.348,13.262,13.262,0,0,0-3.276-7.539l14.158-17.12a19.618,19.618,0,0,1,5.116,1.773C313.32,199.564,305.467,205.734,305.467,205.734Z" transform="translate(-229.904 -105.883)"/><path class="ar" d="M330.974,170.864c-.4,6.327-2.446,9.188-2.446,9.188s-22.258,5.722-31.244,5.508c-7.236-.157-22.157,4.308-30.145,6.036a23.444,23.444,0,0,1-4.364.662c-4.7-.034-6.541,1.066-9.6-5.879s-6.327-5.508-10.411-14.7a18.363,18.363,0,0,1,.606-16.548c-6.126-1.84-10.209-17.154,0-27.565s17.569-4.9,34.307-8.369,21.035,2.648,21.035,2.648-.819-5.71,2.659-5.508,4.286,4.084,4.286,4.084,2.042-7.763,4.286-5.52a5.983,5.983,0,0,1,1.414,3.758,15.86,15.86,0,0,1-.18,3.8c10.411-1.436,15.314,13.889,15.516,23.279S331.389,164.536,330.974,170.864Z" transform="translate(-237.147 -114.497)"/><path class="as" d="M311.352,118.663a20.2,20.2,0,0,0-4.252,5.654s-1.122-3.646-3.366-3.366-1.683,6.17-1.683,6.17,0,1.683-15.987,0-34.5-1.4-39.266,5.89-2.244,12.06,4.207,14.585a29.567,29.567,0,0,1,9.536,5.609,7.3,7.3,0,0,0-2.524,4.488c-.561,3.085,3.085,7.292,3.085,7.292s11.634,16.907,6.653,25.568c-.2.348-.415.707-.617,1.043a23.444,23.444,0,0,1-4.364.662c-4.7-.034-6.541,1.066-9.6-5.879s-6.327-5.508-10.411-14.7a18.363,18.363,0,0,1,.606-16.548c-6.126-1.84-10.209-17.154,0-27.565s17.569-4.9,34.307-8.369,21.035,2.648,21.035,2.648-.819-5.71,2.659-5.508,4.286,4.084,4.286,4.084,2.042-7.763,4.286-5.52A5.983,5.983,0,0,1,311.352,118.663Z" transform="translate(-237.147 -114.497)"/><path class="l" d="M328.607,183.113c-4.084,3.467-7.763,2.648-7.763,2.648a22.789,22.789,0,0,1-2.659,9.211,18.143,18.143,0,0,1-1.627,2.592l-.011.011c-4.577,6.316-16.234,16.884-31.233,16.256-17.356-.718-21.035-11.118-23.694-19.734s-8.369-24.266-8.369-24.266l2.042-2.85c1.952-2.737.168-5.856.011-6.114a14.17,14.17,0,0,0,6.529,1.414c4.084,0,8.571-1.223,14.7-5.52s9.6-10.815,14.293-11.836a6.622,6.622,0,0,1,5.767,1.1c.011,0,.022.011.034.011a21.225,21.225,0,0,1,4.622,5.621c3.265,5.1,2.85,8.179,7.55,12.464a16.094,16.094,0,0,1,5.1,9.794s2.042.213,2.457-.4,1.425-4.7,6.731-3.68S332.691,179.635,328.607,183.113Z" transform="translate(-235.184 -110.815)"/><path class="m" d="M316.547,197.574c-4.577,6.316-16.234,16.884-31.233,16.256-17.356-.718-21.035-11.118-23.694-19.734s-8.369-24.266-8.369-24.266l2.042-2.85c1.952-2.737.168-5.856.011-6.114a14.17,14.17,0,0,0,6.529,1.414c4.084,0,8.571-1.223,14.7-5.52s9.6-10.815,14.293-11.836a6.622,6.622,0,0,1,5.767,1.1c-3.859-1.447-6.215,1.492-8.145,5.744-2.659,5.89-12.475,13.328-17.659,14.719-5.194,1.414-10.658-.7-10.658-.7a6.388,6.388,0,0,1-.292,3.5c-.7,1.829-1.817,2.109-1.817,2.109a127.785,127.785,0,0,1,6.6,17.524c2.513,8.975,6.3,19.779,22.292,20.755s22.292-5.609,26.779-9.39A36.277,36.277,0,0,0,316.547,197.574Z" transform="translate(-235.184 -110.815)"/><path class="at" d="M304.867,126.5c4.768,0,8.414,5.609,9.816,10.1s1.122,12.9,2.8,17.95,1.122,11.78-.28,8.134-4.207-14.865-6.731-22.718-6.17-8.695-8.414-10.938S304.867,126.5,304.867,126.5Z" transform="translate(-229.305 -113.034)"/><path class="x" d="M265.251,178.458c.941,2.045.788,4.125-.343,4.646s-2.81-.716-3.752-2.761-.789-4.126.342-4.647S264.31,176.413,265.251,178.458Z" transform="translate(-234.296 -107.052)"/><path class="x" d="M289.589,168.106c.941,2.045.788,4.125-.343,4.646s-2.81-.716-3.752-2.761-.787-4.126.343-4.647S288.648,166.061,289.589,168.106Z" transform="translate(-231.33 -108.314)"/><path class="ar" d="M264.089,167.984c.39,1.563-.988,2.1-2.718,2.224s-2.842,1.73-3.83,2.595-2.347-1.112-1.853-2.718,3.46-3.83,5.313-3.83S263.719,166.5,264.089,167.984Z" transform="translate(-234.9 -108.189)"/><path class="ar" d="M276.6,163.039c.191,2.479,2.717,1.236,4.7-.74s3.212-1.977,5.682-2.595.742-2.842-.494-3.459-6.3,1.605-8.03,3.089S276.48,161.433,276.6,163.039Z" transform="translate(-232.341 -109.422)"/><path class="y" d="M272.789,176.084c-2.642,1.561-1.112,10.007.865,11.366s6.425-.123,7.537-3.335S275.507,174.477,272.789,176.084Z" transform="translate(-232.975 -107.022)"/><path class="au" d="M278.362,193.619a7.521,7.521,0,0,0,8.446-7.542" transform="translate(-232.124 -105.773)"/><path class="y" d="M318.427,173.931a3.117,3.117,0,1,1-3.118-3.117A3.117,3.117,0,0,1,318.427,173.931Z" transform="translate(-228 -107.633)"/></g><g transform="translate(79.136 90.317)"><path class="av" d="M279.645,366.764c6.126,2.656,19.808,2.656,19.808,2.656s.817-50.848,1.021-58.2-5.514-16.336-5.514-16.336-3.879,21.033-6.534,34.1S279.645,366.764,279.645,366.764Z" transform="translate(-279.645 -182.828)"/><path class="aa" d="M292.918,244.266c.408,5.718,8.577,42.067,1.429,70.044s-14.7,60.037-14.7,60.037,10.619-45.538,12.048-62.9-4.493-74.537-4.085-77.191,2.043-1.429,2.451-.2S292.918,244.266,292.918,244.266Z" transform="translate(-279.645 -190.41)"/><path class="i" d="M349.541,320.781s-6.944,6.327-27.98,9.794-29.808-5.1-29.808-5.1a178.248,178.248,0,0,0,1.829-30.627c-.4-17.356-2.648-42.273-3.467-47.781s-1.84-17.973,1.021-23.694a27.009,27.009,0,0,1,7.337-8.975c-.079.258-1.167,3.691,5.329,4.274a13.93,13.93,0,0,0,3.545-.191c6.765-1.1,15.7-5.912,18.1-7.977,1.29-1.1,2.12-1.874,2.648-2.39,4.925,3.321,10.692,9.783,16.346,22.606C355.049,254.814,349.541,320.781,349.541,320.781Z" transform="translate(-278.475 -193.404)"/><g transform="translate(8.713 127.518)"><path class="s" d="M311.9,469.366l-.162,5.729a3.3,3.3,0,0,0,2.663,2.26c2.259.485,7.263-1.291,9.442-2.179s2.259-1.938,2.259-1.938l.323-2.824Z" transform="translate(-284.447 -289.079)"/><path class="s" d="M301.782,466.046s-.565,5.81-.4,6.3,1.7,1.452,4.681,1.049,6.86-2.583,7.1-3.551a23.832,23.832,0,0,0-.081-4.359Z" transform="translate(-285.713 -289.552)"/><path class="t" d="M303.077,470.306c-.322,1.614-10.975,3.389-13.154,3.47s-2.583,4.439-2.5,4.761,3.47,1.776,5.649,2.5,6.214-.807,10.088-1.372,6.78.889,10.25-.564,3.309-2.421,3.309-4.761a14.118,14.118,0,0,0-1.694-5.407Z" transform="translate(-287.412 -289.131)"/><path class="t" d="M327.963,472.413c.807,1.7,1.13,7.263.726,9.28s-3.066,3.39-5.972,3.229a31.4,31.4,0,0,0-10.975,1.13c-3.551,1.21-9.523,1.775-11.621,1.049s-3.067-5.972-1.776-7.344,6.7-2.34,10.411-4.116,4.842-3.47,4.842-3.47.162,2.017,3.954,2.017S327.963,472.413,327.963,472.413Z" transform="translate(-286.15 -288.737)"/><path class="aw" d="M328.409,338.388c-.684,4.936-9.042,131.878-10.232,150.075-.1,1.414-.146,2.165-.146,2.165s-6.675.752-10.018.752a10,10,0,0,1-5.924-2.277s-4.824-29.225-8.9-80.1a797.227,797.227,0,0,1-2.524-80.394,157.589,157.589,0,0,1,.931-15.785l12.924.18,23.515.325S329.15,333.07,328.409,338.388Z" transform="translate(-287.036 -308.159)"/><path class="q" d="M318.178,488.462c-.1,1.414-.146,2.165-.146,2.165s-6.675.752-10.018.752a10,10,0,0,1-5.924-2.277s-4.824-29.225-8.9-80.1a797.227,797.227,0,0,1-2.524-80.394,157.589,157.589,0,0,1,.931-15.785l12.924.18a22.582,22.582,0,0,1,1.122,3.758c.752,3.747-5.98,9.727-5.98,9.727l-4.488,2.244s10.467,148.089,12.341,154.45,10.1,3.736,10.1,3.736Z" transform="translate(-287.036 -308.159)"/><path class="aw" d="M348.362,316.109c-.146,4.263-2.5,31.929-5.351,64.262-3.882,44.1-8.65,96.875-9.906,110.719-.2,2.233-.314,3.455-.314,3.455a25.958,25.958,0,0,1-10.748,1.526c-6.3-.381-9.267-2.659-9.267-2.659l-10.007-154.9a9.064,9.064,0,0,1-5.183-4.555,12.6,12.6,0,0,1-.494-3.9c-.18-7.135,1.256-20.5,1.256-20.5S348.732,305.1,348.362,316.109Z" transform="translate(-286.234 -308.666)"/><path class="ax" d="M336.325,376.667c-4.488,3.366-9.723,1.122-9.723,1.122s-3.366,97.229-2.244,100.6,5.449,4.417,5.449,4.417Z" transform="translate(-282.936 -300.377)"/><path class="q" d="M348.362,316.109c-.146,4.263-2.5,31.929-5.351,64.262-.606.269-1.234.55-1.9.841-9.345,4.117-24.681,0-24.681,0l1.5,107.7a30.179,30.179,0,0,0,15.168,2.176c-.2,2.233-.314,3.455-.314,3.455a25.958,25.958,0,0,1-10.748,1.526c-6.3-.381-9.267-2.659-9.267-2.659l-10.007-154.9a9.064,9.064,0,0,1-5.183-4.555,12.6,12.6,0,0,1-.494-3.9c-.18-7.135,1.256-20.5,1.256-20.5S348.732,305.1,348.362,316.109Z" transform="translate(-286.234 -308.666)"/></g><path class="ay" d="M361.21,384.618c-.4.617-12.453,5.924-30.841,5.722a60.777,60.777,0,0,1-18.8-3.209,50.617,50.617,0,0,1-11.825-5.576s2.457-43.282,0-69.837-5.722-50.44-5.722-50.44.213-12.453,4.9-20.822,20.631-20.014,22.875-24.1,3.063-11.028,3.063-11.028a48.207,48.207,0,0,1,14.618,12.195,36.422,36.422,0,0,1,2.333,3.321c6.944,11.23,13.07,30.224,16.133,69.232S361.614,384.013,361.21,384.618Z" transform="translate(-277.893 -193.743)"/><path class="ap" d="M315.033,295.272s1.963,49.082.28,67.874c-1.212,13.6-3.321,19.992-3.747,23.986a50.617,50.617,0,0,1-11.825-5.576s2.457-43.282,0-69.837-5.722-50.44-5.722-50.44.213-12.453,4.9-20.822,20.631-20.014,22.875-24.1,3.063-11.028,3.063-11.028a48.207,48.207,0,0,1,14.618,12.195,22.67,22.67,0,0,1-14.349,12.4s11.5,6.731,12.341,23.84S315.033,295.272,315.033,295.272Z" transform="translate(-277.893 -193.743)"/><path class="aq" d="M328.336,223.742c-7.348,3.882-20.216,11.028-26.544,18.78a28.861,28.861,0,0,0-3.669,5.957,50.809,50.809,0,0,0-4.095,14.057s-.4-10.007.617-16.537,7.146-17.771,14.495-24.1,13.07-17.771,11.847-23.077l-1.021-2.861a5.026,5.026,0,0,1,4.084-.808,16.636,16.636,0,0,1,5.542,3.388,19.9,19.9,0,0,1,5.89,8.448C337.939,214.139,335.7,219.861,328.336,223.742Z" transform="translate(-277.901 -195.002)"/><path class="ap" d="M327.382,203.133s.561,8.414-9.817,19.072-17.389,12.341-19.072,21.035a23.119,23.119,0,0,0-.37,5.239,50.809,50.809,0,0,0-4.095,14.057s-.4-10.007.617-16.537,7.146-17.771,14.495-24.1,13.07-17.771,11.847-23.077l-1.021-2.861a5.026,5.026,0,0,1,4.084-.808,16.636,16.636,0,0,1,5.542,3.388C327.853,199.555,327.382,203.133,327.382,203.133Z" transform="translate(-277.901 -195.002)"/><path class="aq" d="M301.358,208.367A19.38,19.38,0,0,1,298.9,215.1s-6.327,6.327-8.167,13.687a19.934,19.934,0,0,0-.516,3.68c-.381,7.057,1.952,15.516,1.952,15.516s-3.276-2.244-4.5-7.965-3.467-12.868,0-23.279A25.851,25.851,0,0,1,299.72,202.23a6.82,6.82,0,0,1,1.627,3.545A7.98,7.98,0,0,1,301.358,208.367Z" transform="translate(-278.892 -194.121)"/><path class="ap" d="M300.9,207.982a19.38,19.38,0,0,1-2.457,6.731s-6.328,6.327-8.167,13.687a19.92,19.92,0,0,0-.516,3.68,41.737,41.737,0,0,1,.011-8.616c.875-7.7,5.037-14.528,11.118-18.074A7.983,7.983,0,0,1,300.9,207.982Z" transform="translate(-278.438 -193.736)"/><path class="aa" d="M337.847,230.789a10.313,10.313,0,0,0-2.8,10.1c1.122,3.646,5.89,61.7,5.609,94.238s-5.609,42.912-3.085,44.034,12.341.841,13.743-2.244-2.524-95.641-6.17-123.407S337.847,230.789,337.847,230.789Z" transform="translate(-272.941 -190.684)"/><path class="aq" d="M346.722,349.895c-2.479,3.971-4.97,7.068-8.257,8.638a13.324,13.324,0,0,1-8.291.9c-4.6-.8-14.024-5.329-15.145-13.743s1.683-22.157,1.683-22.157a70.584,70.584,0,0,0,8.941.74,213.752,213.752,0,0,0,24.715-1.021S350.929,343.163,346.722,349.895Z" transform="translate(-275.365 -179.37)"/><path class="ap" d="M338.465,358.5a13.324,13.324,0,0,1-8.291.9c-4.6-.8-14.024-5.329-15.145-13.743s1.683-22.157,1.683-22.157a70.6,70.6,0,0,0,8.941.74c-.942,5.464-2.3,14.427-1.93,19.453.561,7.573,7.573,12.9,12.06,14.024C336.715,357.953,337.635,358.222,338.465,358.5Z" transform="translate(-275.365 -179.34)"/></g><g transform="translate(0 126.742)"><path class="l" d="M244.925,292.448s-7.393.426-10.983,1.066c-2.8.494-3.938,1.9-5.318,2.064H228.6a2.234,2.234,0,0,1-1.2-.168,3.311,3.311,0,0,1-1.1-1,19.361,19.361,0,0,1-1.425-1.986c-.045-.079-.1-.146-.146-.224-.628-1-1.29-2.143-1.93-3.321-.078-.157-.168-.3-.247-.46-.7-1.29-1.346-2.614-1.862-3.792a1.133,1.133,0,0,1-.079-.168c-.954-2.109-1.515-3.758-1.234-4.039a1.372,1.372,0,0,1,.179-.157,66.051,66.051,0,0,1,6.361-3.433,1.186,1.186,0,0,0-.1-.112c-.516-.516-2.737-2.648-4.959-2.838a2.873,2.873,0,0,1-2.322-4.005.906.906,0,0,1,.864-.325,29.038,29.038,0,0,0,3.781.527c2.535,0,8.437,3.377,10.344,4.431,1.346.752,6.114,1.178,8.751,1.369,1.077.079,1.8.112,1.8.112Z" transform="translate(-207.989 -222.34)"/><path class="l" d="M224.424,282.41a3.155,3.155,0,0,1-1.268.785h-.011a7.6,7.6,0,0,1-1.335.314,21.063,21.063,0,0,1-2.446.258,62.7,62.7,0,0,1-8.033-.011.041.041,0,0,0-.034-.011h-.045a5.915,5.915,0,0,1-.853-.146,2.008,2.008,0,0,1-1.234-2.378c.112-.359.393-.55,1.088-.64a26.95,26.95,0,0,1,3.377,0,19.476,19.476,0,0,0,7.045-1.436c1.75-.639,3.579-.561,3.96.415A2.992,2.992,0,0,1,224.424,282.41Z" transform="translate(-209.107 -221.221)"/><path class="l" d="M225.029,286.772a2.265,2.265,0,0,1-.359.2,3.971,3.971,0,0,1-.774.3c-2.165.662-5.643.482-8.5.135-.482-.056-.942-.112-1.369-.157-.224-.034-.438-.056-.651-.09h-.022c-2.266-.269-3.669-.527-3.859-1.458-.258-1.189-.561-2.67,1.357-2.468,0,0,.135.011.381.022h.09c.763.045,2.4.1,4.409.067,1.918-.034,4.521-.292,5.98-.471.684-.067,1.122-.123,1.122-.123s.112-.011.292-.023h.011a4.907,4.907,0,0,1,2.075.281A2.234,2.234,0,0,1,225.029,286.772Z" transform="translate(-209.083 -220.737)"/><path class="l" d="M226.213,289.939c-.056.067-.112.123-.168.18a1.572,1.572,0,0,1-.337.258c-.471.247-1.29.28-3.781.4-1.346.067-2.883.1-4.319.079-.92.011-1.806-.022-2.58-.079a7.025,7.025,0,0,1-2.491-.46c-1.1-.639-1.4-2.558-.718-3.186a3.02,3.02,0,0,1,1.268-.415h.022a10.167,10.167,0,0,1,2.12-.112,5.766,5.766,0,0,1,.617.011c2.592.135,5.7-.348,7.539-.247a3.988,3.988,0,0,1,1.021.157c.011.011.011.011.022.011C225.877,287.045,226.808,289.255,226.213,289.939Z" transform="translate(-208.821 -220.292)"/><path class="l" d="M229.669,292.842a1.87,1.87,0,0,1-.46.281h-.022a17.394,17.394,0,0,1-5.98,1.29,21.784,21.784,0,0,1-8.582-1.144,2.348,2.348,0,0,1-1.144-2.21c0-.269.236-.494,1.3-.684a18.4,18.4,0,0,1,1.885-.213c.1-.011.2-.011.3-.022.808-.056,1.817-.112,2.861-.146h.067c2.075-.1,4.3-.168,5.419-.247a4.611,4.611,0,0,0,.482-.034c.045,0,.09-.011.123-.011.561-.079,1.874.909,2.793,1.806C229.355,292.124,229.8,292.707,229.669,292.842Z" transform="translate(-208.574 -219.885)"/><path class="m" d="M218.538,269.876a.906.906,0,0,1,.864-.325c-1.167.707-.022,2.255,2.491,2.939,3.085.841,3.837.841,5.048,2.143s-.09,1.963-.09,1.963-.045-.079-1.032.123c-.516-.516-2.737-2.648-4.959-2.838A2.873,2.873,0,0,1,218.538,269.876Z" transform="translate(-207.989 -222.34)"/><path class="m" d="M219.18,289.961a.085.085,0,0,1,.045-.011c-.011,0-.011,0-.022.011Z" transform="translate(-207.879 -219.854)"/><path class="m" d="M220.634,289.78c-.269.045-.785.123-1.414.191C219.837,289.87,220.364,289.8,220.634,289.78Z" transform="translate(-207.874 -219.874)"/><path class="m" d="M246.043,291.76s-7.393.426-10.983,1.066c-2.8.494-3.938,1.9-5.318,2.064h-.022a17.4,17.4,0,0,1-5.98,1.29,21.785,21.785,0,0,1-8.582-1.144,2.348,2.348,0,0,1-1.144-2.21c0-.269.236-.494,1.3-.684a7.024,7.024,0,0,1-2.491-.46c-1.1-.64-1.4-2.558-.718-3.186a3.02,3.02,0,0,1,1.268-.415c-2.266-.269-3.669-.527-3.859-1.458-.258-1.189-.561-2.67,1.357-2.468,0,0,.135.011.381.022a5.911,5.911,0,0,1-.853-.146,2.008,2.008,0,0,1-1.234-2.378c.112-.359.393-.55,1.088-.639a1.662,1.662,0,0,0,1.066,1.817,12.224,12.224,0,0,0,4.117.37,28.01,28.01,0,0,0,4.9-1.47c-.595.28-5.688,2.58-7.8,2.311a2.355,2.355,0,0,0-1.2.135.011.011,0,0,0-.011.011c-1.167.482-1.189,2,.269,2.659,1.795.808,7.012-.011,7.449-.079a25.072,25.072,0,0,1-3.534,1.2,6.837,6.837,0,0,1-1.391.191.166.166,0,0,0-.078.011c-1.593.067-1.29,2.255.74,3.265a6.738,6.738,0,0,0,2.715.471,22.755,22.755,0,0,0,2.693-.123c-.74.112-1.582.269-2.3.437-1.144.28-2,.617-1.705.987.74.931,3.366,2.154,6.35,1.593,1.593-.3,3.141-.651,4.88-1.077.583-.135,1.189-.28,1.829-.449,1.032-.247,2.143-.516,3.388-.819,4.308-1.021,6.271.28,8.885-1.3s2.334-6.271,2.154-11.41c-.067-1.761-.213-3.332-.28-4.555,1.077.079,1.795.112,1.795.112Z" transform="translate(-209.107 -221.653)"/><path class="ao" d="M303.6,297.79c-19.779,8.01-47.018,7.8-58.293,7.281-.595-.022-1.144-.056-1.638-.079a3.986,3.986,0,0,1-3.77-3.792l-.875-18.421a3.981,3.981,0,0,1,4.061-4.185,137.941,137.941,0,0,0,30.549-2.962c20.474-4.218,25.534-19.42,29.539-32.075,3.512-11.062,20.845-22.595,31.076-11.724a21.017,21.017,0,0,1,3.96,6.226C347.069,258.535,329.13,287.446,303.6,297.79Z" transform="translate(-205.462 -227.469)"/><path class="ap" d="M334.246,231.834c-10.478-1.133-17.916,12.666-19.8,20.912-2.244,9.816-18.511,31.693-42.351,33.376s-27.767.841-27.767.841-.471,13.541.976,18.107c-.595-.022-1.144-.056-1.638-.079a3.986,3.986,0,0,1-3.77-3.792l-.875-18.421a3.981,3.981,0,0,1,4.061-4.185,137.941,137.941,0,0,0,30.549-2.962c20.474-4.218,25.534-19.42,29.539-32.075C306.681,232.5,324.015,220.963,334.246,231.834Z" transform="translate(-205.462 -227.469)"/></g></g></g></svg>