<svg xmlns="http://www.w3.org/2000/svg" width="731.862" height="461.229" viewBox="0 0 731.862 461.229"><defs><style>.a{fill:#4669a5;}.b{fill:#e8a18d;}.c{fill:#2e3044;}.d{fill:#383a4d;}.e{fill:#e6e6e9;}.f{fill:#a2b4d2;}.g{fill:#7e96c0;}.h{fill:#cdd6e7;}.i{fill:#6280b2;}.j{fill:#7c94bf;}.k{fill:#543128;}.l{fill:#c28e80;}.m{fill:#ffb752;}.ac,.ad,.ae,.ao,.aq,.ar,.n,.o,.r,.z{fill:none;stroke-miterlimit:10;}.n,.o{stroke:#543128;}.o{stroke-width:1.25px;}.p{fill:#c7d2e4;}.q{fill:#e1e7f1;}.ar,.r{stroke:#fff;}.ag,.s{mix-blend-mode:multiply;isolation:isolate;}.ag,.t{fill:#cbcbd0;}.u{fill:#eaa795;}.v{fill:#5dbf7a;}.w{fill:#9ed9af;}.x{fill:#5d3c34;}.y{fill:#9a432b;}.ad,.z{stroke:#2e3044;}.z{stroke-width:1.001px;}.aa{fill:#ffd9a5;}.ab{fill:#fff5e7;}.ac{stroke:#9a432b;}.ad,.ae{stroke-width:0.977px;}.ae{stroke:#bcbdc3;}.af{fill:#d96241;}.ah{fill:#ffe3bb;}.ai{fill:#b87b6b;}.aj{fill:#fff1dc;}.ak{fill:#c4c5cb;}.al{fill:#434557;}.am{fill:#585969;}.an{fill:#f4d0c6;}.ao{stroke:#ffb752;}.ap{fill:#fff;}.aq{stroke:#de795e;}.ar{stroke-width:2px;}.as{fill:#c0c1c7;}.at{fill:#eeb8aa;}</style></defs><g transform="translate(-10.567 -38.771)"><path class="a" d="M220.222,277.532S181.6,289.67,167.808,301.808s-17.655,35.862-20.414,61.241,3.311,136.828,3.311,136.828h192s5.517-173.793-2.759-187.035c-7.725-12.361-20.414-20.414-39.724-26.482s-35.862-11.035-35.862-11.035Z"/><path class="b" d="M225.921,254.373l.212,24.535s.142,8.811,18.591,9.458c14.08,3.884,21.594-7.343,21.594-7.343L264.626,251.2Z"/><path class="b" d="M230.151,157.082S210.9,161.524,206.04,177.6s-5.076,59.432,8.037,72.757,29.188,13.325,40.4,10.786a35.81,35.81,0,0,0,26.65-23.9c4.864-13.96,3.807-55.414.634-64.086S246.226,148.833,230.151,157.082Z"/><path class="c" d="M274.015,180.36s4.966,9.931,6.207,18.413,1.862,17.38,1.862,17.38c.638.714,7.066-12.708,8.276-24.207,1.241-11.793-2.069-21.1-8.276-28.552S274.015,180.36,274.015,180.36Z"/><path class="b" d="M280.408,215.617s4.864-10.058,12.056-10.31,4.441,19.362-2.75,22.631-9.941-4.023-9.941-4.023Z"/><path class="b" d="M207.035,215.617s-4.865-10.058-12.056-10.31-4.442,19.362,2.749,22.631,9.941-4.023,9.941-4.023Z"/><path class="d" d="M224.257,204.145a5.874,5.874,0,0,0-.293,7.326,3.354,3.354,0,0,0,3.149,1.449c2.372-.5,4.015-4.706,3.41-6.9C229.744,203.192,226.317,201.9,224.257,204.145Z"/><path class="d" d="M257.136,204.145a5.876,5.876,0,0,0-.293,7.326,3.355,3.355,0,0,0,3.149,1.449c2.373-.5,4.016-4.706,3.411-6.9C262.624,203.192,259.2,201.9,257.136,204.145Z"/><path class="c" d="M202.222,216.153s7.862-14.276,12-26.69a200.536,200.536,0,0,0,6.207-23.379s6.442,12.446,13.655,17.172a31.791,31.791,0,0,0,11.1,4.759l-6.9-19.587s10.744,14.961,20.966,21.242c11.448,7.034,21.172,6.621,21.172,6.621s-9.172-8.69-12.621-13.656a68.991,68.991,0,0,1-4.551-7.862s14.068,10.759,19.034,13.242,5.793.827,5.793.827,5.173-12.827-7.448-29.793-26.207-19.1-37.379-13.931-22.828,14.138-22.828,14.138-12-11.793-23.793-4.552-8.256,29.591-6,37.862A73.114,73.114,0,0,0,202.222,216.153Z"/><path class="c" d="M220.9,200.86a4.648,4.648,0,0,1,.474-.446c.077-.068.158-.137.234-.207-.362.332-.127.093-.012.025.466-.272.91-.577,1.393-.82.167-.084.337-.158.505-.237-.288.136-.227.1.03-.009.275-.112.551-.224.832-.323a17.385,17.385,0,0,1,2.029-.579c.337-.075.677-.141,1.018-.2l.235-.037q.27-.04-.226.027c.061-.065.444-.055.542-.067a15.567,15.567,0,0,1,1.942-.136c.578,0,1.155.055,1.73.1a3.537,3.537,0,0,0,1.221-.038,3.822,3.822,0,0,0,.682-.25q.247-.127-.264.1a1.28,1.28,0,0,0,.575-.289l-.792.214.085,0a1.534,1.534,0,0,0,1.308-2.278l-.038-.08.214.792a1.705,1.705,0,0,0-.059-.634q-.351-.82-.045-.126a2.915,2.915,0,0,0-2.094-1.919,7.659,7.659,0,0,0-2.451-.315,16.293,16.293,0,0,0-4.857.806c-2.677.86-6.624,2.56-6.752,5.867a1.5,1.5,0,0,0,2.541,1.052Z"/><path class="c" d="M266.08,200.86a4.647,4.647,0,0,0-.474-.446c-.077-.068-.158-.137-.234-.207.362.332.127.093.012.025-.466-.272-.91-.577-1.393-.82-.166-.084-.337-.158-.505-.237.288.136.227.1-.029-.009-.276-.112-.552-.224-.833-.323a17.384,17.384,0,0,0-2.029-.579q-.506-.113-1.018-.2l-.235-.037q-.27-.04.226.027c-.061-.065-.444-.055-.541-.067a15.6,15.6,0,0,0-1.943-.136c-.578,0-1.155.055-1.73.1a3.537,3.537,0,0,1-1.221-.038,3.85,3.85,0,0,1-.682-.25q-.248-.127.264.1a1.28,1.28,0,0,1-.575-.289l.792.214-.085,0a1.535,1.535,0,0,1-1.308-2.278l.039-.08-.215.792a1.706,1.706,0,0,1,.059-.634q.351-.82.045-.126a2.915,2.915,0,0,1,2.094-1.919,7.661,7.661,0,0,1,2.452-.315,16.3,16.3,0,0,1,4.857.806c2.676.86,6.623,2.56,6.751,5.867a1.5,1.5,0,0,1-2.541,1.052Z"/><path class="e" d="M194.463,205.669c-.171.01-.011.008.111.121a4.992,4.992,0,0,0,.721.522c.657.425,1.287.9,1.924,1.353,1.606,1.144,3.181,2.334,4.829,3.419,1.894,1.246,3.948,2.283,5.929,3.381a25.238,25.238,0,0,0,3.444,1.545c.995.372,2.23,1.25,3.3.776a.562.562,0,0,0,.284-.495c0-1.276-1.606-1.723-2.575-2.091a32.43,32.43,0,0,1-3.917-1.772,65.994,65.994,0,0,1-6.154-3.306c-1.672-1.137-3.265-2.387-4.94-3.518-.741-.5-2.293-1.71-3.249-1.026-.433.309-.336,1.126.295,1.091Z"/><path class="e" d="M216,249.791a33.053,33.053,0,0,1-2.766-2.873,46.7,46.7,0,0,1-4.559-6.465,124.687,124.687,0,0,1-6.286-11.78,6.507,6.507,0,0,1-2.231.02,32.823,32.823,0,0,0,2.376,5.6c1.3,2.488,2.6,4.987,4.03,7.4a52,52,0,0,0,4.517,6.494,34.236,34.236,0,0,0,2.857,3.078c.843.8,1.846,1.874,3.111,1.711.33-.043.726-.278.679-.679A4.084,4.084,0,0,0,216,249.791Z"/><path class="e" d="M290.759,204.578c-.936-.669-2.432.482-3.164.969-1.711,1.138-3.326,2.419-5.025,3.575a60.1,60.1,0,0,1-5.989,3.215A36.183,36.183,0,0,1,272.5,214.2c-.967.368-2.576.82-2.575,2.091a.563.563,0,0,0,.285.495c1.032.458,2.183-.357,3.143-.719a26.714,26.714,0,0,0,3.6-1.6c1.981-1.1,4.036-2.135,5.93-3.381,1.647-1.085,3.222-2.275,4.828-3.419.616-.439,1.224-.894,1.857-1.308a6.479,6.479,0,0,0,.746-.528c.137-.119.3-.151.153-.16.631.035.728-.782.3-1.091Z"/><path class="e" d="M270.926,249.791a33.2,33.2,0,0,0,2.766-2.873,46.771,46.771,0,0,0,4.558-6.465,124.228,124.228,0,0,0,6.286-11.78,6.507,6.507,0,0,0,2.231.02,32.743,32.743,0,0,1-2.376,5.6c-1.295,2.488-2.6,4.987-4.029,7.4a51.906,51.906,0,0,1-4.518,6.494,33.943,33.943,0,0,1-2.857,3.078c-.843.8-1.846,1.874-3.11,1.711-.33-.043-.727-.278-.68-.679A4.085,4.085,0,0,1,270.926,249.791Z"/><path class="f" d="M211.642,211.832s.089,16.274,1.263,26.015a111.053,111.053,0,0,0,2.76,15.347s8.381,8.427,23.453,8.734,22.418-1.827,29.415-6.39c6.136-4,7.337-6.536,7.337-6.536l.066-37a147.794,147.794,0,0,1-32.557,3.514A181.393,181.393,0,0,1,211.642,211.832Z"/><path class="g" d="M212.384,228.16a70.25,70.25,0,0,0,10.827,2.873c1.983.436,3.973.863,5.981,1.167a8.374,8.374,0,0,0,4.487-.041.3.3,0,0,0,.07-.535,10.544,10.544,0,0,0-4.335-1.179c-1.981-.3-3.968-.564-5.947-.887a69.236,69.236,0,0,1-10.79-2.461c-.684-.229-.937.807-.293,1.063Z"/><path class="g" d="M213.7,240.35a6.557,6.557,0,0,0,1.729,1.317,31.263,31.263,0,0,0,3.6,1.821,35.109,35.109,0,0,0,5.329,1.787c1.1.284,2.2.522,3.315.719,1.071.189,2.424.531,3.435-.007a.532.532,0,0,0,.107-.828,5.859,5.859,0,0,0-3.026-1.037c-1.066-.206-2.132-.429-3.191-.666-1.769-.4-3.523-.881-5.265-1.379a23.73,23.73,0,0,1-3.633-1.307,6.056,6.056,0,0,1-1.757-1.067c-.421-.427-1.012.2-.646.647Z"/><path class="g" d="M274.979,227.884a35.137,35.137,0,0,1-8.391,2.258c-1.738.285-3.484.476-5.234.678-1.563.182-3.4.138-4.728,1.08a.3.3,0,0,0,0,.506c1.482.787,3.294.394,4.88.176,1.835-.251,3.662-.636,5.465-1.051a35.872,35.872,0,0,0,8.563-2.7c.642-.331.079-1.231-.555-.951Z"/><path class="h" d="M243.379,215.519a181.337,181.337,0,0,1-31.737-3.687s.089,16.274,1.263,26.015a111.053,111.053,0,0,0,2.76,15.347,18.537,18.537,0,0,0,1.623,1.38c-.83-5.877-3.48-25.046-3.48-29.933v-9.1s17.586,2.9,33.311,2.276a183.671,183.671,0,0,0,26.069-2.69s.827,11.379.62,21.31c-.138,6.614-.275,12.295-.352,15.362A11.079,11.079,0,0,0,275.87,249l.066-37A147.757,147.757,0,0,1,243.379,215.519Z"/><path class="g" d="M275.582,239.7a6.267,6.267,0,0,1-1.8,1.064,26.59,26.59,0,0,1-3.53,1.287c-1.522.462-3.029.968-4.568,1.375-.9.239-1.8.478-2.712.694a4.43,4.43,0,0,0-2.431,1.036.536.536,0,0,0,.107.828,3.939,3.939,0,0,0,2.705.032c.958-.208,1.907-.441,2.846-.723a34.368,34.368,0,0,0,4.792-1.761c1.169-.553,2.322-1.154,3.43-1.821a6.863,6.863,0,0,0,1.81-1.364c.366-.447-.221-1.07-.647-.647Z"/><path class="i" d="M244.587,288.69c-.54,10.2-.074,20.473-.025,30.685.081,16.6.136,33.2.266,49.8q.214,27.561.443,55.124.2,23.773.358,47.546c.032,5.536.069,11.07.144,16.605.043,3.171-.108,6.415.221,9.572.02.2.032.4.062.6.024.158.033.319.057.478.122.81-.013-.567-.013-.045a.985.985,0,0,0,1.968,0c0-.522-.133.855-.013.045.023-.159.033-.32.056-.478.032-.215.043-.435.063-.652.054-.556.1-1.1.1-1.662q0-2.427-.006-4.852-.015-7.536-.091-15.071-.267-22.846-.488-45.7-.273-27.447-.543-54.893c-.166-17.062-.391-34.122-.566-51.183-.069-6.626-.132-13.251-.149-19.877-.011-4.6.1-9.223-.151-13.815q-.062-1.113-.12-2.226a.785.785,0,0,0-1.57,0Z"/><path class="j" d="M245.071,287.512l11.289,18.3s5.316-3.207,12.414-11.724c8.276-9.931,8.192-15.53,8.192-15.53a21.535,21.535,0,0,0-5.022-6.107,16.577,16.577,0,0,0-5.564-3.122s-1.765,4.75-10.179,11.4A66.075,66.075,0,0,1,245.071,287.512Z"/><path class="j" d="M244.547,287.512l-10.256,19.675a61,61,0,0,1-13.655-12.552c-7.058-8.55-7.655-15.586-7.655-15.586a23.74,23.74,0,0,1,4.551-4.965,46.315,46.315,0,0,1,7.035-4.966s.436,4.957,8.851,11.608A66.044,66.044,0,0,0,244.547,287.512Z"/><path class="k" d="M74.291,250.345s-11.586-6.9-16.828,8.276-1.1,26.207-8,34.482-21.793,8.828-22.9,26.207,10.483,34.207,44.138,42.207,65.931,2.483,83.034-3.31S180.5,330.9,180.5,319.034s-11.586-12.689-12.414-23.724,1.1-17.931-3.862-28.689c-3.591-7.781-7.724-15.173-21.517-18.207S82.843,243.172,74.291,250.345Z"/><path class="l" d="M157.325,416.414s7.333,44.539,10.207,57.931A137.142,137.142,0,0,0,175.6,500h30.655s-4.862-10.345-9.827-31.034-9.931-57.311-9.931-57.311Z"/><path class="m" d="M159.35,423.442c1.03-.41,2.064-.811,3.1-1.194a114.939,114.939,0,0,1,27.321-6.6l.059-.005c-.537-5.266-1.071-10.728-1.474-15.363-1.241-14.276-.621-49.862-4.552-60.207s-29.379-15.724-29.379-15.724-.621,73.655,2.9,88.552C158.182,416.525,158.841,420.1,159.35,423.442Z"/><path class="m" d="M96.084,319.034s-31.448,8.828-33.379,10.483-2.759,81.38-1.38,103.173-.551,66.482-.551,66.482H167.532s-5.793-38.62-8-48.551-2.207-15.449,4.966-27.587,14.345-27.862,8.552-47.448-11.035-30.9-11.862-38.069.275-11.31.275-11.31-31.724-9.379-38.344-9.1S99.67,317.1,96.084,319.034Z"/><path class="l" d="M99.188,293.1s.724,21.828.1,23.483-15.414,5.9-15.414,5.9,12.828,39.1,37.242,39.31,25.655-19.241,26.689-25.241.311-14.173.311-14.173S136.325,320.1,134.67,317c-1.3-2.436.1-18.931.1-18.931Z"/><path class="l" d="M84.222,217.241c-7.306,12.983-4.69,36.138-.552,59.587,2.468,13.984,12.966,24.275,30.069,27.31s32.29,1.944,41.1-25.1c8-24.551-5.518-63.448-19.586-72.827C131.693,203.831,93.751,200.308,84.222,217.241Z"/><path class="l" d="M85.946,263.724S78.912,253.379,72.5,256.69s-4.552,16.551,1.655,19.241,12.207-4.138,12.207-4.138Z"/><path class="l" d="M23.67,407.1s-6.482,26.414-9.241,45.173-3.862,47.448-3.862,47.448h32s3.357-31.49,5.793-44.138c3.241-16.827,9.862-37.31,9.862-37.31Z"/><path class="k" d="M81.188,262.069S71.257,254,68.36,236.828s7.655-34.345,26.483-38.9,34.758,4.828,34.758,4.828,20.69-5.035,30,11.1-2.689,42.207-2.689,42.207-.138-11.931-6.345-21.931c-8.7-14.02-12.414-15.931-16.966-18.828a38.062,38.062,0,0,0-7.448-3.862s-2.621,6.483-11.586,16.69c-8.167,9.3-22,14.069-22,14.069a57.367,57.367,0,0,1-4.138,10.965A32.31,32.31,0,0,1,81.188,262.069Z"/><path class="n" d="M116.567,243.655c-4.505-2.241-9.242-.93-12.621,2.69"/><path class="o" d="M137.67,243.655c4.871-2.123,7.683-2.208,12.207.828"/><path class="d" d="M109.8,250.521a5.875,5.875,0,0,0-.4,7.321,3.356,3.356,0,0,0,3.128,1.495c2.379-.463,4.083-4.647,3.511-6.852C115.3,249.648,111.9,248.3,109.8,250.521Z"/><path class="d" d="M141.355,249.84a6.084,6.084,0,0,0,.841,6.9,2.623,2.623,0,0,0,2.837.825c1.9-.865,2.648-5.075,1.819-7.025C145.785,248.026,142.739,247.394,141.355,249.84Z"/><path class="p" d="M69.529,247.87a24.077,24.077,0,0,0,4.158,4.867c1.357,1.389,2.749,2.743,4.118,4.12a51.347,51.347,0,0,0,9.442,7.238,76.612,76.612,0,0,0,14.04,6.732c1.576.59,4.79,2.239,6.4,1.084a.867.867,0,0,0,0-1.477,32.764,32.764,0,0,0-4.971-1.717c-2.507-.882-4.972-1.891-7.4-2.975a44.112,44.112,0,0,1-5.609-2.886c-3.357-2.122-6.85-4.048-9.756-6.791-1.486-1.4-3-2.775-4.493-4.172A50.986,50.986,0,0,0,70.3,247.1c-.484-.341-1.022.309-.77.769Z"/><path class="p" d="M148.967,272.332a48.152,48.152,0,0,0,7.7-10.089,38.212,38.212,0,0,0,2.659-4.978c.494-1.205,1.558-3.926-.088-4.735a.531.531,0,0,0-.611.079,2.98,2.98,0,0,0-.759,1.9,10.287,10.287,0,0,1-.792,2.446c-.729,1.606-1.7,3.088-2.513,4.65-.914,1.753-1.966,3.382-3.034,5.043a48.758,48.758,0,0,0-3.295,5.112.471.471,0,0,0,.736.569Z"/><path class="q" d="M129.394,255.655s-22.551.207-25.655,21.724,11.586,30,26.9,28.345,22.758-19.862,22.345-29.172S148.015,256.069,129.394,255.655Z"/><path class="r" d="M104.153,277.783a39.7,39.7,0,0,0,12.673,5.511c6.021,1.263,12.287,2.049,18.415,1.254,6.617-.858,12.144-2.65,16.629-5.977"/><path class="m" d="M80.774,350.621c-.207-10.966-5.1-25.655-5.1-25.655S51.877,330,46.705,336.414s-16.621,37.379-20.966,53.931c-2.047,7.8-3.773,16.011-5.025,22.516q1.7.254,3.387.547A117.706,117.706,0,0,1,48.863,420.3a76.987,76.987,0,0,1,8.669,4.209,103.458,103.458,0,0,1,3.793-10.166c3.725-8.276,10.138-25.448,12.621-29.793S80.981,361.586,80.774,350.621Z"/><path class="m" d="M158.269,357.72c2.219,11.609,10.558,20.862,13.461,32.225a34.015,34.015,0,0,1-.862,19.239,103.54,103.54,0,0,1-6.291,13.846q-1.938,3.834-3.885,7.661a33.967,33.967,0,0,0-2.883,6.318.359.359,0,0,0,.6.347,21.431,21.431,0,0,0,3.355-5.274q1.791-3.393,3.462-6.844c2.168-4.468,4.484-8.95,6.243-13.6a39.326,39.326,0,0,0,2.384-18.951c-.767-5.967-3.275-11.241-6.131-16.466-3.328-6.087-7.1-11.853-8.636-18.726-.12-.533-.914-.3-.813.224Z"/><path class="m" d="M66.889,394.675a89.117,89.117,0,0,0-5.621,13.852c-.748,2.238-1.481,4.48-2.166,6.738-.873,2.879-2.08,6.037-1.909,9.091a.473.473,0,0,0,.874.236c1.683-2.471,2.357-5.676,3.223-8.5.7-2.282,1.39-4.568,2.094-6.85,1.457-4.725,3.076-9.388,4.79-14.025.277-.75-.914-1.24-1.285-.542Z"/><g class="s"><path class="t" d="M158.269,357.72c2.219,11.609,10.558,20.862,13.461,32.225a34.015,34.015,0,0,1-.862,19.239,103.54,103.54,0,0,1-6.291,13.846q-1.938,3.834-3.885,7.661a33.967,33.967,0,0,0-2.883,6.318.359.359,0,0,0,.6.347,21.431,21.431,0,0,0,3.355-5.274q1.791-3.393,3.462-6.844c2.168-4.468,4.484-8.95,6.243-13.6a39.326,39.326,0,0,0,2.384-18.951c-.767-5.967-3.275-11.241-6.131-16.466-3.328-6.087-7.1-11.853-8.636-18.726-.12-.533-.914-.3-.813.224Z"/></g><g class="s"><path class="t" d="M66.889,394.675a89.117,89.117,0,0,0-5.621,13.852c-.748,2.238-1.481,4.48-2.166,6.738-.873,2.879-2.08,6.037-1.909,9.091a.473.473,0,0,0,.874.236c1.683-2.471,2.357-5.676,3.223-8.5.7-2.282,1.39-4.568,2.094-6.85,1.457-4.725,3.076-9.388,4.79-14.025.277-.75-.914-1.24-1.285-.542Z"/></g><g class="s"><path class="t" d="M147.556,429.343a62.592,62.592,0,0,0-21.6-1.329,88.074,88.074,0,0,0-10.766,1.806,37.266,37.266,0,0,0-10.01,3.487c-.59.339-.163,1.121.434,1.029,3.281-.508,6.522-1.526,9.762-2.271a102.819,102.819,0,0,1,10.793-1.928c6.906-.828,14.236-1.146,21.065.382.762.17,1.088-.988.323-1.176Z"/></g><path class="u" d="M418.843,362.227s-5.38,41.38-19.862,83.173c-4.932,14.232-24.414,54.6-24.414,54.6H405.7s30.1-50.048,36.725-73.221,10.345-60,10.345-60Z"/><path class="v" d="M469.325,264.021s-27.034,4.965-39.448,11.586-12.138,30.069-11.586,40.827-.828,31.449-1.1,39.173-2.759,21.241-2.759,21.241,12.138-.276,22.345,1.931a71.969,71.969,0,0,1,16.551,5.517s12.414-56,14.621-70.62S469.325,264.021,469.325,264.021Z"/><path class="w" d="M438.988,366.161a91.949,91.949,0,0,0-22.549-2.316c-.824,6.541-2.01,13-2.01,13s12.138-.276,22.345,1.931a71.969,71.969,0,0,1,16.551,5.517s1.156-5.214,2.824-12.87A95.823,95.823,0,0,0,438.988,366.161Z"/><path class="x" d="M536.98,425.857a122,122,0,0,1,9.9,30.237c3.478,17.928,1.893,43.906,1.893,43.906H428.341s3.211-53.539,13.379-77.889S536.98,425.857,536.98,425.857Z"/><path class="y" d="M517.05,148.986s1.1-5.241,12.689-8.276S548.5,144.848,548.5,154.5s-3.862,15.449,1.379,19.311,16.315,11.974,18.207,29.241c2.207,20.138-9.379,27.586-16.276,31.172-5.693,2.961-13.448,6.138-14,11.1s.828,12.414-6,18c-5.168,4.229-16.689,7.862-28,.965s-22.9-23.448-22.069-41.1,25.655-42.759,27.311-49.1S517.05,148.986,517.05,148.986Z"/><path class="v" d="M445.877,280.021s-11.31,25.931-14.62,43.586-.828,26.483,6.344,35.862,9.931,16,9.38,20.965-7.449,48.276-7.724,49.656,17.1,8.551,54.068,7.724,49.1-9.38,49.1-9.38-3.035-25.931-2.759-46.069a164.588,164.588,0,0,1,5.518-38.344s3.31-65.656-3.035-68.414-29.517-11.586-38.345-13.242S454.429,265.4,445.877,280.021Z"/><path class="z" d="M445.463,200.3a25.3,25.3,0,0,1,5.1-.965"/><path class="v" d="M509.325,150.917s3.863-6.069,8.828-3.034,10.483,9.1,7.448,14.9S509.325,150.917,509.325,150.917Z"/><path class="u" d="M470.36,242.021s1.862,17.379.414,19.862-6.207,2.689-6.207,2.689,3.931,15.1,11.793,22.138,10.138,2.69,15.1-.207,18.207-22.758,18.207-22.758-5.586-.621-5.586-5.38.207-22.344.207-22.344Z"/><path class="u" d="M457.739,167.331a81.392,81.392,0,0,0-8.276,41.172c1.656,23.173,7.862,39.724,29.794,41.38s34.137-11.793,37.655-19.449,8.276-36.827,6.207-46.758-15.518-27.724-32.69-31.035S460.222,161.538,457.739,167.331Z"/><path class="aa" d="M528.226,220.852c-.289.074-.562.177-.785.216a12.8,12.8,0,0,1-2.184.207,11.138,11.138,0,0,1-3.819-.888c-2.192-.274-4.3-.845-6.46-1.319-4.52-.995-8.963-2.1-13.412-3.324a.648.648,0,0,0-.5,1.178,12.639,12.639,0,0,0,2.967,1.762c1.124.444,2.271.825,3.429,1.17,2.4.715,4.832,1.258,7.264,1.831A45.416,45.416,0,0,0,522.024,223a18.75,18.75,0,0,0,3.638-.125c1.036-.131,2.191-.226,2.7-1.258A.748.748,0,0,0,528.226,220.852Z"/><path class="ab" d="M449.188,213.262s10.206-8.276,24-8,29.793,10.207,29.793,10.207,4.965,17.655,4.413,22.345-4.137,6.9-11.586,10.482-24.551,3.311-31.724-1.931-12.414-14.62-13.517-20.138A98.858,98.858,0,0,1,449.188,213.262Z"/><path class="ac" d="M454.291,193.814c1.138-1.892,3.886-3.07,5.878-3.507,2.406-.528,6.22-1.385,8.467-.08"/><path class="ac" d="M484.36,189.4c4.814-.064,12.821,1.961,15.172,6.69"/><path class="u" d="M545.877,372.158s12.828,62.483,14.069,70.759S548.774,500,548.774,500h26.9s18.207-49.635,14.9-76.117-12.828-70.345-12.828-70.345l-33.517,1.655Z"/><path class="y" d="M520.064,210.015c.883-1.225,1.8-2.427,2.713-3.633a37.485,37.485,0,0,0,6.283-11.126,29.543,29.543,0,0,0,1.165-5.6c.229-1.993.271-4.017.585-6,.007-.04.037-.06.057-.089-.1-11.679-3.545-21.295-10.783-28.792-7.724-8-15.172-6.069-22.9-5.793-11.906.425-18.759,4.69-18.759,4.69s1.379,6.62,8.827,17.379,23.173,17.379,23.173,17.379a41.617,41.617,0,0,0,2.759,11.311A27.145,27.145,0,0,0,520.064,210.015Z"/><path class="y" d="M483.188,157.814s-12.828,1.655-21.1,11.586-12.414,24.827-12.414,24.827-3.1-4.689-2.689-17.1,11.931-27.724,27.862-32.276,35.034.138,43.1,7.793-8.483,6.828-11.172,7.655S483.188,157.814,483.188,157.814Z"/><path class="ad" d="M470.429,200.579c-.024-6.79-4.526-11.019-11.593-11.318-6.649-.281-14.114,2.821-14.476,10.032-.294,5.853,5.4,11.207,11.034,12.5,6.292,1.443,11.064-1.465,13.552-7.107a12.18,12.18,0,0,0,.207-9.662,8.977,8.977,0,0,0-3.421-4.028c-1.073-.59-2.761-.651-3.717-1.339"/><path class="ad" d="M478.351,200.579c.024-6.79,4.526-11.019,11.593-11.318,6.649-.281,14.114,2.821,14.476,10.032.294,5.853-5.4,11.207-11.034,12.5-6.292,1.443-11.064-1.465-13.552-7.107a12.18,12.18,0,0,1-.207-9.662,8.977,8.977,0,0,1,3.421-4.028c1.073-.59,2.761-.651,3.717-1.339"/><path class="ad" d="M470.429,199.607c1.675-2.011,7.053-2.244,8.138.551"/><path class="c" d="M458.213,197.594a5.464,5.464,0,0,0,.826,6.769,3.12,3.12,0,0,0,3.107.86c2.1-.811,2.983-4.921,2.1-6.846C463.108,195.9,459.769,195.224,458.213,197.594Z"/><path class="c" d="M487.636,198.073a5.717,5.717,0,0,0,.863,7.084,3.264,3.264,0,0,0,3.252.9c2.2-.849,3.122-5.15,2.2-7.165C492.758,196.3,489.264,195.593,487.636,198.073Z"/><path class="v" d="M517.76,266.552s31.565,6.848,38.462,14.02,22.345,67.035,23.448,72,3.035,13.793,3.035,13.793a79.622,79.622,0,0,0-20.966,4.414c-12.138,4.138-15.448,6.069-15.448,6.069l-17.1-47.724S516.657,268.759,517.76,266.552Z"/><path class="w" d="M480.5,289.538a81.928,81.928,0,0,1,6.345,7.172,73.348,73.348,0,0,1,5.517,8.552A91.787,91.787,0,0,0,509.6,283.883c7.035-12.552,5.931-18.759,5.931-18.759L507.6,262.5s-2,5.793-13.034,16.138A107.988,107.988,0,0,1,480.5,289.538Z"/><path class="w" d="M480.084,289.124a45.789,45.789,0,0,0-9.517,6.276,47.246,47.246,0,0,0-6.414,6.414s-8.483-10.345-7.655-22.138,3.724-15.311,3.724-15.311l6.621-1.241a44.022,44.022,0,0,0,3.31,11.379C473.463,282.365,480.084,289.124,480.084,289.124Z"/><path class="w" d="M572.039,356.907c-3.973.755-7.95,1.579-11.877,2.545a66.8,66.8,0,0,0-17.669,6.8l3.8,10.6s3.31-1.931,15.448-6.069a79.622,79.622,0,0,1,20.966-4.414s-1.266-5.786-2.333-10.624A75.665,75.665,0,0,0,572.039,356.907Z"/><path class="v" d="M440.819,295.291c-4.615,13.8-10.749,27.892-10.212,42.733a44.341,44.341,0,0,0,5.587,20.083c1.641,2.918,3.66,5.588,5.322,8.49a31.332,31.332,0,0,1,3.788,9.9c.728,3.99.322,8.166-.175,12.161s-1.269,7.929-1.792,11.912c-.094.711.991.778,1.2.162a58.142,58.142,0,0,0,3.243-21.135c-.376-6.985-3.679-12.9-7.538-18.546a45.565,45.565,0,0,1-7.372-19.443c-.938-7.335.041-14.767,1.8-21.9,2.013-8.149,5.118-16,7.439-24.061a.669.669,0,0,0-1.289-.355Z"/><path class="v" d="M531.865,333.712a54.331,54.331,0,0,0,2.016,8.228c1.029,2.765,2.194,5.477,3.321,8.2,1.095,2.65,2.159,5.317,3.022,8.053.425,1.347.8,2.713,1.151,4.082.307,1.216.426,2.629,1.241,3.623a.518.518,0,0,0,.81-.1,5.75,5.75,0,0,0,.074-3.449,33.831,33.831,0,0,0-1.052-4.323c-.869-2.808-1.96-5.541-3.085-8.255-1.1-2.66-2.248-5.3-3.271-8a57.091,57.091,0,0,1-2.961-8.41c-.171-.826-1.436-.476-1.266.349Z"/><g class="s"><path class="t" d="M440.819,295.291c-4.615,13.8-10.749,27.892-10.212,42.733a44.341,44.341,0,0,0,5.587,20.083c1.641,2.918,3.66,5.588,5.322,8.49a31.332,31.332,0,0,1,3.788,9.9c.728,3.99.322,8.166-.175,12.161s-1.269,7.929-1.792,11.912c-.094.711.991.778,1.2.162a58.142,58.142,0,0,0,3.243-21.135c-.376-6.985-3.679-12.9-7.538-18.546a45.565,45.565,0,0,1-7.372-19.443c-.938-7.335.041-14.767,1.8-21.9,2.013-8.149,5.118-16,7.439-24.061a.669.669,0,0,0-1.289-.355Z"/></g><g class="s"><path class="t" d="M531.865,333.712a54.331,54.331,0,0,0,2.016,8.228c1.029,2.765,2.194,5.477,3.321,8.2,1.095,2.65,2.159,5.317,3.022,8.053.425,1.347.8,2.713,1.151,4.082.307,1.216.426,2.629,1.241,3.623a.518.518,0,0,0,.81-.1,5.75,5.75,0,0,0,.074-3.449,33.831,33.831,0,0,0-1.052-4.323c-.869-2.808-1.96-5.541-3.085-8.255-1.1-2.66-2.248-5.3-3.271-8a57.091,57.091,0,0,1-2.961-8.41c-.171-.826-1.436-.476-1.266.349Z"/></g><path class="u" d="M518.567,210.4s8.069-12.828,13.448-6.207.207,15.931-4.758,16.965-10.552-3.31-10.966-4.965S518.567,210.4,518.567,210.4Z"/><path class="aa" d="M529.641,201.445a6.207,6.207,0,0,0-7.543,2.913c-1.074,1.876-1.766,4.031-2.684,5.992-.979,2.093-2.01,4.159-3.02,6.237-2.034,4.186-3.731,8.523-5.759,12.71-1.051,2.17-2.163,4.315-3.253,6.471a11.035,11.035,0,0,1,.012,2.046,8.505,8.505,0,0,1-.432,1.865,85.767,85.767,0,0,0,5.266-8.391c2.092-3.8,3.8-7.769,5.7-11.667,1.876-3.846,3.791-7.68,5.457-11.623.591-1.4,1.012-3.055,2.344-3.951a14.518,14.518,0,0,1,3.913-1.313A.675.675,0,0,0,529.641,201.445Z"/><path class="z" d="M503.67,203.055c1.674-.838,4.593-.614,6.469-.815,2.435-.259,4.812-.616,7.268-.7,3.8-.133,8.14-1.39,11.931-.555a3.115,3.115,0,0,1,2.6,3.313"/><g class="s"><path class="t" d="M456.7,367.514a82.714,82.714,0,0,1,17.845-2.848c5.994-.33,11.964.1,17.953.205a.577.577,0,0,0,.153-1.128,60.787,60.787,0,0,0-18.341-1.313,68.587,68.587,0,0,0-18.015,3.615.762.762,0,0,0,.4,1.469Z"/></g><path class="ae" d="M462.153,214.158c3.837-1.765,7.48-7.685,11.742-6.614,4.411,1.108,7.345,4.141,11.017,6.614"/><path class="ae" d="M455.877,222.158a74.153,74.153,0,0,0,20.948,2.08c5.868-.3,11.726-1.749,17.535-1.873"/><path class="ae" d="M458.153,231.883c5.8,2.586,11.94,2.132,18.2,2.068s13.233-.659,18.831-3.724"/><path class="ae" d="M468.084,242.641c7.893,3.975,19.752,1.376,27.724-1.241"/><path class="af" d="M129.621,77.2a2.727,2.727,0,0,0-2.966.382,1.9,1.9,0,0,0-.436.54c-.562-.121-1.126-.232-1.689-.355-.7-.153-1.4-.283-2.108-.4a13.793,13.793,0,0,0-.073-2.784c.055-.013.112-.02.166-.034.711-.183,1.4-.4,2.093-.642.516-.18,1.043-.341,1.569-.5a2.028,2.028,0,0,0,.572.509,1.833,1.833,0,0,0,2.747-1.756,1.921,1.921,0,0,0-3.153-1.321,1.534,1.534,0,0,0-.645,1.454c0,.018.01.035.012.052-.475.132-.95.268-1.43.378-.733.169-1.441.373-2.141.6a13.356,13.356,0,0,0-.95-2.823c.718-.695,1.443-1.38,2.153-2.083.45-.446.917-.876,1.358-1.33l.075-.075a2.145,2.145,0,0,0,2.446-.043,2.17,2.17,0,0,0-.4-3.841,1.754,1.754,0,0,0-1.866.038,2.713,2.713,0,0,0-.872,2.8c-.087.081-.176.161-.263.243-.475.444-.914.928-1.357,1.4-.608.653-1.167,1.344-1.716,2.044-.141-.245-.288-.486-.445-.715a10.452,10.452,0,0,0-2.425-2.5c.284-.4.561-.8.848-1.2s.593-.783.893-1.172a2.151,2.151,0,0,0,1.094-.093,1.891,1.891,0,0,0,.437-3.335,1.983,1.983,0,0,0-3.138,1.613,1.545,1.545,0,0,0,.529,1.307l-.835.959c-.331.381-.656.77-.968,1.168a11.683,11.683,0,0,0-2.5-1.041c.052-.213.105-.425.153-.638.161-.723.346-1.456.453-2.189.1-.7.178-1.412.267-2.117a2.121,2.121,0,0,0,1.449-3.258,2.239,2.239,0,0,0-3.969.353,1.788,1.788,0,0,0,.127,1.85,2.521,2.521,0,0,0,1.547,1.035,15.4,15.4,0,0,1-.432,2c-.185.723-.328,1.465-.473,2.2-.035.177-.066.355-.1.533a12.847,12.847,0,0,0-4.337-.145c-.061-.516-.134-1.032-.2-1.554-.066-.5-.123-1.008-.179-1.512-.021-.189-.04-.389-.063-.589a1.825,1.825,0,0,0,.337-3.186,1.921,1.921,0,0,0-3.04,1.563,1.533,1.533,0,0,0,.7,1.429,2.113,2.113,0,0,0,.683.287c.024.209.054.417.08.613q.106.784.234,1.565.123.751.265,1.5c0,.029.016.057.022.085a11.566,11.566,0,0,0-3.893,1.719c-.326-.544-.639-1.093-.93-1.661-.436-.851-.933-1.666-1.407-2.495a1.974,1.974,0,0,0-.251-3.045,2.09,2.09,0,0,0-3.308,1.7,1.67,1.67,0,0,0,.76,1.555,2.344,2.344,0,0,0,1.933.3,20,20,0,0,0,1.2,2.184c.434.663.9,1.3,1.365,1.951a10,10,0,0,0-2.092,2.307c-.463-.286-.928-.568-1.39-.855-.591-.367-1.167-.757-1.748-1.139a1.8,1.8,0,0,0-.727-1.92,1.921,1.921,0,0,0-3.041,1.563,1.536,1.536,0,0,0,.7,1.429,2.154,2.154,0,0,0,1.918.241,1.865,1.865,0,0,0,.762-.539q1.534.981,3.123,1.875a10.269,10.269,0,0,0-.8,1.808,9.423,9.423,0,0,0-.287,1.182l-.149-.016c-.6-.073-1.209-.049-1.812-.062-.873-.02-1.746-.041-2.618-.079a2.415,2.415,0,0,0-.06-.293,2.137,2.137,0,0,0-3.754-.6,2.24,2.24,0,0,0,1.726,3.592,1.789,1.789,0,0,0,1.687-.769,2.453,2.453,0,0,0,.36-.8c.84.1,1.682.172,2.529.187a14.041,14.041,0,0,0,1.812-.015l.125-.011a16.459,16.459,0,0,0,.033,3.5c-.341.075-.679.162-1.021.262a15.973,15.973,0,0,0-2.06.795,1.8,1.8,0,0,0-1.334-.814,1.921,1.921,0,0,0-1.91,2.836,1.538,1.538,0,0,0,1.3.915,2.156,2.156,0,0,0,1.8-.715,1.831,1.831,0,0,0,.439-1.1c.7-.169,1.4-.329,2.1-.511.309-.08.619-.153.929-.232a12.9,12.9,0,0,0,1.164,3.23c-.122.064-.246.123-.366.188-.491.269-.982.551-1.46.844-.663.406-1.314.833-1.968,1.256a2.262,2.262,0,0,0-3.492.895,1.79,1.79,0,0,0,.127,1.849,2.511,2.511,0,0,0,1.966,1.1,2.126,2.126,0,0,0,2.039-2.958c.654-.352,1.308-.707,1.95-1.08.485-.281.966-.582,1.435-.888.115-.076.226-.159.341-.238a10.516,10.516,0,0,0,2.532,2.682c-.223.313-.452.623-.665.945-.263.4-.552.785-.8,1.192-.027.045-.049.094-.076.139a1.828,1.828,0,0,0-2.45,1.681,1.92,1.92,0,0,0,2.978,1.678,1.534,1.534,0,0,0,.809-1.369,2.145,2.145,0,0,0-.34-1.151l.016-.016a10.892,10.892,0,0,0,.813-1c.331-.426.643-.865.948-1.308.049.027.093.058.143.084a11,11,0,0,0,2.8,1.012c-.006.038-.011.081-.017.118q-.143.815-.282,1.63c-.1.549-.213,1.1-.275,1.655-.01.085-.013.17-.02.255a2.231,2.231,0,0,0-1.418,3.544,1.789,1.789,0,0,0,1.655.833,2.515,2.515,0,0,0,1.951-1.13,2.133,2.133,0,0,0-1.138-3.186c.013-.057.03-.113.042-.17.111-.539.178-1.091.269-1.634s.182-1.088.276-1.632c.006-.033.014-.069.02-.1a11.988,11.988,0,0,0,3.853-.183l0,.06c.038.471.121.939.2,1.4a11.879,11.879,0,0,0,.358,1.44,1.817,1.817,0,0,0,.258,2.83,1.921,1.921,0,0,0,3.005-1.632,1.534,1.534,0,0,0-.73-1.412,2.176,2.176,0,0,0-1.38-.323c-.087-.4-.16-.8-.26-1.2-.1-.42-.192-.844-.305-1.263-.016-.062-.043-.119-.062-.18a12.758,12.758,0,0,0,3.306-1.56,18.056,18.056,0,0,0,1.215,1.611c.377.435.829.807,1.191,1.253l.008.01a2.341,2.341,0,0,0-.294,3.029,1.787,1.787,0,0,0,1.656.832,2.506,2.506,0,0,0,1.95-1.13,2.136,2.136,0,0,0-1.887-3.3,2.374,2.374,0,0,0-.881.217c-.33-.48-.568-1.022-.871-1.52-.352-.579-.747-1.134-1.146-1.687a12.415,12.415,0,0,0,1.727-1.667c.108-.128.2-.266.3-.4.362.241.72.486,1.1.7.522.3,1.043.6,1.562.911.022.013.043.029.066.043a1.82,1.82,0,0,0,1.51,2.479,1.921,1.921,0,0,0,1.91-2.836,1.538,1.538,0,0,0-1.3-.915,2.156,2.156,0,0,0-1.8.715c-.023.026-.033.056-.053.083-.451-.426-.907-.843-1.375-1.249-.33-.286-.695-.533-1.054-.786a10.632,10.632,0,0,0,1.284-3.785c.7.078,1.407.148,2.107.24.527.069,1.049.169,1.571.266a2.211,2.211,0,1,0,4.415.136A1.75,1.75,0,0,0,129.621,77.2Z"/><path class="ag" d="M102.773,74.533a1.954,1.954,0,0,0,1.86.8,2.778,2.778,0,0,0,1.786-1.068,4.909,4.909,0,0,0,.873-1.929,1.9,1.9,0,0,0,.023-1.06c-.409-1.171-2.51-1.7-3.532-1.09A3.613,3.613,0,0,0,102.773,74.533Z"/><path class="ag" d="M110.646,68.594a1.692,1.692,0,0,0,1.569-.6,1.175,1.175,0,0,0-.16-1.58,1.934,1.934,0,0,0-.6-.268C109.239,65.45,108.381,68.307,110.646,68.594Z"/><path class="ag" d="M113.093,79.743a2.653,2.653,0,0,0,1.765-.789,2.57,2.57,0,0,0,.441-.894,2.094,2.094,0,0,0-.042-1.67c-.827-1.393-3.67-2.026-4.655-.507A2.567,2.567,0,0,0,113.093,79.743Z"/><path class="ag" d="M116.749,73.584a1.846,1.846,0,0,0,2.277-.693,3.008,3.008,0,0,0,.312-.819,1.511,1.511,0,0,0,.065-.621,1.208,1.208,0,0,0-.47-.71,2.172,2.172,0,0,0-1.722-.437A1.725,1.725,0,0,0,116.749,73.584Z"/><path class="ag" d="M103.654,80.945a3.625,3.625,0,0,0,.08,1.6,2.078,2.078,0,0,0,3.337,1.372,3.164,3.164,0,0,0,1.094-.808,1.781,1.781,0,0,0,.432-1.265,2.389,2.389,0,0,0-.626-1.267,6.625,6.625,0,0,0-1.135-1.072,2.484,2.484,0,0,0-1.278-.559C104.624,78.883,103.819,80.134,103.654,80.945Z"/><path class="ag" d="M116.065,82.383a1.731,1.731,0,0,0,.192.779,1.519,1.519,0,0,0,1.676.623,2.8,2.8,0,0,0,1.508-1.128,1.707,1.707,0,0,0-1.308-2.709C116.9,79.824,116.02,81.3,116.065,82.383Z"/><path class="af" d="M495.972,97.012a2.729,2.729,0,0,0-2.852-.9,1.917,1.917,0,0,0-.622.308c-.46-.346-.926-.684-1.384-1.031-.572-.433-1.155-.846-1.746-1.248a13.827,13.827,0,0,0,1.1-2.557c.056.011.11.028.165.038.723.132,1.438.225,2.169.3.544.053,1.09.128,1.636.2a2.012,2.012,0,0,0,.3.7,1.833,1.833,0,0,0,3.23-.441,1.921,1.921,0,0,0-2.307-2.523,1.535,1.535,0,0,0-1.2,1.05c-.006.017-.006.036-.011.053-.487-.081-.975-.157-1.457-.258-.736-.154-1.465-.266-2.2-.352a13.419,13.419,0,0,0,.323-2.962c.942-.329,1.889-.646,2.828-.987.6-.215,1.2-.409,1.791-.636l.1-.038a2.147,2.147,0,0,0,2.238.989,2.171,2.171,0,0,0,1.253-3.654,1.752,1.752,0,0,0-1.71-.748,2.713,2.713,0,0,0-1.967,2.178c-.113.036-.227.072-.341.11-.617.2-1.219.458-1.821.7-.825.337-1.622.73-2.415,1.135-.025-.282-.057-.562-.1-.836a10.473,10.473,0,0,0-1.154-3.284c.425-.243.846-.494,1.274-.734s.867-.461,1.3-.689a2.14,2.14,0,0,0,1.032.375,1.891,1.891,0,0,0,1.8-2.844,1.982,1.982,0,0,0-3.524.148,1.545,1.545,0,0,0-.07,1.408l-1.159.52c-.461.207-.919.423-1.369.654a11.725,11.725,0,0,0-1.834-2c.136-.171.273-.342.406-.515.45-.589.925-1.176,1.33-1.8.388-.6.754-1.207,1.131-1.809a2.121,2.121,0,0,0,2.682-2.349,2.239,2.239,0,0,0-3.751-1.345,1.79,1.79,0,0,0-.661,1.731,2.522,2.522,0,0,0,.971,1.59,15.6,15.6,0,0,1-1.232,1.634c-.471.578-.913,1.192-1.351,1.795-.107.146-.21.3-.315.442a12.812,12.812,0,0,0-3.875-1.951c.161-.5.311-.994.468-1.5.151-.485.312-.966.472-1.448.061-.18.127-.369.191-.561a1.825,1.825,0,0,0,1.643-2.75,1.921,1.921,0,0,0-3.416.143,1.533,1.533,0,0,0,.034,1.59,2.091,2.091,0,0,0,.5.547c-.067.2-.127.4-.185.59q-.232.756-.444,1.518-.205.735-.39,1.473c-.007.029-.009.058-.015.087a11.578,11.578,0,0,0-4.255-.074c-.068-.63-.121-1.26-.147-1.9-.039-.956-.148-1.9-.23-2.854a1.976,1.976,0,0,0,1.05-2.87,2.091,2.091,0,0,0-3.717.156,1.666,1.666,0,0,0,.038,1.729,2.34,2.34,0,0,0,1.63,1.082,20.034,20.034,0,0,0,.168,2.484c.116.784.274,1.564.42,2.344a9.983,9.983,0,0,0-2.867,1.216c-.3-.454-.6-.9-.9-1.36-.382-.581-.741-1.176-1.108-1.767a1.8,1.8,0,0,0,.146-2.048,1.921,1.921,0,0,0-3.416.143,1.535,1.535,0,0,0,.034,1.59,2.153,2.153,0,0,0,1.641,1.023,1.85,1.85,0,0,0,.917-.169q.981,1.535,2.048,3.012a10.279,10.279,0,0,0-1.485,1.306,9.377,9.377,0,0,0-.757.952c-.049-.029-.094-.055-.129-.077-.513-.318-1.076-.551-1.618-.817-.784-.384-1.567-.77-2.344-1.17a2.089,2.089,0,0,0,.069-.291,2.137,2.137,0,0,0-3.157-2.115,2.239,2.239,0,0,0,.059,3.985,1.79,1.79,0,0,0,1.854.01,2.456,2.456,0,0,0,.663-.577c.722.441,1.454.862,2.217,1.232a14.048,14.048,0,0,0,1.651.746l.118.042a16.467,16.467,0,0,0-1.437,3.186c-.341-.074-.685-.137-1.036-.189a16.168,16.168,0,0,0-2.2-.145,1.8,1.8,0,0,0-.869-1.3,1.921,1.921,0,0,0-2.924,1.772,1.533,1.533,0,0,0,.8,1.376,2.156,2.156,0,0,0,1.931.106,1.837,1.837,0,0,0,.858-.811c.706.14,1.41.289,2.119.416.314.057.627.121.941.179a12.848,12.848,0,0,0-.3,3.421c-.137.007-.275.007-.411.017-.559.038-1.123.088-1.679.153-.773.09-1.543.2-2.314.314a2.263,2.263,0,0,0-3.545-.653,1.79,1.79,0,0,0-.661,1.731,2.513,2.513,0,0,0,1.322,1.826,2.126,2.126,0,0,0,3.092-1.829c.742-.046,1.484-.093,2.224-.162.557-.052,1.12-.123,1.674-.205.137-.02.273-.049.41-.072a10.505,10.505,0,0,0,1.173,3.5c-.335.191-.673.376-1,.579-.407.251-.831.481-1.229.745-.044.029-.085.064-.128.094a1.828,1.828,0,0,0-2.93.5,1.921,1.921,0,0,0,2,2.773,1.533,1.533,0,0,0,1.308-.9,2.139,2.139,0,0,0,.175-1.187l.022-.008A10.86,10.86,0,0,0,468.6,95.9c.479-.248.946-.516,1.41-.789.033.045.06.091.094.136a10.964,10.964,0,0,0,2.115,2.092c-.022.032-.044.069-.066.1q-.471.68-.94,1.361c-.316.459-.655.911-.944,1.387-.044.073-.083.149-.125.222a2.233,2.233,0,0,0-2.775,2.622,1.788,1.788,0,0,0,1.153,1.451,2.512,2.512,0,0,0,2.245-.207,2.132,2.132,0,0,0,.3-3.369c.036-.047.075-.09.11-.137.327-.442.619-.915.929-1.37s.623-.911.936-1.365c.019-.028.041-.057.062-.086A12,12,0,0,0,476.68,99.4l-.021.056c-.163.443-.285.9-.4,1.359a11.781,11.781,0,0,0-.28,1.458,1.816,1.816,0,0,0-.953,2.677,1.921,1.921,0,0,0,3.412-.22,1.536,1.536,0,0,0-.07-1.589,2.175,2.175,0,0,0-1.117-.872c.088-.4.191-.8.267-1.2.081-.426.18-.847.254-1.274.011-.064.011-.127.019-.19a12.727,12.727,0,0,0,3.656-.029,17.9,17.9,0,0,0,.426,1.972c.16.553.413,1.081.555,1.637l0,.013a2.339,2.339,0,0,0-1.537,2.626,1.788,1.788,0,0,0,1.153,1.451,2.515,2.515,0,0,0,2.245-.207,2.137,2.137,0,0,0-.329-3.786,2.359,2.359,0,0,0-.891-.173c-.1-.574-.087-1.166-.153-1.745-.077-.673-.2-1.343-.332-2.013a12.389,12.389,0,0,0,2.268-.788c.151-.071.293-.157.44-.236.227.37.449.743.7,1.1.347.493.694.987,1.035,1.483.015.022.027.045.042.067a1.82,1.82,0,0,0,.331,2.884,1.921,1.921,0,0,0,2.923-1.773,1.534,1.534,0,0,0-.8-1.376,2.152,2.152,0,0,0-1.931-.1c-.031.014-.053.037-.083.053-.23-.576-.469-1.146-.724-1.711-.179-.4-.407-.776-.626-1.156a10.631,10.631,0,0,0,2.754-2.9c.605.366,1.215.725,1.812,1.1.448.283.881.593,1.313.9a2.211,2.211,0,1,0,3.951,1.976A1.754,1.754,0,0,0,495.972,97.012Z"/><path class="ag" d="M472.724,83.322a1.955,1.955,0,0,0,1.351,1.509,2.776,2.776,0,0,0,2.069-.22,4.9,4.9,0,0,0,1.6-1.385,1.889,1.889,0,0,0,.466-.952c.12-1.234-1.564-2.6-2.748-2.472A3.612,3.612,0,0,0,472.724,83.322Z"/><path class="ag" d="M482.362,81.236a1.692,1.692,0,0,0,1.674.117,1.176,1.176,0,0,0,.519-1.5,1.936,1.936,0,0,0-.431-.495C482.4,77.792,480.427,80.026,482.362,81.236Z"/><path class="ag" d="M479.9,92.383a2.651,2.651,0,0,0,1.933.024,2.55,2.55,0,0,0,.776-.626,2.093,2.093,0,0,0,.663-1.534c-.165-1.611-2.481-3.379-4.012-2.414A2.568,2.568,0,0,0,479.9,92.383Z"/><path class="ag" d="M485.807,88.326a1.845,1.845,0,0,0,2.358.327,3.031,3.031,0,0,0,.627-.612,1.517,1.517,0,0,0,.319-.537,1.206,1.206,0,0,0-.128-.841,2.175,2.175,0,0,0-1.38-1.12A1.725,1.725,0,0,0,485.807,88.326Z"/><path class="ag" d="M470.832,89.512a3.63,3.63,0,0,0-.6,1.483,2.078,2.078,0,0,0,2.454,2.646,3.179,3.179,0,0,0,1.332-.274,1.777,1.777,0,0,0,.922-.967,2.382,2.382,0,0,0-.036-1.412,6.636,6.636,0,0,0-.58-1.45,2.477,2.477,0,0,0-.926-1.044C472.577,88.048,471.322,88.845,470.832,89.512Z"/><path class="ag" d="M481.493,96.026a1.745,1.745,0,0,0-.152.787,1.516,1.516,0,0,0,1.26,1.269,2.788,2.788,0,0,0,1.842-.391,1.707,1.707,0,0,0-.051-3.007C483.323,94.053,481.908,95.022,481.493,96.026Z"/><path class="af" d="M706.255,162.6a1.754,1.754,0,0,0-1.908.234,1.225,1.225,0,0,0-.282.346c-.362-.08-.724-.154-1.085-.235-.45-.1-.9-.187-1.354-.265a8.93,8.93,0,0,0-.036-1.79c.035-.008.072-.013.107-.022.458-.115.9-.251,1.347-.4.333-.114.673-.215,1.012-.318a1.3,1.3,0,0,0,.365.329,1.178,1.178,0,0,0,1.773-1.118,1.235,1.235,0,0,0-2.022-.862.987.987,0,0,0-.42.933c0,.011.006.022.008.033-.307.083-.612.169-.922.238-.471.1-.927.234-1.379.379a8.575,8.575,0,0,0-.6-1.82c.464-.443.933-.881,1.392-1.33.291-.285.593-.56.879-.85l.048-.048a1.38,1.38,0,0,0,1.573-.018,1.4,1.4,0,0,0-.24-2.471,1.126,1.126,0,0,0-1.2.017,1.742,1.742,0,0,0-.571,1.8l-.17.155c-.307.284-.592.593-.879.9-.393.417-.755.86-1.111,1.308-.089-.159-.183-.314-.283-.462a6.711,6.711,0,0,0-1.55-1.614c.185-.256.364-.515.55-.769s.385-.5.579-.75a1.38,1.38,0,0,0,.7-.055,1.216,1.216,0,0,0,.293-2.143,1.274,1.274,0,0,0-2.023,1.025,1,1,0,0,0,.335.843l-.54.613c-.215.244-.425.492-.627.747a7.554,7.554,0,0,0-1.6-.679c.034-.136.069-.273.1-.41.106-.464.228-.934.3-1.4.069-.452.121-.907.181-1.36a1.364,1.364,0,0,0,.944-2.089,1.44,1.44,0,0,0-2.554.211,1.15,1.15,0,0,0,.075,1.19,1.62,1.62,0,0,0,.991.672,10.053,10.053,0,0,1-.286,1.284c-.121.464-.216.941-.313,1.41-.023.114-.044.229-.066.343a8.242,8.242,0,0,0-2.788-.11c-.037-.332-.082-.664-.124-1s-.075-.648-.109-.973c-.013-.122-.024-.25-.038-.379a1.173,1.173,0,0,0,.229-2.047,1.235,1.235,0,0,0-1.961.993.988.988,0,0,0,.444.922,1.358,1.358,0,0,0,.438.187c.014.135.032.268.049.394q.066.5.144,1.007.076.484.164.966c0,.018.011.036.015.055a7.443,7.443,0,0,0-2.51,1.089c-.208-.35-.407-.705-.592-1.071-.277-.549-.593-1.074-.895-1.609a1.27,1.27,0,0,0-.149-1.959,1.344,1.344,0,0,0-2.134,1.081,1.074,1.074,0,0,0,.483,1,1.506,1.506,0,0,0,1.242.2,12.923,12.923,0,0,0,.76,1.409c.277.428.577.842.87,1.259a6.454,6.454,0,0,0-1.354,1.476c-.3-.186-.594-.369-.89-.556-.379-.238-.748-.491-1.12-.739a1.154,1.154,0,0,0-.46-1.237,1.235,1.235,0,0,0-1.961.993.988.988,0,0,0,.444.922,1.387,1.387,0,0,0,1.233.162,1.182,1.182,0,0,0,.491-.344q.984.638,2,1.218a6.564,6.564,0,0,0-.521,1.16,5.955,5.955,0,0,0-.19.758l-.1-.01a11.607,11.607,0,0,0-1.165-.048c-.561-.016-1.122-.033-1.683-.06a1.515,1.515,0,0,0-.037-.189,1.374,1.374,0,0,0-2.411-.4,1.439,1.439,0,0,0,1.095,2.316,1.148,1.148,0,0,0,1.088-.488,1.563,1.563,0,0,0,.234-.514c.54.066,1.081.118,1.626.131a9.057,9.057,0,0,0,1.165,0l.08-.007a10.613,10.613,0,0,0,.008,2.247c-.22.048-.438.1-.657.165a10.253,10.253,0,0,0-1.328.5,1.157,1.157,0,0,0-.855-.528,1.235,1.235,0,0,0-1.238,1.816.987.987,0,0,0,.832.593,1.391,1.391,0,0,0,1.159-.452,1.184,1.184,0,0,0,.286-.7c.45-.106.9-.206,1.351-.321.2-.05.4-.1.6-.145a8.256,8.256,0,0,0,.736,2.081c-.079.041-.159.078-.236.119-.317.172-.634.351-.942.537-.428.259-.848.531-1.27.8a1.456,1.456,0,0,0-2.249.562,1.148,1.148,0,0,0,.075,1.189,1.615,1.615,0,0,0,1.259.717,1.366,1.366,0,0,0,1.322-1.894c.423-.224.845-.45,1.259-.687.312-.179.623-.37.925-.566.075-.048.147-.1.221-.151a6.76,6.76,0,0,0,1.617,1.734c-.144.2-.293.4-.431.6-.171.255-.358.5-.521.763-.017.029-.032.06-.049.089a1.176,1.176,0,0,0-1.582,1.072,1.235,1.235,0,0,0,1.909,1.09.987.987,0,0,0,.525-.877,1.382,1.382,0,0,0-.214-.742l.01-.01a7.2,7.2,0,0,0,.527-.64c.214-.273.416-.554.614-.837.032.017.06.037.092.054a7.034,7.034,0,0,0,1.794.661c0,.025-.007.052-.011.076q-.1.523-.188,1.047c-.063.353-.141.707-.183,1.063-.007.055-.009.109-.014.164a1.435,1.435,0,0,0-.926,2.273,1.15,1.15,0,0,0,1.062.542,1.614,1.614,0,0,0,1.258-.719,1.372,1.372,0,0,0-.719-2.053c.008-.036.02-.072.027-.109.074-.346.119-.7.18-1.049s.121-.7.183-1.048c0-.022.01-.045.014-.067a7.7,7.7,0,0,0,2.478-.1l0,.038c.023.3.074.6.126.9a7.55,7.55,0,0,0,.224.927,1.169,1.169,0,0,0,.155,1.821,1.235,1.235,0,0,0,1.938-1.038.987.987,0,0,0-.464-.911,1.4,1.4,0,0,0-.886-.213c-.054-.257-.1-.516-.162-.772-.066-.271-.121-.544-.191-.813-.011-.04-.028-.077-.04-.116a8.223,8.223,0,0,0,2.132-.991,11.622,11.622,0,0,0,.775,1.041c.241.281.53.522.76.81l.006.006a1.506,1.506,0,0,0-.2,1.947,1.152,1.152,0,0,0,1.062.542,1.616,1.616,0,0,0,1.258-.72,1.373,1.373,0,0,0-1.2-2.127,1.506,1.506,0,0,0-.567.136c-.21-.31-.361-.659-.554-.981-.224-.373-.476-.732-.731-1.089a7.866,7.866,0,0,0,1.117-1.066c.07-.081.131-.169.2-.255.232.157.461.316.7.456q.5.294,1,.592l.043.028a1.17,1.17,0,0,0,.961,1.6,1.235,1.235,0,0,0,1.239-1.816.986.986,0,0,0-.833-.593,1.386,1.386,0,0,0-1.158.452c-.015.017-.021.036-.035.054-.288-.276-.579-.546-.879-.809a8.439,8.439,0,0,0-.674-.509,6.833,6.833,0,0,0,.84-2.429c.452.053.9.1,1.354.163.338.046.673.112,1.009.177a1.422,1.422,0,1,0,2.838.105A1.129,1.129,0,0,0,706.255,162.6Z"/><path class="ag" d="M689,160.78a1.258,1.258,0,0,0,1.193.524,1.79,1.79,0,0,0,1.152-.68,3.155,3.155,0,0,0,.569-1.238,1.216,1.216,0,0,0,.019-.681,1.781,1.781,0,0,0-2.267-.714A2.321,2.321,0,0,0,689,160.78Z"/><path class="ag" d="M694.089,156.993a1.089,1.089,0,0,0,1.011-.378.756.756,0,0,0-.1-1.016,1.211,1.211,0,0,0-.383-.175C693.2,154.966,692.634,156.8,694.089,156.993Z"/><path class="ag" d="M695.619,164.17a1.7,1.7,0,0,0,1.137-.5,1.646,1.646,0,0,0,.288-.573,1.35,1.35,0,0,0-.021-1.075c-.526-.9-2.352-1.316-2.991-.343A1.65,1.65,0,0,0,695.619,164.17Z"/><path class="ag" d="M697.993,160.224a1.186,1.186,0,0,0,1.467-.436,1.961,1.961,0,0,0,.2-.525.992.992,0,0,0,.044-.4.783.783,0,0,0-.3-.458,1.4,1.4,0,0,0-1.106-.288A1.109,1.109,0,0,0,697.993,160.224Z"/><path class="ag" d="M689.546,164.907a2.311,2.311,0,0,0,.045,1.026,1.335,1.335,0,0,0,2.14.9,2.047,2.047,0,0,0,.707-.516,1.143,1.143,0,0,0,.282-.811,1.533,1.533,0,0,0-.4-.817,4.3,4.3,0,0,0-.726-.694,1.593,1.593,0,0,0-.82-.364C690.177,163.585,689.655,164.386,689.546,164.907Z"/><path class="ag" d="M697.52,165.879a1.111,1.111,0,0,0,.12.5.977.977,0,0,0,1.075.408,1.8,1.8,0,0,0,.974-.72,1.1,1.1,0,0,0-.831-1.746C698.064,164.237,697.494,165.181,697.52,165.879Z"/><path class="af" d="M359.249,43.158a2.187,2.187,0,0,0-1,2.18,1.517,1.517,0,0,0,.182.526c-.32.331-.636.668-.958,1-.4.412-.787.835-1.166,1.265A11.1,11.1,0,0,0,354.385,47c.014-.043.033-.085.047-.128.177-.561.321-1.121.451-1.695.1-.428.211-.855.322-1.282a1.618,1.618,0,0,0,.589-.173,1.47,1.47,0,0,0-.029-2.614,1.54,1.54,0,0,0-2.237,1.585,1.231,1.231,0,0,0,.716,1.055c.013.006.028.008.041.014-.112.379-.221.76-.35,1.134-.2.569-.357,1.138-.5,1.712a10.751,10.751,0,0,0-2.324-.552c-.169-.782-.327-1.567-.5-2.348-.113-.495-.207-.995-.329-1.488l-.02-.083a1.72,1.72,0,0,0,1.009-1.682,1.74,1.74,0,0,0-2.782-1.36,1.4,1.4,0,0,0-.765,1.285,2.173,2.173,0,0,0,1.537,1.782c.018.094.035.188.053.282.1.512.244,1.016.38,1.519.186.69.419,1.364.663,2.035-.228-.009-.453-.011-.676,0a8.4,8.4,0,0,0-2.727.591c-.151-.362-.309-.722-.458-1.086s-.28-.736-.418-1.1a1.733,1.733,0,0,0,.4-.784,1.517,1.517,0,0,0-2.085-1.712,1.59,1.59,0,0,0-.233,2.819,1.237,1.237,0,0,0,1.114.195q.15.488.3.975c.119.387.246.773.384,1.154a9.358,9.358,0,0,0-1.769,1.261c-.123-.126-.244-.252-.369-.375-.424-.416-.844-.853-1.3-1.236-.435-.368-.885-.721-1.327-1.08a1.7,1.7,0,0,0-1.6-2.368,1.8,1.8,0,0,0-1.443,2.851,1.434,1.434,0,0,0,1.312.7,2.021,2.021,0,0,0,1.361-.614A12.308,12.308,0,0,1,342,47.319c.414.432.858.845,1.294,1.254.106.1.214.2.321.294a10.272,10.272,0,0,0-1.938,2.89c-.378-.178-.759-.347-1.143-.522s-.738-.344-1.106-.52c-.137-.065-.281-.137-.427-.207a1.463,1.463,0,0,0-2.025-1.58,1.54,1.54,0,0,0-.226,2.732,1.232,1.232,0,0,0,1.269.13,1.655,1.655,0,0,0,.485-.343c.152.073.306.141.451.206q.579.26,1.164.5.563.235,1.133.457c.022.008.045.012.067.021a9.273,9.273,0,0,0-.482,3.377c-.508-.008-1.014-.029-1.525-.071-.763-.064-1.528-.072-2.293-.1a1.584,1.584,0,0,0-2.179-1.121,1.676,1.676,0,0,0-.246,2.972,1.337,1.337,0,0,0,1.38.143,1.883,1.883,0,0,0,1.023-1.189,16,16,0,0,0,1.993.112c.635-.014,1.271-.062,1.906-.1a8.037,8.037,0,0,0,.683,2.4c-.391.194-.78.391-1.172.583-.5.247-1.009.474-1.516.706a1.442,1.442,0,0,0-1.615-.319,1.54,1.54,0,0,0-.226,2.732,1.234,1.234,0,0,0,1.269.131,1.73,1.73,0,0,0,.977-1.2,1.494,1.494,0,0,0-.043-.747q1.318-.627,2.6-1.329a8.206,8.206,0,0,0,.892,1.311,7.594,7.594,0,0,0,.681.7l-.073.1c-.3.377-.546.8-.812,1.206-.383.585-.768,1.171-1.163,1.748a1.69,1.69,0,0,0-.225-.083,1.713,1.713,0,0,0-2,2.3,1.8,1.8,0,0,0,3.176.349,1.433,1.433,0,0,0,.192-1.473,1.924,1.924,0,0,0-.393-.585c.423-.531.831-1.071,1.2-1.642a11.159,11.159,0,0,0,.758-1.239c.012-.025.029-.057.045-.09a13.236,13.236,0,0,0,2.392,1.46c-.093.264-.177.531-.254.806a12.8,12.8,0,0,0-.333,1.739,1.442,1.442,0,0,0-1.119.562,1.541,1.541,0,0,0,1.119,2.5,1.232,1.232,0,0,0,1.174-.5,1.725,1.725,0,0,0,.276-1.526,1.469,1.469,0,0,0-.56-.764c.182-.548.37-1.093.542-1.644.076-.245.158-.487.236-.731a10.313,10.313,0,0,0,2.692.578c-.008.11-.021.22-.027.328-.025.449-.042.9-.046,1.352-.005.624.01,1.248.02,1.872A1.814,1.814,0,0,0,349.372,71a1.432,1.432,0,0,0,1.312.7,2.011,2.011,0,0,0,1.584-.87,1.7,1.7,0,0,0-1.148-2.641c.038-.595.074-1.191.092-1.786.014-.449.014-.9,0-1.353,0-.11-.012-.221-.017-.333a8.409,8.409,0,0,0,2.9-.585c.119.285.233.572.361.853.16.349.3.709.471,1.052.019.038.043.074.062.111a1.465,1.465,0,0,0,.1,2.38A1.54,1.54,0,0,0,357.5,67.21a1.229,1.229,0,0,0-.589-1.13,1.716,1.716,0,0,0-.927-.258l0-.017a8.741,8.741,0,0,0-.336-.978c-.15-.406-.316-.8-.488-1.2.039-.022.079-.039.118-.061a8.8,8.8,0,0,0,1.874-1.475c.024.021.051.042.073.062q.494.444.99.884c.334.3.659.612,1.01.889.053.042.11.081.164.122a1.79,1.79,0,0,0,1.81,2.468,1.434,1.434,0,0,0,1.269-.774,2.011,2.011,0,0,0,.058-1.806,1.71,1.71,0,0,0-2.65-.577c-.033-.033-.064-.069-.1-.1-.319-.3-.667-.584-1-.876s-.663-.586-.994-.88c-.02-.018-.041-.039-.061-.058a9.6,9.6,0,0,0,1.509-2.7l.043.022c.336.174.689.317,1.041.458a9.566,9.566,0,0,0,1.132.367,1.457,1.457,0,0,0,2.035,1.025,1.541,1.541,0,0,0,.164-2.737,1.23,1.23,0,0,0-1.271-.1,1.743,1.743,0,0,0-.805.8c-.308-.11-.613-.231-.926-.332-.331-.106-.657-.227-.989-.329-.049-.014-.1-.021-.149-.033a10.291,10.291,0,0,0,.341-2.912,14.583,14.583,0,0,0,1.611-.143c.456-.072.9-.221,1.358-.279h.01a1.876,1.876,0,0,0,1.936,1.484,1.43,1.43,0,0,0,1.269-.773,2.011,2.011,0,0,0,.059-1.806,1.713,1.713,0,0,0-3.045-.115,1.885,1.885,0,0,0-.226.692c-.467.02-.936-.047-1.4-.053-.543-.006-1.089.027-1.634.064a9.882,9.882,0,0,0-.4-1.882c-.041-.127-.1-.249-.144-.374.317-.143.636-.283.943-.447.426-.227.853-.454,1.282-.676.019-.01.039-.017.058-.027a1.46,1.46,0,0,0,2.328.024,1.54,1.54,0,0,0-1.12-2.5,1.232,1.232,0,0,0-1.175.5,1.727,1.727,0,0,0-.275,1.526c.008.026.024.046.033.071-.48.126-.958.26-1.433.406-.334.1-.657.247-.982.384a8.519,8.519,0,0,0-2.03-2.48c.351-.445.7-.894,1.057-1.332.27-.328.559-.642.848-.955a1.773,1.773,0,1,0,1.965-2.947A1.407,1.407,0,0,0,359.249,43.158Z"/><path class="ag" d="M346.046,60.294a1.568,1.568,0,0,0,1.334-.925,2.23,2.23,0,0,0,.031-1.669,3.931,3.931,0,0,0-.943-1.412,1.512,1.512,0,0,0-.711-.466c-.97-.217-2.223.986-2.24,1.942A2.9,2.9,0,0,0,346.046,60.294Z"/><path class="ag" d="M345.344,52.418a1.358,1.358,0,0,0,.26-1.321.943.943,0,0,0-1.143-.561,1.517,1.517,0,0,0-.437.293C342.608,52.042,344.189,53.837,345.344,52.418Z"/><path class="ag" d="M353.968,55.482a2.123,2.123,0,0,0,.212-1.535,2.072,2.072,0,0,0-.421-.68,1.681,1.681,0,0,0-1.155-.68c-1.3-.028-2.935,1.638-2.319,2.952A2.058,2.058,0,0,0,353.968,55.482Z"/><path class="ag" d="M351.328,50.382a1.481,1.481,0,0,0,.494-1.844,2.419,2.419,0,0,0-.424-.559,1.219,1.219,0,0,0-.4-.308.967.967,0,0,0-.682.019,1.742,1.742,0,0,0-1.028.986A1.383,1.383,0,0,0,351.328,50.382Z"/><path class="ag" d="M350.783,62.414a2.9,2.9,0,0,0,1.12.623,1.666,1.666,0,0,0,2.349-1.689,2.542,2.542,0,0,0-.086-1.087,1.429,1.429,0,0,0-.677-.83,1.917,1.917,0,0,0-1.128-.112,5.352,5.352,0,0,0-1.211.318,1.981,1.981,0,0,0-.922.633C349.791,60.88,350.3,61.958,350.783,62.414Z"/><path class="ag" d="M357.025,54.579a1.384,1.384,0,0,0,.611.2,1.216,1.216,0,0,0,1.135-.876,2.24,2.24,0,0,0-.128-1.505,1.368,1.368,0,0,0-2.4-.258C355.637,52.928,356.267,54.15,357.025,54.579Z"/><path class="af" d="M670.589,66.207a2.05,2.05,0,0,0-2.229.274,1.42,1.42,0,0,0-.329.4c-.422-.093-.846-.18-1.267-.275-.526-.117-1.053-.218-1.582-.309a10.381,10.381,0,0,0-.042-2.092c.041-.009.084-.015.125-.025.534-.134,1.052-.294,1.574-.473.389-.133.785-.251,1.181-.371a1.508,1.508,0,0,0,.427.385,1.377,1.377,0,0,0,2.072-1.306,1.443,1.443,0,0,0-2.363-1.007,1.152,1.152,0,0,0-.49,1.089c0,.013.007.026.008.04-.358.1-.715.2-1.076.277-.551.123-1.084.273-1.611.442a10.068,10.068,0,0,0-.7-2.125c.542-.518,1.09-1.03,1.626-1.554.34-.333.693-.654,1.026-.993l.056-.056a1.614,1.614,0,0,0,1.838-.021,1.631,1.631,0,0,0-.28-2.888,1.319,1.319,0,0,0-1.4.021,2.037,2.037,0,0,0-.667,2.1l-.2.181c-.358.331-.691.693-1.026,1.048-.459.487-.882,1-1.3,1.527-.1-.185-.214-.366-.33-.539a7.857,7.857,0,0,0-1.811-1.886c.215-.3.425-.6.642-.9s.45-.585.676-.877a1.6,1.6,0,0,0,.822-.064,1.42,1.42,0,0,0,.344-2.5,1.489,1.489,0,0,0-2.364,1.2,1.157,1.157,0,0,0,.391.984l-.631.717c-.251.285-.5.575-.733.873a8.807,8.807,0,0,0-1.874-.794c.04-.159.081-.318.117-.478.125-.543.267-1.092.35-1.642.08-.528.141-1.06.211-1.589a1.592,1.592,0,0,0,1.1-2.44,1.682,1.682,0,0,0-2.983.247,1.341,1.341,0,0,0,.087,1.389,1.889,1.889,0,0,0,1.158.785,11.659,11.659,0,0,1-.334,1.5c-.142.542-.253,1.1-.365,1.648-.028.133-.052.267-.078.4A9.662,9.662,0,0,0,655.1,56.4c-.043-.388-.1-.776-.145-1.168s-.087-.758-.127-1.137c-.015-.142-.028-.292-.045-.443a1.371,1.371,0,0,0,.268-2.391,1.443,1.443,0,0,0-2.291,1.161,1.154,1.154,0,0,0,.518,1.076,1.548,1.548,0,0,0,.512.218c.017.158.038.314.057.461q.077.59.169,1.176.089.566.192,1.129c0,.021.012.042.016.064a8.7,8.7,0,0,0-2.932,1.273c-.242-.41-.474-.824-.691-1.252-.324-.641-.693-1.255-1.045-1.88a1.483,1.483,0,0,0-.175-2.288,1.57,1.57,0,0,0-2.492,1.262,1.252,1.252,0,0,0,.563,1.171,1.763,1.763,0,0,0,1.451.233,14.909,14.909,0,0,0,.889,1.646c.323.5.673.983,1.016,1.471a7.533,7.533,0,0,0-1.582,1.724c-.346-.218-.694-.431-1.04-.649-.442-.279-.873-.574-1.308-.864a1.35,1.35,0,0,0-.537-1.445,1.443,1.443,0,0,0-2.291,1.161,1.151,1.151,0,0,0,.518,1.076,1.617,1.617,0,0,0,1.44.189,1.391,1.391,0,0,0,.574-.4q1.149.744,2.338,1.422a7.645,7.645,0,0,0-.609,1.355,6.963,6.963,0,0,0-.221.886l-.112-.012c-.45-.058-.908-.042-1.361-.055-.655-.019-1.311-.039-1.966-.071a1.828,1.828,0,0,0-.044-.22,1.6,1.6,0,0,0-2.816-.464,1.682,1.682,0,0,0,1.28,2.706,1.343,1.343,0,0,0,1.27-.57,1.838,1.838,0,0,0,.274-.6c.631.077,1.263.138,1.9.153a10.842,10.842,0,0,0,1.361,0l.094-.008a12.384,12.384,0,0,0,.009,2.625c-.257.055-.511.119-.768.192a11.983,11.983,0,0,0-1.551.588,1.349,1.349,0,0,0-1-.617,1.443,1.443,0,0,0-1.448,2.121,1.152,1.152,0,0,0,.973.693,1.619,1.619,0,0,0,1.353-.528,1.379,1.379,0,0,0,.335-.822c.526-.124,1.054-.241,1.578-.375.232-.059.466-.113.7-.17a9.677,9.677,0,0,0,.86,2.432c-.092.047-.186.09-.276.139-.37.2-.74.409-1.1.627-.5.3-.991.62-1.484.934a1.7,1.7,0,0,0-2.627.657,1.342,1.342,0,0,0,.087,1.389,1.884,1.884,0,0,0,1.472.837A1.6,1.6,0,0,0,646.629,72c.493-.262.986-.526,1.47-.8.365-.209.728-.432,1.081-.661.088-.056.171-.118.258-.177a7.872,7.872,0,0,0,1.89,2.026c-.169.235-.343.467-.5.707-.2.3-.418.588-.608.892-.021.034-.038.07-.058.1a1.373,1.373,0,0,0-1.848,1.252,1.443,1.443,0,0,0,2.229,1.274,1.153,1.153,0,0,0,.614-1.025,1.618,1.618,0,0,0-.25-.867l.012-.011a8.312,8.312,0,0,0,.615-.748c.251-.319.487-.647.718-.978.037.02.07.043.107.063a8.21,8.21,0,0,0,2.1.772c-.005.029-.009.062-.014.089q-.111.612-.22,1.223c-.073.412-.164.827-.213,1.243-.008.063-.011.127-.017.19a1.677,1.677,0,0,0-1.081,2.656,1.344,1.344,0,0,0,1.24.633,1.884,1.884,0,0,0,1.47-.84,1.6,1.6,0,0,0-.84-2.4c.01-.043.023-.085.032-.128.086-.4.139-.818.21-1.225s.142-.817.214-1.225c.005-.025.011-.052.016-.078a8.993,8.993,0,0,0,2.895-.12l0,.045c.026.354.086.706.146,1.055a9.056,9.056,0,0,0,.262,1.084,1.364,1.364,0,0,0,.182,2.126A1.442,1.442,0,0,0,661,76.943a1.154,1.154,0,0,0-.543-1.065,1.625,1.625,0,0,0-1.035-.248c-.063-.3-.116-.6-.189-.9-.077-.316-.141-.635-.223-.95-.013-.046-.032-.09-.046-.135a9.609,9.609,0,0,0,2.49-1.157,13.626,13.626,0,0,0,.9,1.215c.281.329.619.611.889.947l.006.007a1.758,1.758,0,0,0-.234,2.274,1.343,1.343,0,0,0,1.24.633,1.886,1.886,0,0,0,1.47-.84,1.605,1.605,0,0,0-1.4-2.486,1.786,1.786,0,0,0-.663.159c-.246-.362-.422-.77-.647-1.146-.262-.436-.556-.855-.853-1.272a9.294,9.294,0,0,0,1.3-1.245c.081-.1.152-.2.227-.3.27.183.539.369.819.533.391.229.781.458,1.169.691.018.011.033.023.05.033a1.368,1.368,0,0,0,1.124,1.869,1.443,1.443,0,0,0,1.446-2.122,1.151,1.151,0,0,0-.973-.692,1.614,1.614,0,0,0-1.352.528c-.017.02-.025.042-.041.062-.336-.321-.677-.637-1.027-.944a9.8,9.8,0,0,0-.788-.6,8,8,0,0,0,.982-2.837c.527.062,1.056.117,1.581.19.395.054.787.131,1.179.207a1.66,1.66,0,1,0,3.315.122A1.316,1.316,0,0,0,670.589,66.207Z"/><path class="ag" d="M650.436,64.081a1.468,1.468,0,0,0,1.393.612,2.085,2.085,0,0,0,1.346-.8,3.68,3.68,0,0,0,.665-1.445,1.421,1.421,0,0,0,.022-.8,2.081,2.081,0,0,0-2.648-.835A2.713,2.713,0,0,0,650.436,64.081Z"/><path class="ag" d="M656.376,59.656a1.269,1.269,0,0,0,1.181-.441.881.881,0,0,0-.113-1.187,1.436,1.436,0,0,0-.448-.2C655.334,57.288,654.676,59.431,656.376,59.656Z"/><path class="ag" d="M658.164,68.042a1.994,1.994,0,0,0,1.329-.585,1.92,1.92,0,0,0,.335-.67,1.571,1.571,0,0,0-.024-1.255c-.614-1.049-2.747-1.537-3.494-.4A1.928,1.928,0,0,0,658.164,68.042Z"/><path class="ag" d="M660.938,63.432a1.386,1.386,0,0,0,1.713-.51,2.268,2.268,0,0,0,.238-.614,1.123,1.123,0,0,0,.051-.466.9.9,0,0,0-.349-.536,1.632,1.632,0,0,0-1.291-.336A1.3,1.3,0,0,0,660.938,63.432Z"/><path class="ag" d="M651.069,68.9a2.718,2.718,0,0,0,.052,1.2,1.562,1.562,0,0,0,2.5,1.046,2.384,2.384,0,0,0,.825-.6,1.335,1.335,0,0,0,.33-.948,1.79,1.79,0,0,0-.464-.954,5.008,5.008,0,0,0-.848-.811,1.854,1.854,0,0,0-.958-.425C651.806,67.358,651.2,68.293,651.069,68.9Z"/><path class="ag" d="M660.384,70.038a1.318,1.318,0,0,0,.141.586,1.139,1.139,0,0,0,1.256.475,2.1,2.1,0,0,0,1.138-.84,1.283,1.283,0,0,0-.971-2.041C661.021,68.12,660.355,69.222,660.384,70.038Z"/><path class="af" d="M68.8,128.858a1.887,1.887,0,0,0-1.727,1.135,1.288,1.288,0,0,0-.107.467c-.386.095-.771.2-1.157.29-.482.117-.958.249-1.431.39a9.514,9.514,0,0,0-.887-1.708c.03-.025.063-.047.093-.072.386-.329.748-.671,1.1-1.031.267-.269.546-.528.823-.788a1.386,1.386,0,0,0,.509.143,1.266,1.266,0,0,0,1.176-1.921,1.328,1.328,0,0,0-2.359.132,1.06,1.06,0,0,0,.04,1.1.324.324,0,0,0,.023.029c-.256.226-.51.454-.774.668-.4.326-.783.667-1.149,1.021a9.2,9.2,0,0,0-1.444-1.467c.236-.648.48-1.294.708-1.945.145-.413.305-.821.442-1.237l.023-.069a1.483,1.483,0,0,0,1.507-.766,1.5,1.5,0,0,0-1.408-2.268,1.21,1.21,0,0,0-1.147.589,1.872,1.872,0,0,0,.305,2c-.029.077-.06.154-.09.231-.16.419-.287.853-.419,1.282-.179.589-.318,1.188-.447,1.789-.162-.11-.326-.215-.493-.31a7.219,7.219,0,0,0-2.262-.817c.056-.335.1-.67.164-1s.132-.666.2-1a1.469,1.469,0,0,0,.652-.388,1.307,1.307,0,0,0-.738-2.2,1.369,1.369,0,0,0-1.461,1.951,1.068,1.068,0,0,0,.724.652c-.076.283-.153.566-.229.848-.09.337-.175.677-.248,1.019a8.07,8.07,0,0,0-1.869.11c-.032-.148-.064-.3-.1-.443-.118-.5-.225-1.009-.38-1.5-.15-.468-.316-.931-.474-1.4a1.466,1.466,0,0,0-.085-2.462,1.547,1.547,0,0,0-2.36,1.419,1.237,1.237,0,0,0,.638,1.111,1.739,1.739,0,0,0,1.275.175,10.635,10.635,0,0,1,.337,1.374c.1.5.239,1.009.37,1.508.032.12.066.241.1.361a8.876,8.876,0,0,0-2.738,1.222c-.194-.3-.4-.6-.6-.9s-.381-.59-.569-.886c-.07-.111-.142-.23-.217-.347a1.262,1.262,0,0,0-.754-2.082,1.328,1.328,0,0,0-1.416,1.891,1.06,1.06,0,0,0,.866.677,1.426,1.426,0,0,0,.511-.029c.078.123.159.243.235.357q.3.455.619.9c.2.286.408.571.618.852.012.016.027.03.04.046a7.99,7.99,0,0,0-1.9,2.245c-.366-.239-.727-.486-1.08-.751-.528-.4-1.083-.752-1.628-1.124a1.365,1.365,0,0,0-1.077-1.816,1.444,1.444,0,0,0-1.541,2.057,1.152,1.152,0,0,0,.942.736,1.618,1.618,0,0,0,1.291-.4,13.761,13.761,0,0,0,1.4,1c.47.28.956.536,1.438.8a6.941,6.941,0,0,0-.6,2.066c-.373-.038-.748-.072-1.122-.111-.478-.049-.954-.117-1.43-.179a1.243,1.243,0,0,0-1.033-.973A1.328,1.328,0,0,0,43.61,133a1.059,1.059,0,0,0,.866.676,1.488,1.488,0,0,0,1.265-.43,1.288,1.288,0,0,0,.31-.565q1.251.146,2.508.22a7.005,7.005,0,0,0,.05,1.366,6.423,6.423,0,0,0,.178.821l-.1.035c-.4.136-.765.335-1.145.509-.548.252-1.1.5-1.65.743a1.549,1.549,0,0,0-.126-.164,1.477,1.477,0,0,0-2.512.766,1.548,1.548,0,0,0,2.159,1.71,1.236,1.236,0,0,0,.815-.988,1.679,1.679,0,0,0-.019-.607c.552-.194,1.1-.4,1.629-.649a9.662,9.662,0,0,0,1.121-.557l.074-.045A11.357,11.357,0,0,0,50.113,138c-.189.15-.373.306-.554.472a10.9,10.9,0,0,0-1.04,1.116,1.246,1.246,0,0,0-1.075-.1,1.328,1.328,0,0,0-.329,2.34A1.062,1.062,0,0,0,48.2,142a1.49,1.49,0,0,0,.9-.987,1.268,1.268,0,0,0-.059-.815c.384-.316.771-.628,1.149-.952.168-.143.339-.283.507-.425a8.881,8.881,0,0,0,1.7,1.655c-.057.076-.117.15-.171.227-.224.316-.444.64-.652.966-.289.453-.565.915-.843,1.375a1.565,1.565,0,0,0-1.9,1.613,1.236,1.236,0,0,0,.638,1.11,1.734,1.734,0,0,0,1.555.09A1.468,1.468,0,0,0,51.4,143.4c.3-.417.6-.835.885-1.261.216-.321.424-.653.623-.986.049-.082.093-.167.14-.251a7.237,7.237,0,0,0,2.384.9c-.044.262-.092.524-.127.788-.043.328-.106.655-.138.984,0,.036,0,.073-.006.109a1.264,1.264,0,0,0-1.014,1.786,1.328,1.328,0,0,0,2.359.142,1.062,1.062,0,0,0,.088-1.1,1.488,1.488,0,0,0-.559-.612l0-.015a7.488,7.488,0,0,0,.2-.868c.077-.364.138-.731.194-1.1.038,0,.075.008.114.009a7.555,7.555,0,0,0,2.044-.218c.008.026.018.054.025.079.1.366.211.733.317,1.1s.2.749.33,1.112c.02.055.044.109.065.164a1.542,1.542,0,0,0,.19,2.631,1.237,1.237,0,0,0,1.281.017,1.738,1.738,0,0,0,.87-1.292A1.473,1.473,0,0,0,60,143.892c-.009-.04-.015-.08-.025-.119-.093-.368-.219-.732-.327-1.1s-.215-.731-.322-1.1c-.006-.022-.012-.047-.018-.07a8.261,8.261,0,0,0,2.338-1.28l.021.036c.166.282.359.547.551.811a7.925,7.925,0,0,0,.658.787,1.254,1.254,0,0,0,1.016,1.68,1.327,1.327,0,0,0,1.373-1.922,1.059,1.059,0,0,0-.881-.657,1.5,1.5,0,0,0-.955.217c-.175-.222-.342-.45-.524-.667s-.375-.467-.571-.693c-.03-.033-.063-.061-.093-.093a8.846,8.846,0,0,0,1.582-1.969,12.19,12.19,0,0,0,1.242.633c.365.157.759.252,1.118.419l.009,0a1.616,1.616,0,0,0,.733,1.97,1.235,1.235,0,0,0,1.281.017,1.737,1.737,0,0,0,.87-1.292,1.477,1.477,0,0,0-2.17-1.479,1.638,1.638,0,0,0-.482.4c-.35-.2-.662-.463-1-.681-.394-.253-.807-.479-1.222-.7a8.606,8.606,0,0,0,.569-1.558c.028-.112.044-.226.066-.339.3.04.594.084.893.1.415.03.831.06,1.246.094.018,0,.036.006.054.007a1.258,1.258,0,0,0,1.688,1.084,1.328,1.328,0,0,0,.329-2.34,1.062,1.062,0,0,0-1.085-.175,1.49,1.49,0,0,0-.9.988c-.006.023,0,.044-.008.067-.409-.128-.819-.249-1.232-.36-.292-.078-.593-.121-.893-.17a7.34,7.34,0,0,0-.346-2.74c.46-.164.918-.333,1.381-.488.348-.116.7-.212,1.057-.309a1.528,1.528,0,1,0,2.784-1.251A1.211,1.211,0,0,0,68.8,128.858Z"/><path class="ag" d="M51.309,135.32a1.353,1.353,0,0,0,1.4-.064,1.922,1.922,0,0,0,.786-1.2,3.378,3.378,0,0,0-.041-1.463,1.3,1.3,0,0,0-.306-.665,1.914,1.914,0,0,0-2.524.39A2.5,2.5,0,0,0,51.309,135.32Z"/><path class="ag" d="M54.4,129.249a1.172,1.172,0,0,0,.8-.846.813.813,0,0,0-.577-.933,1.328,1.328,0,0,0-.453.014C52.579,127.721,52.911,129.755,54.4,129.249Z"/><path class="ag" d="M59.3,135.436a1.826,1.826,0,0,0,.858-1.024,1.775,1.775,0,0,0,0-.689,1.449,1.449,0,0,0-.531-1.025c-.935-.616-2.893-.149-3.046,1.093A1.774,1.774,0,0,0,59.3,135.436Z"/><path class="ag" d="M59.705,130.5a1.274,1.274,0,0,0,1.2-1.119,2.046,2.046,0,0,0-.053-.6,1.046,1.046,0,0,0-.148-.4.835.835,0,0,0-.506-.3,1.506,1.506,0,0,0-1.2.249A1.192,1.192,0,0,0,59.705,130.5Z"/><path class="ag" d="M53.795,139.037a2.492,2.492,0,0,0,.533.968,1.435,1.435,0,0,0,2.488-.156,2.2,2.2,0,0,0,.436-.833,1.233,1.233,0,0,0-.115-.917,1.652,1.652,0,0,0-.771-.6,4.65,4.65,0,0,0-1.03-.323,1.715,1.715,0,0,0-.964.04C53.774,137.463,53.653,138.483,53.795,139.037Z"/><path class="ag" d="M61.941,136.177a1.2,1.2,0,0,0,.355.426,1.049,1.049,0,0,0,1.23-.12,1.928,1.928,0,0,0,.6-1.157,1.18,1.18,0,0,0-1.632-1.287C61.684,134.336,61.585,135.517,61.941,136.177Z"/><path class="af" d="M263.769,98.109a1.663,1.663,0,0,0-1.037,1.5,1.147,1.147,0,0,0,.066.418c-.284.206-.565.416-.85.62-.356.256-.7.521-1.042.793a8.475,8.475,0,0,0-1.292-1.105c.016-.03.036-.058.052-.089.207-.4.39-.8.564-1.21.129-.308.272-.612.412-.917a1.237,1.237,0,0,0,.465-.051,1.119,1.119,0,0,0,.326-1.963,1.173,1.173,0,0,0-1.887.89.937.937,0,0,0,.4.886c.009.006.02.009.029.016-.135.269-.267.54-.413.8-.223.4-.42.806-.6,1.217a8.12,8.12,0,0,0-1.668-.723c-.021-.609-.036-1.218-.064-1.826-.019-.387-.023-.774-.048-1.159l0-.065a1.309,1.309,0,0,0,.98-1.126,1.324,1.324,0,0,0-1.9-1.389,1.068,1.068,0,0,0-.745.861,1.656,1.656,0,0,0,.914,1.54c0,.072,0,.145,0,.218.007.4.047.793.081,1.188.048.542.133,1.078.226,1.613-.169-.037-.338-.068-.506-.091a6.377,6.377,0,0,0-2.122.08c-.065-.292-.135-.583-.2-.875s-.112-.589-.166-.883a1.321,1.321,0,0,0,.405-.534,1.154,1.154,0,0,0-1.334-1.56,1.21,1.21,0,0,0-.55,2.081.944.944,0,0,0,.808.294c.032.257.063.513.094.77.038.306.081.612.134.915a7.218,7.218,0,0,0-1.493.709c-.076-.11-.15-.221-.227-.329-.262-.369-.519-.752-.808-1.1s-.566-.657-.85-.986a1.293,1.293,0,0,0-.884-1.987,1.367,1.367,0,0,0-1.462,1.944,1.092,1.092,0,0,0,.89.7,1.536,1.536,0,0,0,1.1-.278,9.527,9.527,0,0,1,.73,1.012c.252.379.53.748.8,1.112.066.089.134.175.2.263a7.812,7.812,0,0,0-1.837,1.907c-.259-.184-.522-.361-.787-.543s-.507-.356-.758-.537l-.293-.212a1.114,1.114,0,0,0-1.306-1.454,1.172,1.172,0,0,0-.533,2.017.937.937,0,0,0,.932.267,1.267,1.267,0,0,0,.409-.193c.1.075.211.146.311.214q.4.271.8.533.39.252.788.493c.015.009.032.016.047.025a7.065,7.065,0,0,0-.811,2.466c-.379-.074-.756-.157-1.132-.257-.564-.149-1.136-.257-1.705-.381a1.206,1.206,0,0,0-1.483-1.13,1.275,1.275,0,0,0-.58,2.194,1.018,1.018,0,0,0,1.015.291,1.428,1.428,0,0,0,.924-.755,12.083,12.083,0,0,0,1.479.35c.477.074.96.123,1.441.178a6.094,6.094,0,0,0,.191,1.891c-.319.092-.636.188-.955.28-.408.118-.82.22-1.23.327a1.1,1.1,0,0,0-1.167-.454,1.172,1.172,0,0,0-.534,2.016.937.937,0,0,0,.933.267,1.314,1.314,0,0,0,.893-.771,1.141,1.141,0,0,0,.067-.565q1.071-.3,2.125-.65a6.271,6.271,0,0,0,.493,1.1,5.662,5.662,0,0,0,.418.613c-.026.024-.049.045-.068.061-.278.242-.516.528-.768.8-.366.387-.732.774-1.1,1.155a1.246,1.246,0,0,0-.157-.093,1.3,1.3,0,0,0-1.8,1.458,1.366,1.366,0,0,0,2.333.685,1.091,1.091,0,0,0,.34-1.079,1.487,1.487,0,0,0-.216-.49c.387-.341.765-.692,1.118-1.07a8.563,8.563,0,0,0,.733-.827l.046-.061a10.132,10.132,0,0,0,1.6,1.412c-.1.185-.2.374-.3.57a9.776,9.776,0,0,0-.482,1.258,1.1,1.1,0,0,0-.913.272,1.172,1.172,0,0,0,.505,2.024.937.937,0,0,0,.946-.216,1.312,1.312,0,0,0,.41-1.106,1.118,1.118,0,0,0-.318-.647c.209-.386.423-.769.625-1.16.09-.172.184-.343.274-.515a7.855,7.855,0,0,0,1.94.791c-.021.081-.045.162-.064.242-.079.333-.152.671-.214,1.007-.087.466-.16.936-.235,1.405a1.38,1.38,0,0,0-1.02,1.948,1.09,1.09,0,0,0,.89.7,1.531,1.531,0,0,0,1.3-.441,1.3,1.3,0,0,0-.508-2.132c.108-.441.214-.882.307-1.325.07-.335.131-.676.183-1.013.013-.083.021-.168.032-.252a6.407,6.407,0,0,0,2.249-.052c.052.229.1.459.157.687.073.282.131.571.213.851.009.031.022.06.032.091a1.115,1.115,0,0,0-.239,1.8,1.172,1.172,0,0,0,1.977-.664.938.938,0,0,0-.29-.926,1.306,1.306,0,0,0-.661-.316v-.014a6.6,6.6,0,0,0-.122-.777c-.058-.324-.13-.645-.206-.964.032-.011.065-.019.1-.03a6.71,6.71,0,0,0,1.6-.855c.016.018.033.038.047.056q.311.4.623.794c.211.267.413.546.639.8.034.039.071.075.107.113a1.362,1.362,0,0,0,1.027,2.091,1.089,1.089,0,0,0,1.053-.411,1.531,1.531,0,0,0,.285-1.345,1.3,1.3,0,0,0-1.909-.786c-.02-.029-.039-.06-.06-.088-.2-.271-.421-.527-.63-.789s-.419-.527-.627-.792c-.013-.016-.026-.035-.039-.052a7.309,7.309,0,0,0,1.491-1.821l.029.023c.229.175.474.329.719.481a7.133,7.133,0,0,0,.8.426,1.108,1.108,0,0,0,1.388,1.039,1.172,1.172,0,0,0,.487-2.028.934.934,0,0,0-.938-.246,1.319,1.319,0,0,0-.71.494c-.217-.124-.429-.255-.65-.373s-.461-.257-.7-.378c-.035-.017-.072-.029-.107-.045a7.747,7.747,0,0,0,.643-2.136,10.834,10.834,0,0,0,1.226.108c.351.007.705-.046,1.055-.028h.008a1.426,1.426,0,0,0,1.252,1.37,1.091,1.091,0,0,0,1.054-.41,1.531,1.531,0,0,0,.284-1.345,1.3,1.3,0,0,0-2.265-.492,1.43,1.43,0,0,0-.262.488c-.352-.047-.7-.16-1.044-.226-.406-.077-.82-.125-1.233-.17a7.64,7.64,0,0,0-.05-1.464c-.014-.1-.039-.2-.058-.3.256-.065.514-.127.765-.209.35-.113.7-.226,1.051-.336l.047-.012a1.11,1.11,0,0,0,1.74.328,1.172,1.172,0,0,0-.5-2.024.937.937,0,0,0-.946.216,1.312,1.312,0,0,0-.41,1.106c0,.021.012.038.016.059-.377.03-.753.066-1.128.112-.264.033-.525.1-.787.157a6.472,6.472,0,0,0-1.19-2.128c.322-.287.641-.577.969-.857.246-.21.505-.406.762-.6a1.349,1.349,0,1,0,1.865-1.945A1.069,1.069,0,0,0,263.769,98.109Z"/><path class="ag" d="M251.6,109.187a1.193,1.193,0,0,0,1.123-.515,1.7,1.7,0,0,0,.245-1.246,2.976,2.976,0,0,0-.518-1.184,1.15,1.15,0,0,0-.47-.443,1.69,1.69,0,0,0-1.937,1.155A2.205,2.205,0,0,0,251.6,109.187Z"/><path class="ag" d="M252.119,103.193a1.033,1.033,0,0,0,.37-.955.717.717,0,0,0-.781-.573,1.165,1.165,0,0,0-.366.162C250.119,102.547,251.064,104.1,252.119,103.193Z"/><path class="ag" d="M258.171,106.638a1.617,1.617,0,0,0,.363-1.122,1.549,1.549,0,0,0-.225-.566,1.276,1.276,0,0,0-.774-.663c-.969-.194-2.417.836-2.131,1.9A1.567,1.567,0,0,0,258.171,106.638Z"/><path class="ag" d="M256.873,102.465a1.126,1.126,0,0,0,.616-1.315,1.849,1.849,0,0,0-.244-.476.911.911,0,0,0-.255-.283.734.734,0,0,0-.513-.077,1.326,1.326,0,0,0-.9.6A1.052,1.052,0,0,0,256.873,102.465Z"/><path class="ag" d="M254.861,111.406a2.2,2.2,0,0,0,.756.616,1.267,1.267,0,0,0,1.985-.952,1.949,1.949,0,0,0,.081-.826,1.085,1.085,0,0,0-.4-.712,1.461,1.461,0,0,0-.83-.234,4.03,4.03,0,0,0-.949.077,1.506,1.506,0,0,0-.776.351C254.323,110.125,254.561,111,254.861,111.406Z"/><path class="ag" d="M260.582,106.369a1.057,1.057,0,0,0,.431.231.928.928,0,0,0,.967-.506,1.7,1.7,0,0,0,.1-1.144,1.041,1.041,0,0,0-1.761-.513C259.762,104.946,260.071,105.946,260.582,106.369Z"/><path class="af" d="M598.647,113.205a1.059,1.059,0,0,0-1.048.5.739.739,0,0,0-.1.252c-.222.023-.444.05-.666.073-.277.028-.552.065-.826.107a5.4,5.4,0,0,0-.363-1.019l.057-.032c.24-.154.468-.317.694-.49.169-.129.344-.252.518-.376a.773.773,0,0,0,.273.119.711.711,0,0,0,.8-.979.746.746,0,0,0-1.324-.107.6.6,0,0,0-.062.614l.011.018c-.16.106-.318.214-.482.312-.25.151-.487.312-.718.481a5.176,5.176,0,0,0-.691-.927c.181-.343.366-.684.543-1.029.112-.219.232-.434.34-.655l.019-.036a.856.856,0,1,0,.287-1.681.68.68,0,0,0-.684.239,1.053,1.053,0,0,0,.017,1.14l-.068.121c-.121.221-.225.453-.331.682-.145.314-.268.637-.386.961-.082-.073-.165-.144-.251-.21a4.054,4.054,0,0,0-1.2-.628c.057-.182.11-.364.168-.546s.125-.36.188-.54a.836.836,0,0,0,.393-.166.735.735,0,0,0-.242-1.284.77.77,0,0,0-.963.974.6.6,0,0,0,.353.419l-.192.454c-.076.181-.149.364-.216.548a4.615,4.615,0,0,0-1.049-.082c-.007-.084-.013-.169-.021-.254-.028-.286-.048-.578-.1-.862s-.1-.542-.157-.813a.824.824,0,0,0,.141-1.378.869.869,0,0,0-1.422.61.692.692,0,0,0,.27.667.969.969,0,0,0,.7.195,5.792,5.792,0,0,1,.082.791c.02.289.056.58.091.868.009.069.019.139.028.208a4.99,4.99,0,0,0-1.618.471c-.085-.184-.174-.365-.263-.549s-.167-.357-.248-.537c-.031-.067-.062-.138-.1-.209a.709.709,0,0,0-.26-1.217.746.746,0,0,0-.933.944.593.593,0,0,0,.43.443.809.809,0,0,0,.287.024c.034.074.07.147.1.216q.135.276.276.549t.279.522c.005.01.013.019.018.029a4.489,4.489,0,0,0-1.229,1.1c-.186-.161-.368-.326-.544-.5-.264-.261-.545-.5-.82-.75a.766.766,0,0,0-.461-1.093.811.811,0,0,0-1.015,1.027.648.648,0,0,0,.468.482.915.915,0,0,0,.75-.124,7.748,7.748,0,0,0,.705.662c.24.192.491.371.739.554a3.879,3.879,0,0,0-.493,1.1l-.617-.148c-.262-.064-.522-.138-.782-.209a.7.7,0,0,0-.5-.621.746.746,0,0,0-.934.944.6.6,0,0,0,.431.443.837.837,0,0,0,.737-.143.726.726,0,0,0,.216-.291c.456.118.916.224,1.379.315a3.968,3.968,0,0,0-.077.764,3.558,3.558,0,0,0,.037.471l-.057.012a6.954,6.954,0,0,0-.676.2c-.325.1-.65.195-.976.287a.9.9,0,0,0-.057-.1.83.83,0,0,0-1.457.234.869.869,0,0,0,1.07,1.117.7.7,0,0,0,.53-.487.945.945,0,0,0,.036-.34c.322-.065.641-.139.956-.236a5.5,5.5,0,0,0,.667-.225l.044-.019a6.384,6.384,0,0,0,.435,1.286c-.117.069-.231.142-.345.22a6.225,6.225,0,0,0-.665.542.7.7,0,0,0-.59-.139.746.746,0,0,0-.362,1.277.6.6,0,0,0,.59.181.836.836,0,0,0,.577-.481.714.714,0,0,0,.03-.458c.237-.147.477-.291.712-.442.1-.067.21-.131.315-.2a4.98,4.98,0,0,0,.82,1.052c-.037.038-.076.074-.113.113-.148.159-.3.322-.436.488-.2.23-.385.466-.575.7a.878.878,0,0,0-1.18.752.693.693,0,0,0,.27.667.974.974,0,0,0,.858.169.824.824,0,0,0,.4-1.337c.2-.21.4-.419.59-.635.144-.162.286-.331.422-.5.033-.042.064-.086.1-.129a4.054,4.054,0,0,0,1.258.684c-.044.143-.091.285-.131.429-.049.179-.109.357-.152.537-.005.02-.007.041-.012.061a.71.71,0,0,0-.7.916.746.746,0,0,0,1.3.259.593.593,0,0,0,.133-.6.835.835,0,0,0-.264-.384l0-.007a4.245,4.245,0,0,0,.179-.468c.07-.2.132-.4.192-.6l.063.014a4.223,4.223,0,0,0,1.154.035c0,.015.006.032.008.046q.045.318.092.636c.032.214.055.432.1.644.007.032.016.064.023.1a.867.867,0,0,0-.095,1.479.693.693,0,0,0,.712.107.974.974,0,0,0,.583-.652.828.828,0,0,0-.8-1.038c0-.023,0-.046-.005-.068-.024-.212-.066-.424-.1-.635s-.064-.424-.095-.636l-.005-.041a4.649,4.649,0,0,0,1.4-.533l.008.022c.071.169.158.332.245.493a4.516,4.516,0,0,0,.306.489.7.7,0,0,0,.437,1.012.746.746,0,0,0,.912-.965.6.6,0,0,0-.441-.433.844.844,0,0,0-.548.048c-.08-.137-.156-.276-.241-.411s-.173-.289-.264-.43c-.014-.021-.031-.038-.045-.058a4.967,4.967,0,0,0,1.031-.976,7.129,7.129,0,0,0,.643.448c.192.115.4.2.591.319l0,0a.909.909,0,0,0,.258,1.153.694.694,0,0,0,.711.108.977.977,0,0,0,.584-.653.83.83,0,0,0-1.095-.989.9.9,0,0,0-.3.187c-.18-.138-.333-.309-.505-.456-.2-.171-.413-.329-.627-.484a4.8,4.8,0,0,0,.436-.824c.024-.06.042-.122.063-.184.162.045.324.093.489.127.229.049.458.1.686.148l.03.008a.706.706,0,0,0,.857.732.746.746,0,0,0,.362-1.277.6.6,0,0,0-.591-.18.839.839,0,0,0-.577.48c-.005.013-.005.025-.009.037-.218-.1-.437-.2-.659-.294a4.974,4.974,0,0,0-.483-.163,4.128,4.128,0,0,0,.016-1.552c.269-.056.537-.115.807-.166.2-.038.407-.064.612-.091a.858.858,0,1,0,1.645-.484A.681.681,0,0,0,598.647,113.205Z"/><path class="ag" d="M588.417,115.464a.76.76,0,0,0,.784.071,1.083,1.083,0,0,0,.53-.61,1.914,1.914,0,0,0,.089-.817.737.737,0,0,0-.12-.394,1.077,1.077,0,0,0-1.435.024A1.4,1.4,0,0,0,588.417,115.464Z"/><path class="ag" d="M590.6,112.321a.656.656,0,0,0,.507-.409.456.456,0,0,0-.25-.564.74.74,0,0,0-.253-.027C589.706,111.331,589.735,112.489,590.6,112.321Z"/><path class="ag" d="M592.855,116.14a1.032,1.032,0,0,0,.556-.5,1,1,0,0,0,.055-.384.813.813,0,0,0-.218-.611c-.473-.414-1.6-.3-1.779.375A1,1,0,0,0,592.855,116.14Z"/><path class="ag" d="M593.46,113.425a.718.718,0,0,0,.757-.53,1.209,1.209,0,0,0,.016-.34.592.592,0,0,0-.051-.237.472.472,0,0,0-.259-.206.85.85,0,0,0-.689.047A.67.67,0,0,0,593.46,113.425Z"/><path class="ag" d="M589.517,117.724a1.4,1.4,0,0,0,.222.579.807.807,0,0,0,1.4.1,1.241,1.241,0,0,0,.306-.43.7.7,0,0,0,.006-.519.93.93,0,0,0-.384-.392,2.566,2.566,0,0,0-.548-.258.961.961,0,0,0-.539-.052C589.626,116.846,589.48,117.4,589.517,117.724Z"/><path class="ag" d="M594.271,116.755a.665.665,0,0,0,.164.264.589.589,0,0,0,.694.028,1.081,1.081,0,0,0,.42-.6.662.662,0,0,0-.809-.841C594.269,115.71,594.123,116.36,594.271,116.755Z"/><path class="af" d="M158.261,173.862a1.062,1.062,0,0,0-1.048.5.765.765,0,0,0-.1.252c-.222.024-.444.051-.666.073-.277.029-.552.066-.826.108a5.381,5.381,0,0,0-.364-1.019c.019-.012.039-.021.057-.033.241-.153.468-.316.7-.489.169-.129.344-.252.518-.376a.792.792,0,0,0,.273.119.712.712,0,0,0,.8-.98.746.746,0,0,0-1.323-.107.6.6,0,0,0-.062.615l.011.018c-.16.106-.319.213-.483.312-.249.151-.486.312-.717.481a5.184,5.184,0,0,0-.691-.928c.18-.343.365-.683.542-1.028.113-.219.233-.434.341-.655l.018-.037a.832.832,0,0,0,.9-.311.843.843,0,0,0-.61-1.37.682.682,0,0,0-.684.24,1.052,1.052,0,0,0,.017,1.139c-.023.041-.046.081-.068.122-.122.221-.226.452-.332.681-.145.314-.268.637-.386.962-.081-.074-.165-.145-.25-.21a4.094,4.094,0,0,0-1.2-.629c.057-.181.11-.364.168-.545s.124-.361.188-.541a.827.827,0,0,0,.392-.166.734.734,0,0,0-.241-1.283.769.769,0,0,0-.963.974.6.6,0,0,0,.353.418l-.192.455c-.076.181-.149.363-.217.548a4.554,4.554,0,0,0-1.049-.082c-.006-.085-.012-.169-.02-.254-.028-.286-.048-.579-.1-.862s-.1-.543-.157-.814a.823.823,0,0,0,.142-1.377.87.87,0,0,0-1.423.61.7.7,0,0,0,.271.667.979.979,0,0,0,.7.195,6.11,6.11,0,0,1,.082.79c.019.289.056.58.091.868.008.07.018.139.027.209a4.975,4.975,0,0,0-1.617.47c-.085-.183-.175-.364-.263-.549s-.167-.357-.249-.536c-.03-.067-.061-.139-.094-.21a.708.708,0,0,0-.26-1.216.746.746,0,0,0-.934.944.6.6,0,0,0,.431.443.829.829,0,0,0,.286.023c.034.075.071.148.1.217q.134.276.275.549t.279.522c.006.01.013.018.019.028a4.493,4.493,0,0,0-1.229,1.1c-.186-.162-.368-.327-.544-.5-.264-.261-.545-.5-.821-.75a.767.767,0,0,0-.46-1.094.811.811,0,0,0-1.015,1.027.647.647,0,0,0,.468.482.908.908,0,0,0,.749-.123,7.867,7.867,0,0,0,.705.661c.241.192.492.372.74.555a3.9,3.9,0,0,0-.494,1.1c-.205-.05-.411-.1-.616-.148-.262-.064-.522-.138-.782-.209a.7.7,0,0,0-.5-.62.746.746,0,0,0-.933.944.6.6,0,0,0,.43.443.836.836,0,0,0,.737-.143.714.714,0,0,0,.216-.291q.686.177,1.379.314a3.969,3.969,0,0,0-.076.765,3.7,3.7,0,0,0,.036.47l-.057.013a7.027,7.027,0,0,0-.676.2c-.324.1-.649.2-.975.288a.777.777,0,0,0-.058-.1.83.83,0,0,0-1.457.234.87.87,0,0,0,1.071,1.117.693.693,0,0,0,.529-.488.915.915,0,0,0,.036-.339c.322-.066.642-.14.957-.236a5.547,5.547,0,0,0,.666-.225l.045-.019a6.415,6.415,0,0,0,.434,1.285c-.116.07-.231.142-.345.221a6.211,6.211,0,0,0-.664.542.694.694,0,0,0-.59-.139.746.746,0,0,0-.363,1.277.6.6,0,0,0,.591.18.839.839,0,0,0,.577-.48.714.714,0,0,0,.029-.458c.238-.147.477-.291.713-.442.1-.067.21-.132.314-.2a5.042,5.042,0,0,0,.82,1.051c-.037.038-.076.075-.112.114-.149.158-.3.322-.437.487-.2.23-.384.466-.575.7a.878.878,0,0,0-1.18.752.7.7,0,0,0,.27.667.976.976,0,0,0,.859.169.825.825,0,0,0,.4-1.338c.2-.209.4-.419.589-.634.145-.162.286-.331.422-.5.034-.042.065-.086.1-.129a4.092,4.092,0,0,0,1.259.684c-.045.142-.092.284-.131.429-.05.179-.109.356-.153.537,0,.02-.007.04-.011.06a.71.71,0,0,0-.7.916.746.746,0,0,0,1.3.26.6.6,0,0,0,.133-.6.84.84,0,0,0-.265-.384l0-.008a4.242,4.242,0,0,0,.179-.467c.071-.2.133-.4.192-.6.022,0,.042.01.063.013a4.264,4.264,0,0,0,1.154.036l.008.045.093.636c.032.214.055.432.1.644.006.032.015.064.023.1a.866.866,0,0,0-.1,1.479.694.694,0,0,0,.711.107.975.975,0,0,0,.584-.653.828.828,0,0,0-.8-1.038c0-.022,0-.045-.005-.068-.024-.212-.066-.424-.1-.635s-.064-.423-.1-.635l-.005-.041a4.655,4.655,0,0,0,1.4-.533l.009.021c.071.17.158.332.244.494a4.769,4.769,0,0,0,.306.488.706.706,0,0,0,.438,1.013.745.745,0,0,0,.911-.965.6.6,0,0,0-.44-.433.844.844,0,0,0-.548.048c-.08-.137-.156-.277-.241-.412s-.173-.288-.265-.429c-.014-.021-.03-.039-.045-.059a4.943,4.943,0,0,0,1.032-.975,7.045,7.045,0,0,0,.643.448c.191.115.4.2.59.318l0,0a.909.909,0,0,0,.257,1.153.693.693,0,0,0,.712.107.976.976,0,0,0,.583-.652.829.829,0,0,0-1.1-.989.932.932,0,0,0-.3.186c-.18-.137-.333-.308-.505-.456-.2-.171-.412-.328-.627-.484a4.7,4.7,0,0,0,.436-.824c.025-.06.043-.122.063-.183.163.045.325.092.489.127q.344.072.687.147l.029.008a.707.707,0,0,0,.857.733A.746.746,0,0,0,158,176.8a.6.6,0,0,0-.59-.181.836.836,0,0,0-.577.481c0,.012,0,.025-.01.037-.217-.1-.436-.2-.658-.295a5,5,0,0,0-.484-.163,4.124,4.124,0,0,0,.017-1.551c.269-.056.537-.116.806-.166.2-.038.408-.065.612-.092a.859.859,0,1,0,1.646-.483A.68.68,0,0,0,158.261,173.862Z"/><path class="ag" d="M148.032,176.12a.758.758,0,0,0,.783.072,1.079,1.079,0,0,0,.53-.61,1.9,1.9,0,0,0,.089-.818.735.735,0,0,0-.119-.393,1.074,1.074,0,0,0-1.435.024A1.4,1.4,0,0,0,148.032,176.12Z"/><path class="ag" d="M150.22,172.978a.657.657,0,0,0,.507-.41.458.458,0,0,0-.25-.564.769.769,0,0,0-.253-.027C149.321,171.988,149.349,173.146,150.22,172.978Z"/><path class="ag" d="M152.469,176.8a1.027,1.027,0,0,0,.556-.5.992.992,0,0,0,.055-.383.807.807,0,0,0-.217-.611c-.473-.415-1.6-.305-1.779.375A1,1,0,0,0,152.469,176.8Z"/><path class="ag" d="M153.075,174.082a.716.716,0,0,0,.756-.531,1.173,1.173,0,0,0,.017-.34.6.6,0,0,0-.052-.237.467.467,0,0,0-.259-.205.844.844,0,0,0-.688.047A.67.67,0,0,0,153.075,174.082Z"/><path class="ag" d="M149.132,178.38a1.4,1.4,0,0,0,.222.58.806.806,0,0,0,1.4.1,1.228,1.228,0,0,0,.306-.43.691.691,0,0,0,.007-.519.924.924,0,0,0-.384-.392,2.625,2.625,0,0,0-.549-.259.968.968,0,0,0-.539-.052C149.24,177.5,149.1,178.061,149.132,178.38Z"/><path class="ag" d="M153.885,177.412a.679.679,0,0,0,.165.264.591.591,0,0,0,.694.027,1.082,1.082,0,0,0,.42-.6.663.663,0,0,0-.81-.842C153.883,176.367,153.737,177.017,153.885,177.412Z"/><path class="af" d="M410.692,157.109a1.331,1.331,0,0,0-.83,1.2.924.924,0,0,0,.053.335c-.227.164-.452.332-.68.5-.284.2-.561.416-.834.634a6.717,6.717,0,0,0-1.033-.884c.014-.024.029-.047.042-.071.166-.317.312-.638.451-.968.1-.246.217-.49.33-.734a.967.967,0,0,0,.371-.04.9.9,0,0,0,.261-1.57.938.938,0,0,0-1.509.712.748.748,0,0,0,.317.708c.007.005.016.008.023.013-.108.215-.214.432-.331.642-.178.32-.335.644-.481.973a6.458,6.458,0,0,0-1.334-.578c-.017-.487-.028-.974-.051-1.461-.015-.309-.018-.618-.039-.927l0-.051a1.048,1.048,0,0,0,.784-.9,1.059,1.059,0,0,0-1.522-1.111.852.852,0,0,0-.6.689,1.321,1.321,0,0,0,.73,1.231c0,.058,0,.116,0,.174.005.318.037.635.065.951.038.433.106.862.18,1.29-.135-.03-.27-.055-.4-.073a5.091,5.091,0,0,0-1.7.064c-.052-.233-.109-.466-.159-.7s-.09-.471-.133-.706a1.054,1.054,0,0,0,.324-.427.923.923,0,0,0-1.066-1.248.967.967,0,0,0-.44,1.664.752.752,0,0,0,.646.236l.075.615c.03.245.065.49.107.733a5.687,5.687,0,0,0-1.195.567c-.06-.089-.119-.177-.181-.264-.209-.3-.414-.6-.646-.879s-.453-.526-.679-.789a1.035,1.035,0,0,0-.708-1.589,1.093,1.093,0,0,0-1.169,1.554.873.873,0,0,0,.712.558,1.228,1.228,0,0,0,.881-.223,7.569,7.569,0,0,1,.584.81c.2.3.424.6.642.89.052.07.107.14.16.21a6.26,6.26,0,0,0-1.469,1.525c-.207-.147-.418-.289-.629-.435s-.406-.285-.607-.429l-.234-.169a.891.891,0,0,0-1.045-1.163.937.937,0,0,0-.426,1.613.748.748,0,0,0,.746.213,1.02,1.02,0,0,0,.327-.154c.084.06.169.117.248.171.213.145.427.287.644.427s.418.265.63.394c.012.007.026.012.038.02a5.634,5.634,0,0,0-.648,1.972c-.3-.059-.605-.125-.906-.205-.451-.12-.909-.206-1.364-.3a.963.963,0,0,0-1.186-.9,1.02,1.02,0,0,0-.464,1.755.816.816,0,0,0,.812.232,1.142,1.142,0,0,0,.739-.6,9.968,9.968,0,0,0,1.183.28c.382.059.768.1,1.153.142a4.9,4.9,0,0,0,.152,1.512c-.254.074-.508.151-.764.225-.326.094-.655.176-.983.261a.878.878,0,0,0-.934-.363.937.937,0,0,0-.426,1.612.749.749,0,0,0,.746.214,1.053,1.053,0,0,0,.714-.617.905.905,0,0,0,.053-.452q.858-.235,1.7-.52a5.044,5.044,0,0,0,.394.881,4.66,4.66,0,0,0,.335.49l-.055.049c-.222.193-.412.422-.614.636-.292.31-.585.62-.884.924a1.061,1.061,0,0,0-.126-.074,1.042,1.042,0,0,0-1.441,1.166,1.092,1.092,0,0,0,1.865.548.873.873,0,0,0,.273-.863,1.2,1.2,0,0,0-.173-.392c.309-.273.612-.553.894-.856a6.78,6.78,0,0,0,.586-.661c.01-.014.023-.032.037-.049a8.043,8.043,0,0,0,1.277,1.129c-.084.149-.163.3-.238.456a7.962,7.962,0,0,0-.385,1.006.877.877,0,0,0-.73.218.938.938,0,0,0,.4,1.619.749.749,0,0,0,.756-.173,1.051,1.051,0,0,0,.328-.885.892.892,0,0,0-.254-.517c.167-.309.338-.615.5-.928.072-.138.147-.274.219-.412a6.287,6.287,0,0,0,1.552.633c-.017.065-.037.129-.052.194-.063.266-.121.536-.171.805-.069.373-.127.748-.188,1.123a1.1,1.1,0,0,0-.816,1.558.872.872,0,0,0,.712.558,1.226,1.226,0,0,0,1.042-.352,1.036,1.036,0,0,0-.407-1.705c.086-.353.171-.706.246-1.06.056-.268.105-.54.146-.81.011-.067.017-.134.026-.2a5.1,5.1,0,0,0,1.8-.042c.041.184.078.368.125.55.059.226.105.457.17.681.008.024.018.048.026.073a.892.892,0,0,0-.191,1.437.937.937,0,0,0,1.581-.532.748.748,0,0,0-.232-.74,1.056,1.056,0,0,0-.528-.253v-.011a5.42,5.42,0,0,0-.1-.621c-.046-.26-.1-.516-.165-.771.026-.009.052-.015.078-.025a5.325,5.325,0,0,0,1.28-.683c.012.015.026.03.037.045l.5.635c.168.213.33.436.51.64.027.031.057.06.086.09a1.089,1.089,0,0,0,.821,1.672.874.874,0,0,0,.843-.328,1.226,1.226,0,0,0,.227-1.076,1.039,1.039,0,0,0-1.526-.628c-.017-.024-.031-.048-.048-.071-.159-.217-.337-.421-.5-.631l-.5-.633-.031-.042a5.847,5.847,0,0,0,1.192-1.456l.023.018c.184.14.38.263.576.385a5.6,5.6,0,0,0,.639.34.886.886,0,0,0,1.11.831.937.937,0,0,0,.39-1.622.75.75,0,0,0-.751-.2,1.066,1.066,0,0,0-.568.4c-.173-.1-.343-.2-.519-.3s-.369-.207-.558-.3c-.028-.014-.057-.023-.085-.036a6.235,6.235,0,0,0,.514-1.708,8.571,8.571,0,0,0,.981.086c.28,0,.563-.037.843-.022h.006a1.142,1.142,0,0,0,1,1.1.874.874,0,0,0,.843-.329,1.225,1.225,0,0,0,.227-1.076,1.043,1.043,0,0,0-1.812-.393,1.157,1.157,0,0,0-.209.391c-.282-.038-.556-.128-.835-.181-.325-.062-.656-.1-.986-.136a6.049,6.049,0,0,0-.041-1.171c-.011-.08-.03-.159-.046-.239.2-.052.411-.1.613-.167q.419-.137.84-.269l.037-.01a.888.888,0,0,0,1.392.262.937.937,0,0,0-.4-1.618.747.747,0,0,0-.756.173,1.051,1.051,0,0,0-.328.884c0,.017.009.031.012.047-.3.024-.6.053-.9.09a6.212,6.212,0,0,0-.63.126,5.17,5.17,0,0,0-.952-1.7c.258-.23.513-.462.775-.686.2-.168.4-.325.61-.482a1.079,1.079,0,1,0,1.491-1.556A.855.855,0,0,0,410.692,157.109Z"/><path class="ag" d="M400.955,165.97a.955.955,0,0,0,.9-.412,1.351,1.351,0,0,0,.2-1,2.387,2.387,0,0,0-.414-.946.916.916,0,0,0-.376-.355,1.352,1.352,0,0,0-1.549.924A1.764,1.764,0,0,0,400.955,165.97Z"/><path class="ag" d="M401.374,161.176a.825.825,0,0,0,.3-.764.575.575,0,0,0-.625-.458.957.957,0,0,0-.293.129C399.775,160.659,400.53,161.9,401.374,161.176Z"/><path class="ag" d="M406.215,163.931a1.3,1.3,0,0,0,.29-.9,1.255,1.255,0,0,0-.18-.452,1.025,1.025,0,0,0-.619-.53c-.775-.156-1.933.669-1.7,1.522A1.253,1.253,0,0,0,406.215,163.931Z"/><path class="ag" d="M405.176,160.593a.9.9,0,0,0,.493-1.051,1.491,1.491,0,0,0-.2-.381.75.75,0,0,0-.2-.226.584.584,0,0,0-.411-.062,1.06,1.06,0,0,0-.721.482A.841.841,0,0,0,405.176,160.593Z"/><path class="ag" d="M403.567,167.745a1.754,1.754,0,0,0,.605.492,1.014,1.014,0,0,0,1.587-.761,1.547,1.547,0,0,0,.065-.661.868.868,0,0,0-.318-.569,1.158,1.158,0,0,0-.663-.187,3.23,3.23,0,0,0-.76.061,1.209,1.209,0,0,0-.62.281C403.136,166.72,403.327,167.42,403.567,167.745Z"/><path class="ag" d="M408.142,163.716a.85.85,0,0,0,.345.184.741.741,0,0,0,.774-.4,1.361,1.361,0,0,0,.083-.915.833.833,0,0,0-1.409-.41C407.486,162.578,407.734,163.378,408.142,163.716Z"/><path class="ah" d="M596.273,317.017s16.174-3.961,19.8-4.621,33.338-.99,36.639,0,10.562,4.291,10.562,4.291,6.6,84.829,7.592,112.885S672.19,500,672.19,500l-96.382-.137s2.311-86.794,7.592-121.782A519.725,519.725,0,0,1,596.273,317.017Z"/><path class="ai" d="M613.05,293.125s-.276,16.552-.552,18.483-3.586,3.31-3.586,3.31-1.655,8.276,20.413,8,25.38-10.207,25.38-10.207l-.828-32.276S616.636,294.78,613.05,293.125Z"/><path class="ai" d="M601.463,197.953s-9.931,14.621-12.138,28.138-1.655,41.379,5.518,54.62,15.724,19.035,28.965,19.035,30.069-10.207,37.517-17.931,13.794-41.931,11.863-56.828-6.345-26.482-25.931-28.965S601.463,197.953,601.463,197.953Z"/><path class="c" d="M598.879,241.072a5.464,5.464,0,0,0,.825,6.769,3.118,3.118,0,0,0,3.108.86c2.1-.811,2.983-4.92,2.1-6.846C603.774,239.377,600.435,238.7,598.879,241.072Z"/><path class="c" d="M632.646,243.275a5.718,5.718,0,0,0,.864,7.085,3.265,3.265,0,0,0,3.252.9c2.2-.849,3.122-5.15,2.2-7.165C637.769,241.5,634.274,240.795,632.646,243.275Z"/><path class="c" d="M597.4,237.321c.162-.24-.182.171.028-.034l.208-.2c.184-.171-.132.084.008,0,.091-.056.179-.115.273-.168.188-.106.386-.191.581-.284.078-.037.433-.183.081-.044.1-.04.2-.08.308-.117a19.061,19.061,0,0,1,3.342-.8c.3-.05.612-.09.911-.153.245-.051-.343.036.052-.007.169-.018.337-.038.505-.054.614-.059,1.231-.092,1.848-.1,1.288-.007,2.83.115,3.964-.607a1.45,1.45,0,0,0,.516-1.967c-1.016-1.407-2.851-1.672-4.48-1.58a19.434,19.434,0,0,0-4.6.727c-2.189.678-5.162,1.951-5.748,4.452a1.213,1.213,0,0,0,2.206.93Z"/><path class="c" d="M630.5,235.635c.414.011.827.026,1.24.053.242.016.482.04.723.069.139.016.295.039.066.007.141.02.283.04.424.062,1.15.178,2.309.354,3.439.637.609.153,1.209.34,1.8.543.273.093.544.193.811.3-.367-.151.15.073.179.086.157.074.31.155.466.231.546.27,1.078.561,1.619.84.153.079.718.322.4.178.231.1.458.215.694.308-.242-.1.65.231.439.163a1.5,1.5,0,0,0,.616.08,1.193,1.193,0,0,0,1.124-.856,2.177,2.177,0,0,0-.254-1.413c.065.128.05.086-.046-.124a1.494,1.494,0,0,0-.163-.334c.143.234-.55-.7-.3-.388a7,7,0,0,0-2.03-1.69,13.388,13.388,0,0,0-4.127-1.412,18.778,18.778,0,0,0-4.081-.363c-1.012.037-2.027.112-3.035.207a1.407,1.407,0,0,0,0,2.813Z"/><path class="c" d="M666.291,254.711s-7.034-6.413-6-20.275,4.966-20.9-.207-25.449-13.448-3.31-19.655-2.069-19.448.828-26.276-1.241-8.483-3.1-14.483.414-8.689,18.414-9.724,23.379a94.14,94.14,0,0,0-1.448,10.345s-3.724-10.552-3.1-18.207,5.587-11.379,6-15.1-4.965-10.138-2.689-17.794,10.965-12.206,17.172-9.517,10.345,7.655,13.035,7.035,8.276-4.345,11.793-2.069,3.724,3.31,6.207,3.724,5.586-2.069,9.724-.207,4.965,4.138,7.034,4.138,9.724-3.724,13.655.621,2.483,12.62,2.483,12.62,15.372,2.759,17.586,15.931C691.325,244.367,666.291,254.711,666.291,254.711Z"/><path class="ai" d="M662.153,256.435s10.759-12.137,15.448-7.172,5.793,13.517,0,17.655-12.413,3.587-14.62.828S662.153,256.435,662.153,256.435Z"/><path class="aj" d="M668.084,251.056s-12.965,5.1-16.483,11.724-3.517,13.449,2.069,14.483,14.138-7.586,14.138-7.586l2.621.138a70.76,70.76,0,0,1-13.655,17.172c-8.276,7.242-26.069,15.931-43.035,11.587-14.292-3.661-19.448-14.139-22.758-23.656-1.9-5.45-2.483-18.758-2.483-18.758s3.31,1.034,11.793-2.276,12.828-8.276,21.31-6.621,16.138,10.759,22.138,10.966,21.153-8.945,23.586-9.518c3.518-.827,4.345,0,4.345,0Z"/><g class="s"><path class="ak" d="M615.489,249.852c-4.229,6.408-4.227,15.089-4.15,22.495a68.737,68.737,0,0,0,1.265,12.991,34.625,34.625,0,0,0,1.958,6.371,16.066,16.066,0,0,0,2.967,5.144.5.5,0,0,0,.823-.479c-.645-1.885-1.71-3.62-2.435-5.482a46.759,46.759,0,0,1-1.849-5.957,56.446,56.446,0,0,1-1.216-12.588c-.1-7.39.28-15.159,3.689-21.88a.61.61,0,0,0-1.052-.615Z"/></g><path class="al" d="M659.67,314.091s2.483,47.586,2.9,81.1,0,104.806,0,104.806h33.1l-3.724-59.7,9.517,59.7h40.966s-8.69-95.7-17.379-130.461-11.587-39.31-28.552-45.517S659.67,314.091,659.67,314.091Z"/><path class="al" d="M601.946,314.711s-30,3.311-41.586,15.724c-9.385,10.056-17.793,77.587-18.207,94.966s-4.138,74.6-4.138,74.6h44.69s3.931-72.737,7.241-111.633A527.214,527.214,0,0,1,601.946,314.711Z"/><path class="am" d="M574.891,375.522a15.3,15.3,0,0,0-5.924-8.757c-.6-.432-1.384.573-.795,1.031,5.523,4.292,6.168,11.781,6.071,18.257-.136,9-.73,18.007-1.3,26.987-1.195,18.848-2.9,37.659-4.066,56.511-.316,5.1-.56,10.189-1.079,15.27-.511,5.009-1.3,10.141-.771,15.177.519-.037,1.038.011,1.56,0,.268-4.514.505-9,.993-13.5.514-4.736.92-9.462,1.219-14.216.6-9.586,1.336-19.164,1.972-28.748,1.253-18.9,2.632-37.859,3.088-56.8A39.68,39.68,0,0,0,574.891,375.522Z"/><path class="am" d="M678.246,390.707c1.914,8.4,4.713,16.573,7.088,24.854,2.251,7.85,4.192,15.769,5.755,23.785q.684,3.512,1.306,7.035.318,1.8.614,3.6a8.546,8.546,0,0,0,1.005,3.385.487.487,0,0,0,.878-.115c.545-1.868-.12-4.073-.416-5.94-.339-2.141-.7-4.28-1.085-6.412-.727-3.973-1.525-7.933-2.42-11.872-1.882-8.288-4.249-16.456-6.679-24.6-1.418-4.751-2.9-9.464-4.577-14.13a.762.762,0,0,0-1.469.4Z"/><path class="af" d="M418.429,393.676s-4.384-.5-1.241-21.518c4.413-29.517,7.763-37.655,7.763-37.655s-1.45-3.2-11.172-9.517c-12.316-8-40.729-16-40.729-16l-11.709,7.906-17.119-6.8s-23.7,8.86-33.241,15.448A113.126,113.126,0,0,0,292.5,341.262s8.138-1.1,12.552,28.414c3.142,21.015-2.483,31.862-2.483,31.862s10.017,49.889,10.345,60.827c.3,10.033,0,37.635,0,37.635H414.7s-1.966-29.266-2.483-39.29c-1.034-20.069,4.937-29.875,6.621-46.758C420.094,401.409,418.429,393.676,418.429,393.676Z"/><path class="an" d="M455.348,397a333.633,333.633,0,0,1,.887,40.975c-.97,21.182-2.714,27.488-10.4,39.075-6.66,10.043-23.677,22.777-23.677,22.777l-32.3.171s24.553-29.6,30.214-40.254-3.464-58.658-3.464-58.658a41,41,0,0,1,16.642-6.666C443.519,392.645,455.348,397,455.348,397Z"/><path class="af" d="M411.183,324.024s25.367,9.731,36.111,37.624c6.519,16.926,11.5,63.074,11.5,63.074a126.847,126.847,0,0,0-20.514,2.586c-12.573,2.588-18.258,4.817-18.258,4.817s-7.842-36.608-8.374-54.811S405.006,324.76,411.183,324.024Z"/><path class="m" d="M356.36,193.4s-18.414-2.276-32.069,12.621-13.034,50.069-13.448,65.172.62,29.379.62,29.379,17.587,8.9,50.69,8.276c33.31-.624,48.414-9.1,48.414-9.1s5.586-43.655-1.448-67.035-17.38-33.1-32.276-37.655S356.36,193.4,356.36,193.4Z"/><path class="an" d="M358.981,203.883a36.267,36.267,0,0,0-26.483,14.9c-10.759,14.621-5.517,50.207-3.586,57.931s13.224,26.381,29.517,27.862c18.207,1.655,33.517-15.172,36-28.965s6.207-51.035-11.448-63.449S358.981,203.883,358.981,203.883Z"/><path class="an" d="M331.067,260.6s-8.14-12.669-14.6-10.25-.182,16.059,5.752,21.424,10.7,2.519,10.7,2.519Z"/><path class="an" d="M391.509,260.6s8.14-12.669,14.6-10.25.182,16.059-5.752,21.424-10.7,2.519-10.7,2.519Z"/><path class="an" d="M342.392,288.021s1.655,22.069.551,23.448-9.655,3.862-9.655,3.862,4.138,11.862,27.035,12.138,28.965-12.138,28.965-12.138l-10.482-3.862V288.021Z"/><path class="d" d="M342.37,253.045a5.874,5.874,0,0,0-.293,7.326,3.354,3.354,0,0,0,3.149,1.449c2.372-.5,4.015-4.707,3.41-6.9C347.857,252.092,344.43,250.8,342.37,253.045Z"/><path class="d" d="M375.249,253.045a5.874,5.874,0,0,0-.293,7.326,3.355,3.355,0,0,0,3.149,1.449c2.373-.5,4.016-4.707,3.41-6.9C380.736,252.092,377.309,250.8,375.249,253.045Z"/><path class="m" d="M326.981,256.3s1.379-16,7.172-27.034,12.69-12.966,12.69-12.966,1.931,7.173,14.9,15.173,19.035,7.724,19.035,7.724-6.345-5.517-8.828-9.655a19.1,19.1,0,0,1-2.758-7.448s6.344,11.862,16.551,16.275,15.724,2.483,15.724,2.483-3.862-36.69-29.793-43.034-43.862,11.862-48.827,22.069S326.981,256.3,326.981,256.3Z"/><path class="m" d="M385.739,229.814,395.67,256.3s5.38-7.655,7.242-13.034,1.655-16.966-1.862-21.931S386.981,208.5,386.981,208.5Z"/><path class="ao" d="M349.946,245.538c-3.722.171-7.211-.541-9.724,2.9"/><path class="ao" d="M374.36,246.158c2.668-.693,8.991-.428,10.138,2.69"/><path class="r" d="M325.532,252.779c4.808,5.333,8.529,10.861,10.69,17.724"/><path class="ap" d="M336.63,288.676a2.57,2.57,0,0,0-.5-.9,9,9,0,0,0-.988-.757,15.079,15.079,0,0,1-1.676-1.478,26.354,26.354,0,0,1-2.933-3.611,33.761,33.761,0,0,1-2.4-4.135,23.881,23.881,0,0,1-.925-3.108,11.038,11.038,0,0,1-2.828-1.276,24.065,24.065,0,0,0,1.633,5.358,33.708,33.708,0,0,0,2.657,4.519,26.774,26.774,0,0,0,3.291,3.915c.578.559,1.168,1.106,1.8,1.605a3.009,3.009,0,0,0,2.285.886A.69.69,0,0,0,336.63,288.676Z"/><path class="r" d="M396.92,252.779c-4.808,5.333-8.529,10.861-10.69,17.724"/><path class="ap" d="M385.822,288.676a2.586,2.586,0,0,1,.5-.9,9.1,9.1,0,0,1,.988-.757,14.991,14.991,0,0,0,1.676-1.478,26.279,26.279,0,0,0,2.933-3.611,33.768,33.768,0,0,0,2.4-4.135,23.894,23.894,0,0,0,.924-3.108,11.023,11.023,0,0,0,2.828-1.276,24.065,24.065,0,0,1-1.633,5.358,33.6,33.6,0,0,1-2.657,4.519,26.776,26.776,0,0,1-3.291,3.915c-.578.559-1.167,1.106-1.8,1.605a3.008,3.008,0,0,1-2.285.886A.69.69,0,0,1,385.822,288.676Z"/><path class="af" d="M387.334,279.193a49.158,49.158,0,0,1,.414-11.31s-8.726-.727-14.344-3.862c-3.952-2.2-7.21-6.389-12.033-6.639-5.082-.262-8.281,4.383-12.321,6.639-5.619,3.135-14.345,3.862-14.345,3.862a49.224,49.224,0,0,1,.414,11.31,33.836,33.836,0,0,1-2.207,9.793,44.067,44.067,0,0,0,11.725,10.9,31.2,31.2,0,0,0,33.179,0,44.066,44.066,0,0,0,11.725-10.9A33.8,33.8,0,0,1,387.334,279.193Z"/><path class="aq" d="M361.05,259.055c-.967,3.237-.543,6.663-.552,10.038-.01,3.488.378,6.917.414,10.342.057,5.39.011,10.773.406,16.037.16,2.13.385,4.363.421,6.48"/><path class="r" d="M341.325,272.848"/><path class="r" d="M350.429,266.5h-.276"/><path class="r" d="M348.774,276.158"/><path class="r" d="M356.5,278.365h-.552"/><path class="r" d="M338.567,280.848"/><path class="ar" d="M347.8,286.453"/><path class="r" d="M355.67,290.227"/><path class="r" d="M339.67,289.676"/><path class="r" d="M347.67,296.848"/><path class="r" d="M356.5,300.71"/><path class="r" d="M365.877,265.4"/><path class="r" d="M358.7,271.469"/><path class="r" d="M365.325,276.986v-.276"/><path class="r" d="M372.774,268.986"/><path class="r" d="M380.774,273.124"/><path class="r" d="M373.877,276.986l.276.552"/><path class="r" d="M383.257,282.5l-.552.552"/><path class="r" d="M371.119,285.814"/><path class="r" d="M367.532,293.538"/><path class="r" d="M377.739,289.952"/><path class="r" d="M365.325,283.055"/><path class="r" d="M383.257,289.4"/><path class="r" d="M372.774,298.5"/><path class="r" d="M364.222,302.227"/><path class="an" d="M269.312,396.089a333.473,333.473,0,0,0-2.125,40.929c.33,21.2,1.882,27.558,9.213,39.372,6.354,10.239,22.978,23.482,22.978,23.482l32.229.128s-23.6-29.311-28.934-40.13,5.235-58.526,5.235-58.526a41.022,41.022,0,0,0-16.433-7.167C281.267,392.091,269.312,396.089,269.312,396.089Z"/><path class="af" d="M308.021,329.078s-18.823,8.722-29.59,31.917c-7.638,16.451-13.4,62.7-13.4,62.7a126.743,126.743,0,0,1,20.427,3.205c12.488,2.966,18.1,5.366,18.1,5.366s8.945-36.354,10.027-54.534S314.173,330,308.021,329.078Z"/><path class="af" d="M409.467,363.469c1.115,9.422,4.106,18.412,6.251,27.622,2.132,9.155,3.79,19.075,1.462,28.36-.728,2.9-1.734,5.73-2.439,8.644-.347,1.438-.614,2.894-.835,4.357a14.055,14.055,0,0,0-.252,4.448c.131.771,1.155.58,1.379,0a24.271,24.271,0,0,0,.866-4.141c.268-1.372.594-2.732.922-4.091.627-2.6,1.464-5.134,2.189-7.708a41.048,41.048,0,0,0,1.3-13.667c-.618-9.756-3.5-19.221-5.936-28.633a151.194,151.194,0,0,1-3.457-15.387c-.122-.814-1.548-.632-1.451.2Z"/><g class="s"><path class="as" d="M409.467,363.469c1.115,9.422,4.106,18.412,6.251,27.622,2.132,9.155,3.79,19.075,1.462,28.36-.728,2.9-1.734,5.73-2.439,8.644-.347,1.438-.614,2.894-.835,4.357a14.055,14.055,0,0,0-.252,4.448c.131.771,1.155.58,1.379,0a24.271,24.271,0,0,0,.866-4.141c.268-1.372.594-2.732.922-4.091.627-2.6,1.464-5.134,2.189-7.708a41.048,41.048,0,0,0,1.3-13.667c-.618-9.756-3.5-19.221-5.936-28.633a151.194,151.194,0,0,1-3.457-15.387c-.122-.814-1.548-.632-1.451.2Z"/></g><g class="s"><path class="t" d="M338.9,436.459a86.249,86.249,0,0,1,21.587-2.993,115.31,115.31,0,0,1,21.741,1.123.375.375,0,0,0,.2-.723c-6.965-2.275-14.679-2.523-21.94-2.188a82.969,82.969,0,0,0-21.9,3.628c-.726.237-.424,1.373.318,1.153Z"/></g><path class="af" d="M312.614,363.273c-1.419,9.462-4.459,18.662-6.7,27.947-2.2,9.127-3.925,18.738-1.823,28.051.647,2.868,1.669,5.643,2.393,8.493.363,1.429.708,2.865,1.008,4.308a30.449,30.449,0,0,0,1,4.828c.224.58,1.248.772,1.379,0,.423-2.5-.34-5.445-.874-7.9-.579-2.662-1.391-5.267-2.183-7.871a41.107,41.107,0,0,1-1.5-13.639c.381-9.81,3.189-19.321,5.668-28.755a111.715,111.715,0,0,0,3.075-15.268c.1-.819-1.327-1.019-1.45-.2Z"/><g class="s"><path class="as" d="M312.614,363.273c-1.419,9.462-4.459,18.662-6.7,27.947-2.2,9.127-3.925,18.738-1.823,28.051.647,2.868,1.669,5.643,2.393,8.493.363,1.429.708,2.865,1.008,4.308a30.449,30.449,0,0,0,1,4.828c.224.58,1.248.772,1.379,0,.423-2.5-.34-5.445-.874-7.9-.579-2.662-1.391-5.267-2.183-7.871a41.107,41.107,0,0,1-1.5-13.639c.381-9.81,3.189-19.321,5.668-28.755a111.715,111.715,0,0,0,3.075-15.268c.1-.819-1.327-1.019-1.45-.2Z"/></g><path class="af" d="M634.252,267.161c-7.254-2.374-10.156,5.144-8.309,10.683s6.789,6.213,9.5,4.485C641.638,278.372,641.507,269.535,634.252,267.161Z"/><path class="at" d="M631.866,267.907c-1.775,0-2.979,1.478-3.666,2.98a8.807,8.807,0,0,0-.643,4.8,7.452,7.452,0,0,0,2.338,4.257,6.435,6.435,0,0,0,1.93,1.243c.546.219,1.646.55,2-.14a.373.373,0,0,0,0-.375c-.339-.475-1.042-.394-1.546-.589a4.153,4.153,0,0,1-1.514-1.122,7.237,7.237,0,0,1-1.813-3.512,6.836,6.836,0,0,1,.795-3.558,6.121,6.121,0,0,1,2.434-2.824.627.627,0,0,0-.314-1.159Z"/></g></svg>